<svg xmlns="http://www.w3.org/2000/svg" width="50" height="50" style="enable-background:new 0 0 50 50;fill:#fff" xml:space="preserve"><path class="st0" d="M30.2 23.1c-1.6 0-2.8 1.4-2.9 3.2 0 1.8 1.2 3.2 2.8 3.2 1.5 0 2.8-1.4 2.9-3.2.1-1.7-1.2-3.2-2.8-3.2zm-10.4-.2c-1.6 0-2.8 1.4-2.9 3.2 0 1.8 1.2 3.2 2.8 3.2 1.5 0 2.8-1.4 2.9-3.2.1-1.7-1.2-3.1-2.8-3.2z"/><path class="st0" d="M25.3 0C11.5-.2.2 10.9 0 24.7S10.9 49.8 24.7 50 49.8 39.1 50 25.3 39.1.2 25.3 0zm15.1 33.3c-2.7 2-5.4 3.2-8 4-.6-.9-1.2-1.8-1.7-2.8.9-.3 1.8-.8 2.7-1.3-.2-.2-.4-.3-.6-.5-5.1 2.3-10.7 2.2-15.8-.3-.2.2-.4.3-.7.5.8.5 1.7 1 2.7 1.3-.5 1-1.1 1.9-1.7 2.8-2.6-.8-5.2-2.1-7.9-4.2-.5-6 .7-12 4.9-18.1 2-.9 4.2-1.6 6.5-1.9.3.5.6 1.2.8 1.7 2.4-.3 4.8-.3 7.2.1.2-.5.6-1.2.8-1.7 2.3.4 4.4 1.1 6.4 2.1 3.5 5.4 5.2 11.4 4.4 18.3z"/></svg>