<?xml version="1.0" encoding="utf-8"?>
<!-- Generator: Adobe Illustrator 26.3.1, SVG Export Plug-In . SVG Version: 6.00 Build 0)  -->
<svg version="1.1" id="uuid-ce698158-f243-4fca-9ebd-fa87eae2c91b"
	 xmlns="http://www.w3.org/2000/svg" xmlns:xlink="http://www.w3.org/1999/xlink" x="0px" y="0px" width="50px" height="50px"
	 viewBox="0 0 50 50" style="enable-background:new 0 0 50 50; fill:#FFFFFF;" xml:space="preserve">
	<path class="st0" d="M30.2,23.1c-1.6,0-2.8,1.4-2.9,3.2c0,1.8,1.2,3.2,2.8,3.2c1.5,0,2.8-1.4,2.9-3.2C33.1,24.6,31.8,23.1,30.2,23.1
	L30.2,23.1z"/>
	<path class="st0" d="M19.8,22.9c-1.6,0-2.8,1.4-2.9,3.2c0,1.8,1.2,3.2,2.8,3.2c1.5,0,2.8-1.4,2.9-3.2C22.7,24.4,21.4,23,19.8,22.9
	L19.8,22.9z"/>
	<path class="st0" d="M25.3,0C11.5-0.2,0.2,10.9,0,24.7S10.9,49.8,24.7,50S49.8,39.1,50,25.3S39.1,0.2,25.3,0z M40.4,33.3
	c-2.7,2-5.4,3.2-8,4c-0.6-0.9-1.2-1.8-1.7-2.8c0.9-0.3,1.8-0.8,2.7-1.3c-0.2-0.2-0.4-0.3-0.6-0.5C27.7,35,22.1,34.9,17,32.4
	c-0.2,0.2-0.4,0.3-0.7,0.5c0.8,0.5,1.7,1,2.7,1.3c-0.5,1-1.1,1.9-1.7,2.8c-2.6-0.8-5.2-2.1-7.9-4.2c-0.5-6,0.7-12,4.9-18.1
	c2-0.9,4.2-1.6,6.5-1.9c0.3,0.5,0.6,1.2,0.8,1.7c2.4-0.3,4.8-0.3,7.2,0.1c0.2-0.5,0.6-1.2,0.8-1.7c2.3,0.4,4.4,1.1,6.4,2.1
	C39.5,20.4,41.2,26.4,40.4,33.3L40.4,33.3z"/>
</svg>