<svg xmlns="http://www.w3.org/2000/svg" width="62" height="62"><defs><clipPath id="a"><path data-name="Rectangle 628" fill="none" stroke="#13264d" d="M0 0h62v62H0z"/></clipPath></defs><g data-name="Groupe 839" clip-path="url(#a)"><path data-name="Tracé 1920" d="M24.161 26.2h2.93v-2.847c0-1.256.032-3.193.944-4.392a5.214 5.214 0 0 1 4.55-2.134 18.421 18.421 0 0 1 5.253.527l-.732 4.346a9.907 9.907 0 0 0-2.361-.353c-1.14 0-2.16.408-2.16 1.547V26.2h4.673l-.326 4.241h-4.347v14.733h-5.494V30.442h-2.93Z" fill="#13264d"/><path data-name="Tracé 1921" d="M61 61H1V16.119L16.119 1H61Z" fill="none" stroke="#13264d" stroke-linejoin="bevel" stroke-width="2"/></g></svg>