<svg xmlns="http://www.w3.org/2000/svg" width="50" height="50" style="enable-background:new 0 0 50 50;fill-rule:evenodd;clip-rule:evenodd;fill:#fff" xml:space="preserve"><path class="st0" d="M25 .6C11.2.6 0 11.8 0 25.6 0 36.7 7.2 46 17.1 49.4c1.2.2 1.7-.5 1.7-1.2v-4.3c-7 1.5-8.4-3.4-8.4-3.4-1.1-2.9-2.8-3.7-2.8-3.7-2.3-1.6.2-1.5.2-1.5 2.5.2 3.8 2.6 3.8 2.6 2.2 3.8 5.9 2.7 7.3 2.1.2-1.6.9-2.7 1.6-3.4C14.9 36 9 33.9 9 24.3c0-2.7 1-5 2.6-6.7-.3-.6-1.1-3.2.2-6.6 0 0 2.1-.7 6.9 2.6 2-.6 4.1-.8 6.3-.8s4.3.3 6.3.8c4.8-3.2 6.9-2.6 6.9-2.6 1.4 3.5.5 6 .2 6.6 1.6 1.8 2.6 4 2.6 6.7 0 9.6-5.9 11.7-11.4 12.3.9.8 1.7 2.3 1.7 4.6v6.9c0 .7.5 1.5 1.7 1.2 9.8-3.3 17-12.6 17-23.7 0-13.8-11.2-25-25-25"/></svg>