<svg id="RS_Lnd" xmlns="http://www.w3.org/2000/svg" xmlns:xlink="http://www.w3.org/1999/xlink" width="62" height="62" viewBox="0 0 62 62">
    <defs>
        <clipPath id="clip-path">
            <rect id="Rectangle_630" data-name="Rectangle 630" width="62" height="62" fill="none" stroke="#13264d" stroke-width="1"/>
        </clipPath>
    </defs>
    <g id="Groupe_843" data-name="Groupe 843" clip-path="url(#clip-path)">
        <path id="Tracé_1924" data-name="Tracé 1924" d="M61,61H1V16.119L16.119,1H61Z" fill="none" stroke="#13264d" stroke-linejoin="bevel" stroke-width="2"/>
        <path id="Tracé_1925" data-name="Tracé 1925" d="M23.858,44.357H18.187V26.209h5.671ZM20.877,23.938h-.041a3.148,3.148,0,0,1-3.383-3.144,3.181,3.181,0,0,1,3.464-3.152,3.16,3.16,0,1,1-.04,6.3m25.67,20.419h-6.43V34.965c0-2.458-1.005-4.135-3.218-4.135a3.248,3.248,0,0,0-3.07,2.224,4.169,4.169,0,0,0-.139,1.483v9.82H27.32s.082-16.636,0-18.148h6.37v2.848c.377-1.245,2.411-3.023,5.661-3.023,4.03,0,7.2,2.611,7.2,8.231Z" fill="#13264d"/>
    </g>
</svg>