<svg xmlns="http://www.w3.org/2000/svg" width="50" height="50" style="enable-background:new 0 0 50 50;fill:#fff" xml:space="preserve"><path class="st0" d="M25 0C11.2 0 0 11.2 0 25s11.2 25 25 25 25-11.2 25-25S38.8 0 25 0zm-7.2 37.7c0 .2-.1.3-.3.3h-4.8c-.3 0-.3-.1-.3-.3V21c0-.3.1-.4.4-.4h4.7c.3 0 .4.1.4.3-.1 5.6-.1 11.2-.1 16.8zm-2.7-19.5c-1.7 0-3.1-1.4-3.1-3.1 0-1.7 1.4-3.1 3.1-3.1 1.7 0 3.1 1.4 3.1 3.2 0 1.7-1.4 3.1-3.1 3zM38 37.6c0 .3-.1.4-.3.3H33c-.3 0-.4-.1-.4-.4v-8.6c0-.7-.1-1.5-.3-2.2-.4-1.3-1.4-2-2.7-1.9-.3 0-.7.1-1 .1-1.2.4-1.7 1.3-2 2.4-.1.5-.2 1.1-.2 1.6v8.5c0 .3-.1.4-.4.4h-4.7c-.3 0-.3-.1-.3-.3V20.8c0-.3.1-.3.4-.3h4.5c.3 0 .3.1.3.3v1.7c0 .1 0 .2.1.4.3-.5.6-.9 1-1.2 1.2-1.1 2.5-1.6 4.1-1.6.9 0 1.7.1 2.5.3 2.1.6 3.2 2.2 3.7 4.2.3 1.2.4 2.5.4 3.7.1 3.2.1 6.3 0 9.3z"/></svg>