<?xml version="1.0" encoding="utf-8"?>
<!-- Generator: Adobe Illustrator 26.3.1, SVG Export Plug-In . SVG Version: 6.00 Build 0)  -->
<svg version="1.1" id="uuid-ef288556-f972-46bd-90b1-a2bc6796f320"
	 xmlns="http://www.w3.org/2000/svg" xmlns:xlink="http://www.w3.org/1999/xlink" x="0px" y="0px" width="50px" height="50px"
	 viewBox="0 0 50 50" style="enable-background:new 0 0 50 50; fill:#181C49;" xml:space="preserve">
	<path class="st0" d="M25,0C11.2,0,0,11.2,0,25s11.2,25,25,25s25-11.2,25-25S38.8,0,25,0z M17.8,37.7c0,0.2-0.1,0.3-0.3,0.3
	c-1.6,0-3.2,0-4.8,0c-0.3,0-0.3-0.1-0.3-0.3c0-2.8,0-5.6,0-8.4s0-5.5,0-8.3c0-0.3,0.1-0.4,0.4-0.4c1.6,0,3.1,0,4.7,0
	c0.3,0,0.4,0.1,0.4,0.3C17.8,26.5,17.8,32.1,17.8,37.7z M15.1,18.2c-1.7,0-3.1-1.4-3.1-3.1c0-1.7,1.4-3.1,3.1-3.1
	c1.7,0,3.1,1.4,3.1,3.2C18.2,16.9,16.8,18.3,15.1,18.2L15.1,18.2z M38,37.6c0,0.3-0.1,0.4-0.3,0.3c-1.6,0-3.1,0-4.7,0
	c-0.3,0-0.4-0.1-0.4-0.4c0-2.9,0-5.8,0-8.6c0-0.7-0.1-1.5-0.3-2.2c-0.4-1.3-1.4-2-2.7-1.9c-0.3,0-0.7,0.1-1,0.1
	c-1.2,0.4-1.7,1.3-2,2.4c-0.1,0.5-0.2,1.1-0.2,1.6c0,2.8,0,5.7,0,8.5c0,0.3-0.1,0.4-0.4,0.4c-1.6,0-3.2,0-4.7,0
	c-0.3,0-0.3-0.1-0.3-0.3c0-5.6,0-11.1,0-16.7c0-0.3,0.1-0.3,0.4-0.3c1.5,0,3,0,4.5,0c0.3,0,0.3,0.1,0.3,0.3c0,0.6,0,1.1,0,1.7
	c0,0.1,0,0.2,0.1,0.4c0.3-0.5,0.6-0.9,1-1.2c1.2-1.1,2.5-1.6,4.1-1.6c0.9,0,1.7,0.1,2.5,0.3c2.1,0.6,3.2,2.2,3.7,4.2
	c0.3,1.2,0.4,2.5,0.4,3.7C38.1,31.5,38.1,34.6,38,37.6L38,37.6z"/>
</svg>