<?xml version="1.0" encoding="utf-8"?>
<!-- Generator: Adobe Illustrator 26.3.1, SVG Export Plug-In . SVG Version: 6.00 Build 0)  -->
<svg version="1.1" id="uuid-682dc8ba-0e96-4d37-b03f-bb2f91cd1c29"
	 xmlns="http://www.w3.org/2000/svg" xmlns:xlink="http://www.w3.org/1999/xlink" x="0px" y="0px" width="50px" height="50px"
	 viewBox="0 0 50 50" style="enable-background:new 0 0 50 50; fill:#181C49;" xml:space="preserve">
	<path class="st0" d="M25,0C11.2,0,0,11.2,0,25s11.2,25,25,25s25-11.2,25-25S38.8,0,25,0z M37.2,17c0,5.4,0,10.8,0,16.1
	c0,0.1,0,0.2,0,0.3c0,0.2,0.1,0.4,0.2,0.5c0.7,0.7,1.4,1.4,2.1,2.1c0.2,0.2,0.3,0.5,0.3,0.8H28.2c0-0.3-0.1-0.5,0.2-0.7
	c0.7-0.7,1.5-1.4,2.2-2.1c0.2-0.2,0.3-0.4,0.3-0.6c0-4.5,0-8.9,0-13.4c0,0,0,0,0-0.1c-0.1,0.1-0.1,0.2-0.1,0.2
	c-1.5,3.9-3.1,7.8-4.6,11.7c-0.6,1.6-1.3,3.2-1.9,4.8c-0.1,0.1-0.1,0.2-0.3,0.2c-0.2,0-0.4,0-0.5,0c-0.1,0-0.2-0.1-0.3-0.2
	C22.1,34.3,21,32,20,29.7c-1.5-3.2-2.9-6.4-4.4-9.6c0-0.1-0.1-0.1-0.1-0.2h0v0.2c0,3.6,0,7.2,0,10.8c0,0.2,0,0.5,0,0.7
	c0.1,0.3,0.2,0.5,0.3,0.7c1,1.2,2,2.4,3,3.6c0.2,0.2,0.2,0.5,0.2,0.7h-8.8c0-0.3,0-0.5,0.2-0.7c1-1.2,2-2.4,3-3.6
	c0.3-0.3,0.4-0.7,0.3-1.2c0-0.1,0-0.2,0-0.2c0-4.3,0-8.5,0-12.8c0-0.5-0.1-0.8-0.4-1.2c-0.9-1-1.7-2-2.5-3c-0.2-0.2-0.3-0.5-0.2-0.8
	h0.2c2.7,0,5.4,0,8.2,0c0.2,0,0.2,0.1,0.3,0.2c2.2,4.7,4.3,9.4,6.5,14.2c0,0.1,0.1,0.1,0.1,0.2c0-0.1,0.1-0.2,0.1-0.2
	c1.9-4.7,3.8-9.4,5.7-14.2c0.1-0.1,0.1-0.2,0.2-0.2c2.6,0,5.3,0,7.9,0c0,0,0.1,0,0.1,0c0,0.3,0.1,0.5-0.2,0.7
	c-0.8,0.7-1.5,1.4-2.2,2.1c-0.2,0.2-0.2,0.3-0.2,0.6C37.2,16.7,37.2,16.8,37.2,17L37.2,17z"/>
</svg>