<svg xmlns="http://www.w3.org/2000/svg" width="50" height="50" style="enable-background:new 0 0 50 50;fill:#fff" xml:space="preserve"><path class="st0" d="M25 0C11.2 0 0 11.2 0 25s11.2 25 25 25 25-11.2 25-25S38.8 0 25 0zm12.2 17v16.4c0 .2.1.4.2.5l2.1 2.1c.2.2.3.5.3.8H28.2c0-.3-.1-.5.2-.7.7-.7 1.5-1.4 2.2-2.1.2-.2.3-.4.3-.6V19.9c-.1.1-.1.2-.1.2-1.5 3.9-3.1 7.8-4.6 11.7-.6 1.6-1.3 3.2-1.9 4.8-.1.1-.1.2-.3.2h-.5c-.1 0-.2-.1-.3-.2-1.1-2.3-2.2-4.6-3.2-6.9-1.5-3.2-2.9-6.4-4.4-9.6 0-.1-.1-.1-.1-.2v11.7c.1.3.2.5.3.7l3 3.6c.2.2.2.5.2.7h-8.8c0-.3 0-.5.2-.7l3-3.6c.3-.3.4-.7.3-1.2v-13c0-.5-.1-.8-.4-1.2-.9-1-1.7-2-2.5-3-.2-.2-.3-.5-.2-.8H19c.2 0 .2.1.3.2 2.2 4.7 4.3 9.4 6.5 14.2 0 .1.1.1.1.2 0-.1.1-.2.1-.2 1.9-4.7 3.8-9.4 5.7-14.2.1-.1.1-.2.2-.2h8c0 .3.1.5-.2.7-.8.7-1.5 1.4-2.2 2.1-.2.2-.2.3-.2.6-.1.2-.1.3-.1.5z"/></svg>