<?xml version="1.0" encoding="utf-8"?><svg xmlns="http://www.w3.org/2000/svg" xmlns:xlink="http://www.w3.org/1999/xlink"><symbol viewBox="0 0 14 14" id="add-dark" xmlns="http://www.w3.org/2000/svg"><defs><clipPath id="aaa"><path data-name="Rectangle 615" fill="none" d="M0 0h14v14H0z"/></clipPath></defs><g data-name="Groupe 825" clip-path="url(#aaa)" fill="none" stroke="#fff" stroke-linejoin="bevel" stroke-width="2"><path data-name="Ligne 296" d="M7 0v14"/><path data-name="Ligne 297" d="M0 7h7"/><path data-name="Ligne 298" d="M10.388 7H14"/></g></symbol><symbol viewBox="0 0 14 14" id="add-light" xmlns="http://www.w3.org/2000/svg"><defs><clipPath id="aba"><path data-name="Rectangle 615" fill="none" d="M0 0h14v14H0z"/></clipPath></defs><g data-name="Groupe 825" clip-path="url(#aba)" fill="none" stroke="#13264d" stroke-linejoin="bevel" stroke-width="2"><path data-name="Ligne 296" d="M7 0v14"/><path data-name="Ligne 297" d="M0 7h7"/><path data-name="Ligne 298" d="M10.388 7H14"/></g></symbol><symbol viewBox="0 0 26.111 26.589" id="alert-dark" xmlns="http://www.w3.org/2000/svg"><defs><clipPath id="aca"><path data-name="Rectangle 587" fill="none" d="M0 0h26.111v26.589H0z"/></clipPath></defs><g data-name="Groupe 785" clip-path="url(#aca)" fill="none" stroke="#fff" stroke-linejoin="bevel" stroke-width="2"><path data-name="Tracé 1874" d="M13.056 21.448H.774l4.423-5.4L6.7 6.483 13.056.742l6.353 5.741 1.506 9.569 4.423 5.4H13.056"/><path data-name="Tracé 1875" d="M8.491 21.448l4.565 4.424 4.564-4.424"/></g></symbol><symbol viewBox="0 0 26.111 26.589" id="alert-light" xmlns="http://www.w3.org/2000/svg"><defs><clipPath id="ada"><path data-name="Rectangle 587" fill="none" stroke="#13264d" d="M0 0h26.111v26.589H0z"/></clipPath></defs><g data-name="Groupe 785" clip-path="url(#ada)" fill="none" stroke="#13264d" stroke-linejoin="bevel" stroke-width="2"><path data-name="Tracé 1874" d="M13.056 21.448H.774l4.423-5.4L6.7 6.483 13.056.742l6.353 5.741 1.506 9.569 4.423 5.4H13.056"/><path data-name="Tracé 1875" d="M8.491 21.448l4.565 4.424 4.564-4.424"/></g></symbol><symbol viewBox="0 0 40.755 25.037" id="arrow-down-dark" xmlns="http://www.w3.org/2000/svg"><defs><clipPath id="aea"><path data-name="Rectangle 607" fill="none" stroke="#fff" stroke-width="5" d="M-4.308-3h40.755v25.037H-4.308z"/></clipPath></defs><g data-name="Groupe 864"><g data-name="Groupe 813" clip-path="url(#aea)" fill="none" stroke="#fff" stroke-width="7" transform="translate(4.308 3)"><path data-name="Ligne 293" stroke-linejoin="bevel" d="M17.527 17.527L1.51 1.51"/><path data-name="Ligne 294" d="M20.975 10.772l9.652-9.262"/></g></g></symbol><symbol viewBox="0 0 40.755 25.037" id="arrow-down-light" xmlns="http://www.w3.org/2000/svg"><defs><clipPath id="afa"><path data-name="Rectangle 607" fill="none" stroke="#13264d" stroke-width="5" d="M-4.308-3h40.755v25.037H-4.308z"/></clipPath></defs><g data-name="Groupe 864"><g data-name="Groupe 813" clip-path="url(#afa)" fill="none" stroke="#13264d" stroke-width="7" transform="translate(4.308 3)"><path data-name="Ligne 293" stroke-linejoin="bevel" d="M17.527 17.527L1.51 1.51"/><path data-name="Ligne 294" d="M20.975 10.772l9.652-9.262"/></g></g></symbol><symbol viewBox="0 0 25.037 40.755" id="arrow-left-dark" xmlns="http://www.w3.org/2000/svg"><defs><clipPath id="aga"><path data-name="Rectangle 607" fill="none" stroke="#fff" stroke-width="5" d="M-4.308-3h40.755v25.037H-4.308z"/></clipPath></defs><g data-name="Groupe 864"><g data-name="Groupe 813" clip-path="url(#aga)" fill="none" stroke="#fff" stroke-width="7" transform="rotate(90 8.865 13.173)"><path data-name="Ligne 293" stroke-linejoin="bevel" d="M17.527 17.527L1.51 1.51"/><path data-name="Ligne 294" d="M20.975 10.772l9.652-9.262"/></g></g></symbol><symbol viewBox="0 0 25.037 40.755" id="arrow-left-light" xmlns="http://www.w3.org/2000/svg"><defs><clipPath id="aha"><path data-name="Rectangle 607" fill="none" stroke="#13264d" stroke-width="5" d="M-4.308-3h40.755v25.037H-4.308z"/></clipPath></defs><g data-name="Groupe 864"><g data-name="Groupe 813" clip-path="url(#aha)" fill="none" stroke="#13264d" stroke-width="7" transform="rotate(90 8.865 13.173)"><path data-name="Ligne 293" stroke-linejoin="bevel" d="M17.527 17.527L1.51 1.51"/><path data-name="Ligne 294" d="M20.975 10.772l9.652-9.262"/></g></g></symbol><symbol viewBox="0 0 25.037 40.755" id="arrow-right-dark" xmlns="http://www.w3.org/2000/svg"><defs><clipPath id="aia"><path data-name="Rectangle 607" fill="none" stroke="#fff" stroke-width="5" d="M-4.308-3h40.755v25.037H-4.308z"/></clipPath></defs><g data-name="Groupe 864"><g data-name="Groupe 813" clip-path="url(#aia)" fill="none" stroke="#fff" stroke-width="7" transform="rotate(-90 19.723 16.723)"><path data-name="Ligne 293" stroke-linejoin="bevel" d="M17.527 17.527L1.51 1.51"/><path data-name="Ligne 294" d="M20.975 10.772l9.652-9.262"/></g></g></symbol><symbol viewBox="0 0 25.037 40.755" id="arrow-right-light" xmlns="http://www.w3.org/2000/svg"><defs><clipPath id="aja"><path data-name="Rectangle 607" fill="none" stroke="#13264d" stroke-width="5" d="M-4.308-3h40.755v25.037H-4.308z"/></clipPath></defs><g data-name="Groupe 864"><g data-name="Groupe 813" clip-path="url(#aja)" fill="none" stroke="#13264d" stroke-width="7" transform="rotate(-90 19.723 16.723)"><path data-name="Ligne 293" stroke-linejoin="bevel" d="M17.527 17.527L1.51 1.51"/><path data-name="Ligne 294" d="M20.975 10.772l9.652-9.262"/></g></g></symbol><symbol viewBox="0 0 40.755 25.037" id="arrow-up-dark" xmlns="http://www.w3.org/2000/svg"><defs><clipPath id="aka"><path data-name="Rectangle 607" fill="none" stroke="#fff" stroke-width="5" d="M-4.308-3h40.755v25.037H-4.308z"/></clipPath></defs><g data-name="Groupe 864"><g data-name="Groupe 813" clip-path="url(#aka)" fill="none" stroke="#fff" stroke-width="7" transform="rotate(180 18.223 11.019)"><path data-name="Ligne 293" stroke-linejoin="bevel" d="M17.527 17.527L1.51 1.51"/><path data-name="Ligne 294" d="M20.975 10.772l9.652-9.262"/></g></g></symbol><symbol viewBox="0 0 40.755 25.037" id="arrow-up-light" xmlns="http://www.w3.org/2000/svg"><defs><clipPath id="ala"><path data-name="Rectangle 607" fill="none" stroke="#13264d" stroke-width="5" d="M-4.308-3h40.755v25.037H-4.308z"/></clipPath></defs><g data-name="Groupe 864"><g data-name="Groupe 813" clip-path="url(#ala)" fill="none" stroke="#13264d" stroke-width="7" transform="rotate(180 18.223 11.019)"><path data-name="Ligne 293" stroke-linejoin="bevel" d="M17.527 17.527L1.51 1.51"/><path data-name="Ligne 294" d="M20.975 10.772l9.652-9.262"/></g></g></symbol><symbol viewBox="0 0 27.037 22.596" id="chat-dark" xmlns="http://www.w3.org/2000/svg"><defs><clipPath id="ama"><path data-name="Rectangle 608" fill="none" d="M0 0h27.037v22.596H0z"/></clipPath></defs><g data-name="Groupe 818" clip-path="url(#ama)" fill="none" stroke="#fff" stroke-linejoin="bevel" stroke-width="2"><path data-name="Tracé 1903" d="M19.643 6.915H1v14.906l4.094-3.341h14.549z"/><path data-name="Tracé 1904" d="M7.394 3.353V1h18.643v14.906l-2.407-1.965"/></g></symbol><symbol viewBox="0 0 27.037 22.596" id="chat-light" xmlns="http://www.w3.org/2000/svg"><defs><clipPath id="ana"><path data-name="Rectangle 608" fill="none" d="M0 0h27.037v22.596H0z"/></clipPath></defs><g data-name="Groupe 818" clip-path="url(#ana)" fill="none" stroke="#13264d" stroke-linejoin="bevel" stroke-width="2"><path data-name="Tracé 1903" d="M19.643 6.915H1v14.906l4.094-3.341h14.549z"/><path data-name="Tracé 1904" d="M7.394 3.353V1h18.643v14.906l-2.407-1.965"/></g></symbol><symbol fill="none" viewBox="0 0 15 15" id="check-dark" xmlns="http://www.w3.org/2000/svg"><path d="M11.467 3.727c.289.189.37.576.181.865l-4.25 6.5a.625.625 0 01-.944.12l-2.75-2.5a.625.625 0 01.841-.925l2.208 2.007 3.849-5.886a.625.625 0 01.865-.181z" fill="currentColor" stroke="#fff" fill-rule="evenodd" clip-rule="evenodd"/></symbol><symbol fill="none" viewBox="0 0 15 15" id="check-light" xmlns="http://www.w3.org/2000/svg"><path d="M11.467 3.727c.289.189.37.576.181.865l-4.25 6.5a.625.625 0 01-.944.12l-2.75-2.5a.625.625 0 01.841-.925l2.208 2.007 3.849-5.886a.625.625 0 01.865-.181z" fill="currentColor" stroke="#13264d" fill-rule="evenodd" clip-rule="evenodd"/></symbol><symbol fill="none" viewBox="0 0 15 15" id="clock-dark" xmlns="http://www.w3.org/2000/svg"><path d="M7.5.877a6.623 6.623 0 100 13.246A6.623 6.623 0 007.5.877zM1.827 7.5a5.673 5.673 0 1111.346 0 5.673 5.673 0 01-11.346 0zM8 4.5a.5.5 0 00-1 0v3a.5.5 0 00.146.354l2 2a.5.5 0 00.708-.708L8 7.293V4.5z" fill="currentColor" stroke="#fff" fill-rule="evenodd" clip-rule="evenodd"/></symbol><symbol fill="none" viewBox="0 0 15 15" id="clock-light" xmlns="http://www.w3.org/2000/svg"><path d="M7.5.877a6.623 6.623 0 100 13.246A6.623 6.623 0 007.5.877zM1.827 7.5a5.673 5.673 0 1111.346 0 5.673 5.673 0 01-11.346 0zM8 4.5a.5.5 0 00-1 0v3a.5.5 0 00.146.354l2 2a.5.5 0 00.708-.708L8 7.293V4.5z" fill="currentColor" stroke="#13264d" fill-rule="evenodd" clip-rule="evenodd"/></symbol><symbol fill="none" viewBox="0 0 15 15" id="cross-dark" xmlns="http://www.w3.org/2000/svg"><path d="M12.854 2.854a.5.5 0 00-.708-.708L7.5 6.793 2.854 2.146a.5.5 0 10-.708.708L6.793 7.5l-4.647 4.646a.5.5 0 00.708.708L7.5 8.207l4.646 4.647a.5.5 0 00.708-.708L8.207 7.5l4.647-4.646z" fill="currentColor" stroke="#fff" fill-rule="evenodd" clip-rule="evenodd"/></symbol><symbol fill="none" viewBox="0 0 15 15" id="cross-light" xmlns="http://www.w3.org/2000/svg"><path d="M12.854 2.854a.5.5 0 00-.708-.708L7.5 6.793 2.854 2.146a.5.5 0 10-.708.708L6.793 7.5l-4.647 4.646a.5.5 0 00.708.708L7.5 8.207l4.646 4.647a.5.5 0 00.708-.708L8.207 7.5l4.647-4.646z" fill="currentColor" stroke="#13264d" fill-rule="evenodd" clip-rule="evenodd"/></symbol><symbol viewBox="0 0 62 62" id="facebook-dark" xmlns="http://www.w3.org/2000/svg"><defs><clipPath id="aua"><path data-name="Rectangle 628" fill="none" d="M0 0h62v62H0z"/></clipPath></defs><g data-name="Groupe 839" clip-path="url(#aua)"><path data-name="Tracé 1920" d="M24.161 26.2h2.93v-2.847c0-1.256.032-3.193.944-4.392a5.214 5.214 0 014.55-2.134 18.421 18.421 0 015.253.527l-.732 4.346a9.907 9.907 0 00-2.361-.353c-1.14 0-2.16.408-2.16 1.547V26.2h4.673l-.326 4.241h-4.347v14.733h-5.494V30.442h-2.93z" fill="#fff"/><path data-name="Tracé 1921" d="M61 61H1V16.119L16.119 1H61z" fill="none" stroke="#fff" stroke-linejoin="bevel" stroke-width="2"/></g></symbol><symbol viewBox="0 0 62 62" id="facebook-light" xmlns="http://www.w3.org/2000/svg"><defs><clipPath id="ava"><path data-name="Rectangle 628" fill="none" stroke="#13264d" d="M0 0h62v62H0z"/></clipPath></defs><g data-name="Groupe 839" clip-path="url(#ava)"><path data-name="Tracé 1920" d="M24.161 26.2h2.93v-2.847c0-1.256.032-3.193.944-4.392a5.214 5.214 0 014.55-2.134 18.421 18.421 0 015.253.527l-.732 4.346a9.907 9.907 0 00-2.361-.353c-1.14 0-2.16.408-2.16 1.547V26.2h4.673l-.326 4.241h-4.347v14.733h-5.494V30.442h-2.93z" fill="#13264d"/><path data-name="Tracé 1921" d="M61 61H1V16.119L16.119 1H61z" fill="none" stroke="#13264d" stroke-linejoin="bevel" stroke-width="2"/></g></symbol><symbol viewBox="0 0 62 62" id="linkedin-dark" xmlns="http://www.w3.org/2000/svg"><defs><clipPath id="awa"><path data-name="Rectangle 630" fill="none" d="M0 0h62v62H0z"/></clipPath></defs><g data-name="Groupe 843" clip-path="url(#awa)"><path data-name="Tracé 1924" d="M61 61H1V16.119L16.119 1H61z" fill="none" stroke="#fff" stroke-linejoin="bevel" stroke-width="2"/><path data-name="Tracé 1925" d="M23.858 44.357h-5.671V26.209h5.671zm-2.981-20.419h-.041a3.148 3.148 0 01-3.383-3.144 3.181 3.181 0 013.464-3.152 3.16 3.16 0 11-.04 6.3m25.67 20.419h-6.43v-9.396c0-2.458-1.005-4.135-3.218-4.135a3.248 3.248 0 00-3.07 2.224 4.169 4.169 0 00-.139 1.483v9.82h-6.37s.082-16.636 0-18.148h6.37v2.848c.377-1.245 2.411-3.023 5.661-3.023 4.03 0 7.2 2.611 7.2 8.231z" fill="#fff"/></g></symbol><symbol viewBox="0 0 62 62" id="linkedin-light" xmlns="http://www.w3.org/2000/svg"><defs><clipPath id="axa"><path data-name="Rectangle 630" fill="none" stroke="#13264d" d="M0 0h62v62H0z"/></clipPath></defs><g data-name="Groupe 843" clip-path="url(#axa)"><path data-name="Tracé 1924" d="M61 61H1V16.119L16.119 1H61z" fill="none" stroke="#13264d" stroke-linejoin="bevel" stroke-width="2"/><path data-name="Tracé 1925" d="M23.858 44.357h-5.671V26.209h5.671zm-2.981-20.419h-.041a3.148 3.148 0 01-3.383-3.144 3.181 3.181 0 013.464-3.152 3.16 3.16 0 11-.04 6.3m25.67 20.419h-6.43v-9.396c0-2.458-1.005-4.135-3.218-4.135a3.248 3.248 0 00-3.07 2.224 4.169 4.169 0 00-.139 1.483v9.82h-6.37s.082-16.636 0-18.148h6.37v2.848c.377-1.245 2.411-3.023 5.661-3.023 4.03 0 7.2 2.611 7.2 8.231z" fill="#13264d"/></g></symbol><symbol viewBox="0 0 21.36 12.98" id="meeting-dark" xmlns="http://www.w3.org/2000/svg"><defs><clipPath id="aya"><path data-name="Rectangle 635" fill="none" d="M0 0h21.36v12.98H0z"/></clipPath></defs><g data-name="Groupe 857" clip-path="url(#aya)" fill="none" stroke="#fff" stroke-linejoin="bevel" stroke-width="1.386"><path data-name="Tracé 1933" d="M12.488 6.49l-6 6-6-6 6-6L9.31 3.312"/><path data-name="Tracé 1934" d="M8.872 6.49l6-6 6 6-6 6-2.822-2.822"/></g></symbol><symbol viewBox="0 0 21.36 12.98" id="meeting-light" xmlns="http://www.w3.org/2000/svg"><defs><clipPath id="aza"><path data-name="Rectangle 635" fill="none" d="M0 0h21.36v12.98H0z"/></clipPath></defs><g data-name="Groupe 857" clip-path="url(#aza)" fill="none" stroke="#13264d" stroke-linejoin="bevel" stroke-width="1.386"><path data-name="Tracé 1933" d="M12.488 6.49l-6 6-6-6 6-6L9.31 3.312"/><path data-name="Tracé 1934" d="M8.872 6.49l6-6 6 6-6 6-2.822-2.822"/></g></symbol><symbol fill="none" viewBox="0 0 15 15" id="moon-dark" xmlns="http://www.w3.org/2000/svg"><path d="M2.9.5a.4.4 0 00-.8 0v.6h-.6a.4.4 0 100 .8h.6v.6a.4.4 0 10.8 0v-.6h.6a.4.4 0 000-.8h-.6V.5zm3 3a.4.4 0 10-.8 0v.6h-.6a.4.4 0 100 .8h.6v.6a.4.4 0 10.8 0v-.6h.6a.4.4 0 000-.8h-.6v-.6zm-4 3a.4.4 0 10-.8 0v.6H.5a.4.4 0 100 .8h.6v.6a.4.4 0 00.8 0v-.6h.6a.4.4 0 000-.8h-.6v-.6zM8.544.982l-.298-.04c-.213-.024-.34.224-.217.4A6.57 6.57 0 019.203 5.1a6.602 6.602 0 01-6.243 6.59c-.214.012-.333.264-.183.417.069.07.138.139.21.206l.072.066.26.226.188.148.121.09.187.131.176.115c.12.076.244.149.37.217l.264.135.26.12.303.122.244.086a6.568 6.568 0 001.103.26l.317.04.267.02a6.6 6.6 0 006.943-7.328l-.037-.277a6.557 6.557 0 00-.384-1.415l-.113-.268-.077-.166-.074-.148a6.602 6.602 0 00-.546-.883l-.153-.2-.199-.24-.163-.18-.12-.124-.16-.158-.223-.2-.32-.26-.245-.177-.292-.19-.321-.186-.328-.165-.113-.052-.24-.101-.276-.104-.252-.082-.325-.09-.265-.06-.292-.053zm1.86 4.318a7.578 7.578 0 00-.572-2.894 5.601 5.601 0 11-4.748 10.146 7.61 7.61 0 003.66-2.51.749.749 0 001.355-.442.75.75 0 00-.584-.732c.062-.116.122-.235.178-.355A1.25 1.25 0 1010.35 6.2c.034-.295.052-.595.052-.9z" fill="#fff" fill-rule="evenodd" clip-rule="evenodd"/></symbol><symbol fill="none" viewBox="0 0 15 15" id="moon-light" xmlns="http://www.w3.org/2000/svg"><path d="M2.9.5a.4.4 0 00-.8 0v.6h-.6a.4.4 0 100 .8h.6v.6a.4.4 0 10.8 0v-.6h.6a.4.4 0 000-.8h-.6V.5zm3 3a.4.4 0 10-.8 0v.6h-.6a.4.4 0 100 .8h.6v.6a.4.4 0 10.8 0v-.6h.6a.4.4 0 000-.8h-.6v-.6zm-4 3a.4.4 0 10-.8 0v.6H.5a.4.4 0 100 .8h.6v.6a.4.4 0 00.8 0v-.6h.6a.4.4 0 000-.8h-.6v-.6zM8.544.982l-.298-.04c-.213-.024-.34.224-.217.4A6.57 6.57 0 019.203 5.1a6.602 6.602 0 01-6.243 6.59c-.214.012-.333.264-.183.417.069.07.138.139.21.206l.072.066.26.226.188.148.121.09.187.131.176.115c.12.076.244.149.37.217l.264.135.26.12.303.122.244.086a6.568 6.568 0 001.103.26l.317.04.267.02a6.6 6.6 0 006.943-7.328l-.037-.277a6.557 6.557 0 00-.384-1.415l-.113-.268-.077-.166-.074-.148a6.602 6.602 0 00-.546-.883l-.153-.2-.199-.24-.163-.18-.12-.124-.16-.158-.223-.2-.32-.26-.245-.177-.292-.19-.321-.186-.328-.165-.113-.052-.24-.101-.276-.104-.252-.082-.325-.09-.265-.06-.292-.053zm1.86 4.318a7.578 7.578 0 00-.572-2.894 5.601 5.601 0 11-4.748 10.146 7.61 7.61 0 003.66-2.51.749.749 0 001.355-.442.75.75 0 00-.584-.732c.062-.116.122-.235.178-.355A1.25 1.25 0 1010.35 6.2c.034-.295.052-.595.052-.9z" fill="#13264d" fill-rule="evenodd" clip-rule="evenodd"/></symbol><symbol viewBox="0 0 18.923 15.046" id="next-dark" xmlns="http://www.w3.org/2000/svg"><g fill="#fff"><path data-name="Tracé 1897" d="M12.108 0l-1.414 1.415L15.8 6.523H0v2h18.216l.707-1.707z"/><path data-name="Tracé 1898" d="M13.415 10.91l-2.722 2.721 1.414 1.414 4.131-4.135z"/></g></symbol><symbol viewBox="0 0 18.923 15.046" id="next-light" xmlns="http://www.w3.org/2000/svg"><g fill="#13264d"><path data-name="Tracé 1897" d="M12.108 0l-1.414 1.415L15.8 6.523H0v2h18.216l.707-1.707z"/><path data-name="Tracé 1898" d="M13.415 10.91l-2.722 2.721 1.414 1.414 4.131-4.135z"/></g></symbol><symbol viewBox="0 0 33.2 48.261" id="podcast-dark" xmlns="http://www.w3.org/2000/svg"><defs><clipPath id="bea"><path data-name="Rectangle 631" fill="none" d="M0 0h33.2v48.261H0z"/></clipPath></defs><g data-name="Groupe 849" clip-path="url(#bea)" fill="none" stroke="#fff" stroke-linejoin="bevel" stroke-width="2"><path data-name="Ligne 303" d="M6.623 47.261h19.953"/><path data-name="Ligne 304" d="M16.6 40.541v6.72"/><path data-name="Tracé 1926" d="M16.6 34.129h0a9.976 9.976 0 01-9.976-9.976V10.976a9.976 9.976 0 0119.952 0v13.177a9.976 9.976 0 01-9.976 9.976z"/><path data-name="Tracé 1927" d="M.724 29.677l10 10.5h11.751l10-10.5"/><path data-name="Ligne 305" d="M6.623 24.153l18.894 4.466"/></g></symbol><symbol viewBox="0 0 33.2 48.261" id="podcast-light" xmlns="http://www.w3.org/2000/svg"><defs><clipPath id="bfa"><path data-name="Rectangle 631" fill="none" stroke="#13264d" d="M0 0h33.2v48.261H0z"/></clipPath></defs><g data-name="Groupe 849" clip-path="url(#bfa)" fill="none" stroke="#13264d" stroke-linejoin="bevel" stroke-width="2"><path data-name="Ligne 303" d="M6.623 47.261h19.953"/><path data-name="Ligne 304" d="M16.6 40.541v6.72"/><path data-name="Tracé 1926" d="M16.6 34.129h0a9.976 9.976 0 01-9.976-9.976V10.976a9.976 9.976 0 0119.952 0v13.177a9.976 9.976 0 01-9.976 9.976z"/><path data-name="Tracé 1927" d="M.724 29.677l10 10.5h11.751l10-10.5"/><path data-name="Ligne 305" d="M6.623 24.153l18.894 4.466"/></g></symbol><symbol viewBox="0 0 18.923 15.046" id="previous-dark" xmlns="http://www.w3.org/2000/svg"><path data-name="Tracé 1897" d="M6.815 0l1.414 1.415L3.12 6.523h15.8v2H.707L0 6.816z" fill="#fff"/><path data-name="Tracé 1898" d="M5.507 10.91l2.722 2.721-1.414 1.414-4.131-4.135z" fill="#fff"/></symbol><symbol viewBox="0 0 18.923 15.046" id="previous-light" xmlns="http://www.w3.org/2000/svg"><path data-name="Tracé 1897" d="M6.815 0l1.414 1.415L3.12 6.523h15.8v2H.707L0 6.816z" fill="#13264d"/><path data-name="Tracé 1898" d="M5.507 10.91l2.722 2.721-1.414 1.414-4.131-4.135z" fill="#13264d"/></symbol><symbol viewBox="0 0 26.969 26.704" id="profile-dark" xmlns="http://www.w3.org/2000/svg"><defs><clipPath id="bia"><path data-name="Rectangle 600" fill="none" d="M0 0h26.969v26.704H0z"/></clipPath></defs><g data-name="Groupe 803" clip-path="url(#bia)" fill="none" stroke="#fff" stroke-linejoin="bevel" stroke-width="2"><path data-name="Tracé 1889" d="M17.66 12.975l2-5.8a6.175 6.175 0 10-12.351 0l2 5.8"/><path data-name="Tracé 1890" d="M25.985 25.7h-25l1.9-10.729 6.424-2 4.176 1 4.178-1 6.422 2z"/><path data-name="Tracé 1891" d="M23.732 15.474L8.515 22.318 9.567 25.7"/><path data-name="Ligne 289" d="M2.885 14.975l10.6 5.108"/></g></symbol><symbol viewBox="0 0 26.969 26.704" id="profile-light" xmlns="http://www.w3.org/2000/svg"><defs><clipPath id="bja"><path data-name="Rectangle 600" fill="none" stroke="#13264d" d="M0 0h26.969v26.704H0z"/></clipPath></defs><g data-name="Groupe 803" clip-path="url(#bja)" fill="none" stroke="#13264d" stroke-linejoin="bevel" stroke-width="2"><path data-name="Tracé 1889" d="M17.66 12.975l2-5.8a6.175 6.175 0 10-12.351 0l2 5.8"/><path data-name="Tracé 1890" d="M25.985 25.7h-25l1.9-10.729 6.424-2 4.176 1 4.178-1 6.422 2z"/><path data-name="Tracé 1891" d="M23.732 15.474L8.515 22.318 9.567 25.7"/><path data-name="Ligne 289" d="M2.885 14.975l10.6 5.108"/></g></symbol><symbol viewBox="0 0 30.398 30.26" id="search-dark" xmlns="http://www.w3.org/2000/svg"><defs><clipPath id="bka"><path data-name="Rectangle 589" fill="none" d="M0 0h30.398v30.26H0z"/></clipPath></defs><g data-name="Groupe 789" clip-path="url(#bka)" fill="none" stroke="#fff" stroke-linejoin="bevel" stroke-width="2" opacity=".7"><path data-name="Tracé 1877" d="M22.363 1h-9.95L5.378 8.036v9.949l7.035 7.036h9.95l7.037-7.036V8.036z"/><path data-name="Ligne 286" d="M8.826 21.434L.707 29.553"/></g></symbol><symbol viewBox="0 0 30.398 30.26" id="search-light" xmlns="http://www.w3.org/2000/svg"><defs><clipPath id="bla"><path data-name="Rectangle 589" fill="none" stroke="#13264d" d="M0 0h30.398v30.26H0z"/></clipPath></defs><g data-name="Groupe 789" clip-path="url(#bla)" fill="none" stroke="#13264d" stroke-linejoin="bevel" stroke-width="2" opacity=".7"><path data-name="Tracé 1877" d="M22.363 1h-9.95L5.378 8.036v9.949l7.035 7.036h9.95l7.037-7.036V8.036z"/><path data-name="Ligne 286" d="M8.826 21.434L.707 29.553"/></g></symbol><symbol viewBox="0 0 0 0" id="sprite" xmlns="http://www.w3.org/2000/svg"/><symbol fill="none" viewBox="0 0 15 15" id="sun-dark" xmlns="http://www.w3.org/2000/svg"><path d="M7.5 0a.5.5 0 01.5.5v2a.5.5 0 01-1 0v-2a.5.5 0 01.5-.5zM2.197 2.197a.5.5 0 01.707 0L4.318 3.61a.5.5 0 01-.707.707L2.197 2.904a.5.5 0 010-.707zM.5 7a.5.5 0 000 1h2a.5.5 0 000-1h-2zm1.697 5.803a.5.5 0 010-.707l1.414-1.414a.5.5 0 11.707.707l-1.414 1.414a.5.5 0 01-.707 0zM12.5 7a.5.5 0 000 1h2a.5.5 0 000-1h-2zm-1.818-2.682a.5.5 0 010-.707l1.414-1.414a.5.5 0 11.707.707L11.39 4.318a.5.5 0 01-.707 0zM8 12.5a.5.5 0 00-1 0v2a.5.5 0 001 0v-2zm2.682-1.818a.5.5 0 01.707 0l1.414 1.414a.5.5 0 11-.707.707l-1.414-1.414a.5.5 0 010-.707zM5.5 7.5a2 2 0 114 0 2 2 0 01-4 0zm2-3a3 3 0 100 6 3 3 0 000-6z" fill="#fff" fill-rule="evenodd" clip-rule="evenodd"/></symbol><symbol fill="none" viewBox="0 0 15 15" id="sun-light" xmlns="http://www.w3.org/2000/svg"><path d="M7.5 0a.5.5 0 01.5.5v2a.5.5 0 01-1 0v-2a.5.5 0 01.5-.5zM2.197 2.197a.5.5 0 01.707 0L4.318 3.61a.5.5 0 01-.707.707L2.197 2.904a.5.5 0 010-.707zM.5 7a.5.5 0 000 1h2a.5.5 0 000-1h-2zm1.697 5.803a.5.5 0 010-.707l1.414-1.414a.5.5 0 11.707.707l-1.414 1.414a.5.5 0 01-.707 0zM12.5 7a.5.5 0 000 1h2a.5.5 0 000-1h-2zm-1.818-2.682a.5.5 0 010-.707l1.414-1.414a.5.5 0 11.707.707L11.39 4.318a.5.5 0 01-.707 0zM8 12.5a.5.5 0 00-1 0v2a.5.5 0 001 0v-2zm2.682-1.818a.5.5 0 01.707 0l1.414 1.414a.5.5 0 11-.707.707l-1.414-1.414a.5.5 0 010-.707zM5.5 7.5a2 2 0 114 0 2 2 0 01-4 0zm2-3a3 3 0 100 6 3 3 0 000-6z" fill="#13264d" fill-rule="evenodd" clip-rule="evenodd"/></symbol><symbol viewBox="0 0 62 62" id="twitter-dark" xmlns="http://www.w3.org/2000/svg"><defs><clipPath id="bpa"><path data-name="Rectangle 629" fill="none" d="M0 0h62v62H0z"/></clipPath></defs><g data-name="Groupe 841" clip-path="url(#bpa)"><path data-name="Tracé 1922" d="M46.269 23.265a11.661 11.661 0 01-3.346.917 5.828 5.828 0 002.561-3.222 11.634 11.634 0 01-3.7 1.412 5.831 5.831 0 00-9.926 5.313A16.538 16.538 0 0119.851 21.6a5.834 5.834 0 001.8 7.78 5.822 5.822 0 01-2.64-.727v.071a5.826 5.826 0 004.674 5.712 5.676 5.676 0 01-1.535.206 5.737 5.737 0 01-1.1-.1 5.827 5.827 0 005.45 4.037 11.689 11.689 0 01-7.235 2.494 11.807 11.807 0 01-1.39-.08 16.5 16.5 0 008.93 2.616c10.717 0 16.574-8.875 16.574-16.575 0-.253 0-.505-.015-.753a11.82 11.82 0 002.906-3.016" fill="#fff"/><path data-name="Tracé 1923" d="M61 61H1V16.119L16.119 1H61z" fill="none" stroke="#fff" stroke-linejoin="bevel" stroke-width="2"/></g></symbol><symbol viewBox="0 0 62 62" id="twitter-light" xmlns="http://www.w3.org/2000/svg"><defs><clipPath id="bqa"><path data-name="Rectangle 629" fill="#13264d" stroke="#13264d" d="M0 0h62v62H0z"/></clipPath></defs><g data-name="Groupe 841" clip-path="url(#bqa)"><path data-name="Tracé 1922" d="M46.269 23.265a11.661 11.661 0 01-3.346.917 5.828 5.828 0 002.561-3.222 11.634 11.634 0 01-3.7 1.412 5.831 5.831 0 00-9.926 5.313A16.538 16.538 0 0119.851 21.6a5.834 5.834 0 001.8 7.78 5.822 5.822 0 01-2.64-.727v.071a5.826 5.826 0 004.674 5.712 5.676 5.676 0 01-1.535.206 5.737 5.737 0 01-1.1-.1 5.827 5.827 0 005.45 4.037 11.689 11.689 0 01-7.235 2.494 11.807 11.807 0 01-1.39-.08 16.5 16.5 0 008.93 2.616c10.717 0 16.574-8.875 16.574-16.575 0-.253 0-.505-.015-.753a11.82 11.82 0 002.906-3.016" fill="#13264d"/><path data-name="Tracé 1923" d="M61 61H1V16.119L16.119 1H61z" fill="none" stroke="#13264d" stroke-linejoin="bevel" stroke-width="2"/></g></symbol><symbol viewBox="0 0 29.328 26.07" id="wallet-dark" xmlns="http://www.w3.org/2000/svg"><defs><clipPath id="bra"><path data-name="Rectangle 594" fill="none" stroke="#fff" d="M0 0h29.328v26.07H0z"/></clipPath></defs><g data-name="Groupe 798" clip-path="url(#bra)" fill="none" stroke="#fff" stroke-linejoin="bevel" stroke-width="2"><path data-name="Rectangle 592" d="M1 7.928h27.328V25.07H1z"/><path data-name="Tracé 1886" d="M23.5 7.928V.955L1 7.928"/><path data-name="Rectangle 593" d="M18.664 14.08h9.664v4.839h-9.664z"/></g></symbol><symbol viewBox="0 0 29.328 26.07" id="wallet-light" xmlns="http://www.w3.org/2000/svg"><defs><clipPath id="bsa"><path data-name="Rectangle 594" fill="none" stroke="#13264d" d="M0 0h29.328v26.07H0z"/></clipPath></defs><g data-name="Groupe 798" clip-path="url(#bsa)" fill="none" stroke="#13264d" stroke-linejoin="bevel" stroke-width="2"><path data-name="Rectangle 592" d="M1 7.928h27.328V25.07H1z"/><path data-name="Tracé 1886" d="M23.5 7.928V.955L1 7.928"/><path data-name="Rectangle 593" d="M18.664 14.08h9.664v4.839h-9.664z"/></g></symbol></svg>