<svg width="15" height="15" fill="none" xmlns="http://www.w3.org/2000/svg"><path d="M7.5 0a.5.5 0 0 1 .5.5v2a.5.5 0 0 1-1 0v-2a.5.5 0 0 1 .5-.5ZM2.197 2.197a.5.5 0 0 1 .707 0L4.318 3.61a.5.5 0 0 1-.707.707L2.197 2.904a.5.5 0 0 1 0-.707ZM.5 7a.5.5 0 0 0 0 1h2a.5.5 0 0 0 0-1h-2Zm1.697 5.803a.5.5 0 0 1 0-.707l1.414-1.414a.5.5 0 1 1 .707.707l-1.414 1.414a.5.5 0 0 1-.707 0ZM12.5 7a.5.5 0 0 0 0 1h2a.5.5 0 0 0 0-1h-2Zm-1.818-2.682a.5.5 0 0 1 0-.707l1.414-1.414a.5.5 0 1 1 .707.707L11.39 4.318a.5.5 0 0 1-.707 0ZM8 12.5a.5.5 0 0 0-1 0v2a.5.5 0 0 0 1 0v-2Zm2.682-1.818a.5.5 0 0 1 .707 0l1.414 1.414a.5.5 0 1 1-.707.707l-1.414-1.414a.5.5 0 0 1 0-.707ZM5.5 7.5a2 2 0 1 1 4 0 2 2 0 0 1-4 0Zm2-3a3 3 0 1 0 0 6 3 3 0 0 0 0-6Z" fill="#13264d" fill-rule="evenodd" clip-rule="evenodd"/></svg>