<svg xmlns="http://www.w3.org/2000/svg" width="50" height="50" style="enable-background:new 0 0 50 50;fill:#fff" xml:space="preserve"><path class="st0" d="M25 0C11.2 0 0 11.2 0 25s11.2 25 25 25 25-11.2 25-25S38.8 0 25 0zm11.6 17c-.4 3.9-2 13.5-2.8 18-.4 1.9-1 2.5-1.7 2.6-1.5.1-2.6-1-4-1.9-2.2-1.4-3.4-2.3-5.6-3.7-2.5-1.6-.9-2.5.5-4 .4-.4 6.8-6.2 6.9-6.7 0-.1 0-.3-.1-.4-.2-.1-.4-.1-.5-.1-.2.1-3.7 2.4-10.6 7-1 .7-1.9 1-2.7 1-.9 0-2.6-.5-3.9-.9-1.6-.5-2.8-.8-2.7-1.6.1-.5.7-.9 1.9-1.4 7.3-3.2 12.2-5.3 14.6-6.3 6.9-2.9 8.4-3.4 9.3-3.4.2 0 .7.1 1 .3.3.2.3.5.4.7v.8z"/></svg>