<?xml version="1.0" encoding="utf-8"?>
<!-- Generator: Adobe Illustrator 26.3.1, SVG Export Plug-In . SVG Version: 6.00 Build 0)  -->
<svg version="1.1" id="uuid-fd250cee-f6dd-44fe-be7c-06ee3538e663"
	 xmlns="http://www.w3.org/2000/svg" xmlns:xlink="http://www.w3.org/1999/xlink" x="0px" y="0px" width="50px" height="50px"
	 viewBox="0 0 50 50" style="enable-background:new 0 0 50 50; fill:#FFFFFF;" xml:space="preserve">
	<path class="st0" d="M25,0C11.2,0,0,11.2,0,25s11.2,25,25,25s25-11.2,25-25S38.8,0,25,0z M36.6,17c-0.4,3.9-2,13.5-2.8,18
	c-0.4,1.9-1,2.5-1.7,2.6c-1.5,0.1-2.6-1-4-1.9c-2.2-1.4-3.4-2.3-5.6-3.7c-2.5-1.6-0.9-2.5,0.5-4c0.4-0.4,6.8-6.2,6.9-6.7
	c0-0.1,0-0.3-0.1-0.4c-0.2-0.1-0.4-0.1-0.5-0.1c-0.2,0.1-3.7,2.4-10.6,7c-1,0.7-1.9,1-2.7,1c-0.9,0-2.6-0.5-3.9-0.9
	c-1.6-0.5-2.8-0.8-2.7-1.6c0.1-0.5,0.7-0.9,1.9-1.4c7.3-3.2,12.2-5.3,14.6-6.3c6.9-2.9,8.4-3.4,9.3-3.4c0.2,0,0.7,0.1,1,0.3
	c0.3,0.2,0.3,0.5,0.4,0.7C36.6,16.2,36.6,16.6,36.6,17L36.6,17z"/>
</svg>