<?xml version="1.0" encoding="utf-8"?>
<!-- Generator: Adobe Illustrator 26.3.1, SVG Export Plug-In . SVG Version: 6.00 Build 0)  -->
<svg version="1.1" id="uuid-1d23c344-e693-49c5-bf82-78c74eb721d1"
	 xmlns="http://www.w3.org/2000/svg" xmlns:xlink="http://www.w3.org/1999/xlink" x="0px" y="0px" width="50px" height="50px"
	 viewBox="0 0 50 50" style="enable-background:new 0 0 50 50; fill:#FFFFFF;" xml:space="preserve">
	<path class="st0" d="M25,0C11.2,0,0,11.2,0,25s11.2,25,25,25s25-11.2,25-25S38.8,0,25,0z M37.1,18.8c0,0.3,0,0.5,0,0.8
	c0,8.3-6.3,17.8-17.8,17.8l0,0c-3.4,0-6.7-1-9.6-2.8c0.5,0.1,1,0.1,1.5,0.1c2.8,0,5.6-0.9,7.8-2.7c-2.7-0.1-5-1.8-5.8-4.3
	c0.9,0.2,1.9,0.2,2.8-0.1c-2.9-0.6-5-3.2-5-6.1v-0.1c0.9,0.5,1.9,0.8,2.8,0.8c-2.8-1.8-3.6-5.5-1.9-8.4c3.2,3.9,7.9,6.3,12.9,6.5
	c-0.5-2.2,0.2-4.5,1.8-6c2.5-2.4,6.5-2.3,8.9,0.3c1.4-0.3,2.7-0.8,4-1.5c-0.5,1.5-1.5,2.7-2.8,3.5c1.2-0.2,2.5-0.5,3.6-1
	C39.4,16.8,38.4,17.9,37.1,18.8L37.1,18.8z"/>
</svg>