<svg xmlns="http://www.w3.org/2000/svg" width="50" height="50" style="enable-background:new 0 0 50 50;fill:#fff" xml:space="preserve"><path class="st0" d="M25 0C11.2 0 0 11.2 0 25s11.2 25 25 25 25-11.2 25-25S38.8 0 25 0zm12.1 18.8v.8c0 8.3-6.3 17.8-17.8 17.8-3.4 0-6.7-1-9.6-2.8.5.1 1 .1 1.5.1 2.8 0 5.6-.9 7.8-2.7-2.7-.1-5-1.8-5.8-4.3.9.2 1.9.2 2.8-.1-2.9-.6-5-3.2-5-6.1v-.1c.9.5 1.9.8 2.8.8-2.8-1.8-3.6-5.5-1.9-8.4 3.2 3.9 7.9 6.3 12.9 6.5-.5-2.2.2-4.5 1.8-6 2.5-2.4 6.5-2.3 8.9.3 1.4-.3 2.7-.8 4-1.5-.5 1.5-1.5 2.7-2.8 3.5 1.2-.2 2.5-.5 3.6-1-.9 1.2-1.9 2.3-3.2 3.2z"/></svg>