<svg id="RS_Tw" xmlns="http://www.w3.org/2000/svg" xmlns:xlink="http://www.w3.org/1999/xlink" width="62" height="62" viewBox="0 0 62 62">
    <defs>
        <clipPath id="clip-path">
            <rect id="Rectangle_629" data-name="Rectangle 629" width="62" height="62" fill="#13264d" stroke="#13264d" stroke-width="1"/>
        </clipPath>
    </defs>
    <g id="Groupe_841" data-name="Groupe 841" clip-path="url(#clip-path)">
        <path id="Tracé_1922" data-name="Tracé 1922" d="M46.269,23.265a11.661,11.661,0,0,1-3.346.917,5.828,5.828,0,0,0,2.561-3.222,11.634,11.634,0,0,1-3.7,1.412,5.831,5.831,0,0,0-9.926,5.313A16.538,16.538,0,0,1,19.851,21.6a5.834,5.834,0,0,0,1.8,7.78,5.822,5.822,0,0,1-2.64-.727v.071a5.826,5.826,0,0,0,4.674,5.712,5.676,5.676,0,0,1-1.535.206,5.737,5.737,0,0,1-1.1-.1A5.827,5.827,0,0,0,26.5,38.579a11.689,11.689,0,0,1-7.235,2.494,11.807,11.807,0,0,1-1.39-.08,16.5,16.5,0,0,0,8.93,2.616c10.717,0,16.574-8.875,16.574-16.575,0-.253,0-.505-.015-.753a11.82,11.82,0,0,0,2.906-3.016" fill="#13264d"/>
        <path id="Tracé_1923" data-name="Tracé 1923" d="M61,61H1V16.119L16.119,1H61Z" fill="none" stroke="#13264d" stroke-linejoin="bevel" stroke-width="2"/>
    </g>
</svg>