<?xml version="1.0" encoding="UTF-8"?><svg id="uuid-5ba18703-19e7-493c-8d1e-9aa042c25fe7" xmlns="http://www.w3.org/2000/svg" viewBox="0 0 651.05 501.5"><g><polygon points="303.92 185.98 211.8 92.62 304.91 .74 326.59 22.66 314.27 34.73 304.91 25.13 236.18 92.87 303.92 161.59 312.79 152.97 324.86 165.29 303.92 185.98" style="fill:#fff;"/><polygon points="371.67 128.83 359.6 116.51 382.5 93.85 358.86 69.71 370.93 57.64 406.89 94.1 371.67 128.83" style="fill:#cecece;"/><path d="M370.19,184.99l-91.88-93.11L348.26,22.91h0L371.42,0l91.88,93.36-93.11,91.63Zm-67.49-92.87l67.74,68.73,68.48-67.74L371.17,24.39l-68.48,67.74h0Z" style="fill:#fff;"/></g><g><path d="M20.51,347.08v-.49c0-44.23,34.84-80.55,83.02-80.55s82.52,35.83,82.52,80.05v.49c0,44.23-34.84,80.55-83.02,80.55s-82.52-35.83-82.52-80.05Zm129.72,0v-.49c0-26.68-19.52-48.92-47.19-48.92s-46.7,21.74-46.7,48.43v.49c0,26.68,19.52,48.92,47.19,48.92s46.7-21.74,46.7-48.43Z" style="fill:#fff;"/><path d="M216.44,268.75h34.34v67.95l63.25-67.95h41.26l-63.5,65.97,66.22,89.69h-41.26l-47.93-66.22-18.04,18.78v47.69h-34.34v-155.91h0Z" style="fill:#fff;"/><path d="M378.77,268.75h63.5c37.06,0,59.55,21.99,59.55,53.86v.49c0,36.07-27.92,54.6-63,54.6h-25.94v46.7h-34.34v-155.66h.25Zm61.52,78.57c17.05,0,27.18-10.13,27.18-23.47v-.49c0-15.32-10.62-23.47-27.67-23.47h-26.44v47.69l26.93-.25h0Z" style="fill:#fff;"/><path d="M597.18,390.81h-76.1l-5.44-24.21,85.49-99.08h28.91v95.37h21v27.92h-21v33.6h-32.61v-33.6h-.25Zm0-27.67v-48.43l-41.26,48.43h41.26Z" style="fill:#fff;"/><path d="M80.05,394.27l-55.84,55.59L0,425.65,182.34,243.3h0l24.21,24.21-79.81,79.81-46.7,46.94Z" style="fill:#fff;"/><path d="M26.68,500.26c-1.24-.74-2.22-1.73-2.96-2.96-.74-1.24-.99-2.72-.99-4.2v-6.92c0-1.48,.25-2.96,.99-4.2,.74-1.24,1.73-2.22,2.96-2.96,1.24-.74,2.72-.99,4.45-.99s3.21,.25,4.45,.99,2.22,1.73,2.96,2.96c.74,1.24,.99,2.72,.99,4.2v6.92c0,1.73-.25,2.96-.99,4.2s-1.73,2.22-2.96,2.96c-1.24,.74-2.72,.99-4.45,.99s-3.21-.25-4.45-.99Zm7.41-3.95c.74-.74,.99-1.73,.99-2.96v-7.17c0-1.24-.25-2.22-.99-2.96-.74-.74-1.73-1.24-2.96-1.24s-2.22,.49-2.72,1.24-.99,1.73-.99,2.96v7.17c0,1.24,.25,2.22,.99,2.96,.74,.74,1.73,1.24,2.72,1.24s2.22-.49,2.96-1.24Z" style="fill:#fff;"/><path d="M61.27,479.26c.99,.49,1.98,1.48,2.47,2.47,.49,.99,.99,2.22,.99,3.71s-.25,2.47-.99,3.46c-.74,.99-1.48,1.73-2.47,2.47s-2.47,.74-3.71,.74h-4.69s-.25,0-.25,.25v8.4l-.25,.25h-3.71s-.25,0-.25-.25l-.25-.25v-21.74s0-.25,.25-.25,.25-.25,.25-.25h9.14c1.24,.25,2.47,.49,3.46,.99h0Zm-1.98,8.4c.49-.49,.99-1.24,.99-2.22s-.25-1.73-.99-2.22c-.49-.49-1.48-.74-2.47-.74h-3.95s-.25,0-.25,.25v5.93s0,.25,.25,.25h3.95c.99-.25,1.73-.49,2.47-1.24h0Z" style="fill:#fff;"/><path d="M88.21,482.23h-10.87s-.25,0-.25,.25v4.94s0,.25,.25,.25h7.17v3.71l-.25,.25h-6.92s-.25,0-.25,.25v5.19s0,.25,.25,.25h10.62s.25,0,.25,.25,.25,.25,.25,.25v3.21s0,.25-.25,.25-.25,.25-.25,.25h-14.82s-.25,0-.25-.25l-.25-.25v-21.74s0-.25,.25-.25h15.32l.25,.25v3.21c-.25-.49-.25-.25-.25-.25h0Z" style="fill:#fff;"/><path d="M109.45,478.52h4.2v22.24l-.25,.25h-3.71q-.25,0-.49-.25l-8.4-13.84h-.25v13.84s0,.25-.25,.25-.25,.25-.25,.25h-3.71s-.25,0-.25-.25l-.25-.25v-21.74s0-.25,.25-.25h3.95q.25,0,.49,.25l8.4,13.59h.25v-13.84c.25,.25,.25,0,.25-.25h0Z" style="fill:#fff;"/><path d="M134.9,500.76l-.25-.25v-21.74s0-.25,.25-.25h4.2l.25,.25v8.89h.25l7.41-9.14q.25-.25,.49-.25h4.2q.25,0,.25,.25v.25l-7.17,9.14v.25l7.66,12.11v.25q0,.25-.25,.25h-4.45q-.25,0-.49-.25l-5.68-9.14h-.25l-1.98,2.47v6.67s0,.25-.25,.25-.25,.25-.25,.25h-3.71s-.25,0-.25-.25h0Z" style="fill:#fff;"/><path d="M172.95,478.52h4.2v22.24l-.25,.25h-3.71q-.25,0-.49-.25l-8.4-13.84h-.25v13.84s0,.25-.25,.25-.25,.25-.25,.25h-3.71s-.25,0-.25-.25l-.25-.25v-21.74s0-.25,.25-.25h3.95q.25,0,.49,.25l8.4,13.59h.25v-13.84c.25,.25,.25,0,.25-.25h0Z" style="fill:#fff;"/><path d="M190,500.26c-1.24-.74-2.22-1.73-2.96-2.96s-.99-2.72-.99-4.2v-6.92c0-1.48,.25-2.96,.99-4.2,.74-1.24,1.73-2.22,2.96-2.96,1.24-.74,2.72-.99,4.45-.99s3.21,.25,4.45,.99c1.24,.74,2.22,1.73,2.96,2.96s.99,2.72,.99,4.2v6.92c0,1.73-.25,2.96-.99,4.2s-1.73,2.22-2.96,2.96c-1.24,.74-2.72,.99-4.45,.99s-3.21-.25-4.45-.99Zm7.41-3.95c.74-.74,.99-1.73,.99-2.96v-7.17c0-1.24-.25-2.22-.99-2.96-.74-.74-1.73-1.24-2.96-1.24s-2.22,.49-2.72,1.24-.99,1.73-.99,2.96v7.17c0,1.24,.25,2.22,.99,2.96,.74,.74,1.73,1.24,2.72,1.24s2.22-.49,2.96-1.24Z" style="fill:#fff;"/><path d="M215.7,500.76l-5.68-21.74v-.25q0-.25,.25-.25h3.95q.25,0,.49,.25l2.96,13.1v0l2.96-13.1c0-.25,.25-.25,.49-.25h3.95c.25,0,.49,0,.49,.25l3.21,13.1h0l2.96-13.1c0-.25,.25-.25,.49-.25h3.71c.25,0,.49,.25,.25,.49l-5.19,21.74c0,.25-.25,.25-.49,.25h-3.95q-.25,0-.49-.25l-3.21-13.84v0l-2.96,13.84c0,.25-.25,.25-.49,.25h-3.46l-.25-.25h0Z" style="fill:#fff;"/><path d="M244.61,500.76l-.25-.25v-21.74s0-.25,.25-.25h4.2l.25,.25v18.04s0,.25,.25,.25h10.38s.25,0,.25,.25v3.71l-.25,.25h-14.82c0-.25-.25-.25-.25-.49h0Z" style="fill:#fff;"/><path d="M283.4,482.23h-10.87s-.25,0-.25,.25v4.94s0,.25,.25,.25h7.17v3.71l-.25,.25h-6.92s-.25,0-.25,.25v5.19s0,.25,.25,.25h10.62s.25,0,.25,.25,.25,.25,.25,.25v3.21s0,.25-.25,.25-.25,.25-.25,.25h-14.82s-.25,0-.25-.25l-.25-.25v-21.74s0-.25,.25-.25h15.32l.25,.25v3.21c0-.49,0-.25-.25-.25h0Z" style="fill:#fff;"/><path d="M292.04,500.76l-.25-.25v-21.74s0-.25,.25-.25h8.15c1.48,0,2.96,.25,4.2,.74,1.24,.49,2.22,1.48,2.72,2.47,.49,.99,.99,2.22,.99,3.46v8.89c0,1.48-.25,2.47-.99,3.46-.74,.99-1.48,1.73-2.72,2.47s-2.72,.74-4.2,.74h-7.91c0,.25-.25,.25-.25,0h0Zm4.45-3.71h3.95c.99,0,1.73-.25,2.47-.99s.99-1.48,.99-2.72v-7.41c0-.99-.25-1.98-.99-2.72s-1.48-.99-2.47-.99h-3.95s-.25,0-.25,.25l.25,14.58c0-.25,0,0,0,0h0Z" style="fill:#fff;"/><path d="M320.46,500.26c-1.24-.74-2.22-1.48-2.96-2.72s-.99-2.47-.99-4.2v-7.17c0-1.48,.25-2.96,.99-4.2,.74-1.24,1.73-2.22,2.96-2.72,1.24-.74,2.72-.99,4.45-.99s2.96,.25,4.45,.99,2.22,1.48,2.96,2.72c.74,1.24,.99,2.22,.99,3.71v.49l-.25,.25h-3.71s-.25,0-.25-.25-.25-.25-.25-.25h0c0-.99-.25-1.73-.99-2.47-.74-.74-1.48-.99-2.72-.99s-1.98,.49-2.72,.99-.99,1.73-.99,2.72v7.41c0,1.24,.25,1.98,1.24,2.72,.74,.74,1.73,.99,2.96,.99s1.98-.25,2.72-.99,.99-1.48,.99-2.47v-1.48s0-.25-.25-.25h-3.71s-.25,0-.25-.25v-3.46h8.4v4.45c0,1.73-.25,2.96-.99,4.2s-1.73,2.22-2.96,2.72c-1.24,.74-2.72,.99-4.45,.99s-3.46,.25-4.69-.49h0Z" style="fill:#fff;"/><path d="M357.27,482.23h-10.87s-.25,0-.25,.25v4.94s0,.25,.25,.25h7.17v3.71l-.25,.25h-6.92s-.25,0-.25,.25v5.19s0,.25,.25,.25h10.62s.25,0,.25,.25v3.71l-.25,.25h-14.82s-.25,0-.25-.25v-22.24h15.32v3.46c0-.49,0-.25,0-.25h0Z" style="fill:#fff;"/><path d="M390.38,479.26c.99,.49,1.98,1.48,2.47,2.47,.49,.99,.99,2.22,.99,3.71s-.25,2.47-.99,3.46-1.48,1.73-2.47,2.47c-.99,.74-2.47,.74-3.71,.74h-4.69s-.25,0-.25,.25v8.4l-.25,.25h-3.95s-.25,0-.25-.25v-22.24l.25-.25h9.14c1.24,.25,2.47,.49,3.71,.99h0Zm-2.22,8.4c.49-.49,.99-1.24,.99-2.22s-.25-1.73-.99-2.22c-.49-.49-1.48-.74-2.47-.74h-3.95s-.25,0-.25,.25v5.93s0,.25,.25,.25h3.95c1.24-.25,1.98-.49,2.47-1.24h0Z" style="fill:#fff;"/><path d="M413.61,500.76l-3.95-8.89s0-.25-.25-.25h-2.96s-.25,0-.25,.25v9.14l-.25,.25h-3.71s-.25,0-.25-.25v-22.24h9.39c1.24,0,2.47,.25,3.71,.74,.99,.49,1.98,1.48,2.47,2.47s.74,2.22,.74,3.46c0,1.48-.25,2.72-.99,3.71s-1.73,1.73-2.96,2.22c0,0-.25,.25,0,.25l4.45,9.14v.25q0,.25-.25,.25h-3.95c-.99-.25-.99-.49-.99-.49h0Zm-7.41-18.28v5.44s0,.25,.25,.25h4.2c.99,0,1.73-.25,2.22-.74s.74-1.24,.74-1.98-.25-1.48-.74-1.98-1.24-.74-2.22-.74l-4.45-.25h0Z" style="fill:#fff;"/><path d="M430.16,500.26c-1.24-.74-2.22-1.73-2.96-2.96-.74-1.24-.99-2.72-.99-4.2v-6.92c0-1.48,.25-2.96,.99-4.2,.74-1.24,1.73-2.22,2.96-2.96,1.24-.74,2.72-.99,4.45-.99s3.21,.25,4.45,.99,2.22,1.73,2.96,2.96c.74,1.24,.99,2.72,.99,4.2v6.92c0,1.73-.25,2.96-.99,4.2s-1.73,2.22-2.96,2.96c-1.24,.74-2.72,.99-4.45,.99s-3.21-.25-4.45-.99Zm7.17-3.95c.74-.74,.99-1.73,.99-2.96v-7.17c0-1.24-.25-2.22-.99-2.96s-1.73-1.24-2.96-1.24-2.22,.49-2.72,1.24-.99,1.73-.99,2.96v7.17c0,1.24,.25,2.22,.99,2.96,.74,.74,1.73,1.24,2.72,1.24s2.22-.49,2.96-1.24Z" style="fill:#fff;"/><path d="M467.22,478.52v3.71l-.25,.25h-5.68s-.25,0-.25,.25v18.28l-.25,.25h-3.71s-.25,0-.25-.25v-18.28s0-.25-.25-.25h-5.68s-.25,0-.25-.25v-3.71h16.55Z" style="fill:#fff;"/><path d="M478.09,500.26c-1.24-.74-2.22-1.73-2.96-2.96-.74-1.24-.99-2.72-.99-4.2v-6.92c0-1.48,.25-2.96,.99-4.2,.74-1.24,1.73-2.22,2.96-2.96,1.24-.74,2.72-.99,4.45-.99s3.21,.25,4.45,.99c1.24,.74,2.22,1.73,2.96,2.96,.74,1.24,.99,2.72,.99,4.2v6.92c0,1.73-.25,2.96-.99,4.2s-1.73,2.22-2.96,2.96c-1.24,.74-2.72,.99-4.45,.99s-3.21-.25-4.45-.99Zm7.17-3.95c.74-.74,.99-1.73,.99-2.96v-7.17c0-1.24-.25-2.22-.99-2.96s-1.73-1.24-2.96-1.24-2.22,.49-2.72,1.24c-.49,.74-.99,1.73-.99,2.96v7.17c0,1.24,.25,2.22,.99,2.96,.74,.74,1.73,1.24,2.72,1.24s2.22-.49,2.96-1.24Z" style="fill:#fff;"/><path d="M503.05,500.26c-1.24-.74-2.22-1.48-2.96-2.72-.74-1.24-.99-2.47-.99-4.2v-7.41c0-1.48,.25-2.96,.99-4.2,.74-1.24,1.73-1.98,2.96-2.72,1.24-.74,2.72-.99,4.45-.99s2.96,.25,4.45,.99,2.22,1.48,2.96,2.72c.74,1.24,.99,2.47,.99,3.95q0,.25-.49,.25l-3.71,.25h0c-.25,0-.25-.25-.25-.25,0-1.24-.25-1.98-.99-2.72-.74-.74-1.48-.99-2.72-.99s-1.98,.25-2.72,.99-.99,1.73-.99,2.72v7.66c0,.99,.25,1.98,.99,2.72,.74,.74,1.73,.99,2.72,.99s1.98-.25,2.72-.99c.74-.74,.99-1.48,.99-2.72q0-.25,.49-.25l3.71,.25h.25v.25c0,1.48-.25,2.72-.99,3.95s-1.73,1.98-2.96,2.72c-1.24,.49-2.72,.99-4.45,.99s-3.21-.49-4.45-1.24h0Z" style="fill:#fff;"/><path d="M527.76,500.26c-1.24-.74-2.22-1.73-2.96-2.96-.74-1.24-.99-2.72-.99-4.2v-6.92c0-1.48,.25-2.96,.99-4.2s1.73-2.22,2.96-2.96c1.24-.74,2.72-.99,4.45-.99s3.21,.25,4.45,.99c1.24,.74,2.22,1.73,2.96,2.96,.74,1.24,.99,2.72,.99,4.2v6.92c0,1.73-.25,2.96-.99,4.2-.74,1.24-1.73,2.22-2.96,2.96-1.24,.74-2.72,.99-4.45,.99s-2.96-.25-4.45-.99Zm7.41-3.95c.74-.74,.99-1.73,.99-2.96v-7.17c0-1.24-.25-2.22-.99-2.96-.74-.74-1.73-1.24-2.96-1.24s-2.22,.49-2.72,1.24-.99,1.73-.99,2.96v7.17c0,1.24,.25,2.22,.99,2.96,.74,.74,1.73,1.24,2.72,1.24s2.22-.49,2.96-1.24Z" style="fill:#fff;"/><path d="M549.5,500.76v-22.24h4.2v18.28s0,.25,.25,.25h10.38s.25,0,.25,.25v3.71l-.25,.25h-14.82c.25-.25,0-.25,0-.49h0Z" style="fill:#fff;"/><path d="M599.9,482.23h-10.62s-.25,0-.25,.25v4.94s0,.25,.25,.25h7.17v3.71l-.25,.25h-6.92s-.25,0-.25,.25v9.14l-.25,.25h-3.71s-.25,0-.25-.25v-22.24h15.32v3.46c0-.25,0,0-.25,0h0Z" style="fill:#fff;"/><path d="M611.27,500.26c-1.24-.74-2.22-1.73-2.96-2.96-.74-1.24-.99-2.72-.99-4.2v-6.92c0-1.48,.25-2.96,.99-4.2,.74-1.24,1.73-2.22,2.96-2.96,1.24-.74,2.72-.99,4.45-.99s3.21,.25,4.45,.99,2.22,1.73,2.96,2.96c.74,1.24,.99,2.72,.99,4.2v6.92c0,1.73-.25,2.96-.99,4.2-.74,1.24-1.73,2.22-2.96,2.96-1.24,.74-2.72,.99-4.45,.99s-3.21-.25-4.45-.99Zm7.17-3.95c.74-.74,.99-1.73,.99-2.96v-7.17c0-1.24-.25-2.22-.99-2.96-.74-.74-1.73-1.24-2.96-1.24s-2.22,.49-2.72,1.24-.99,1.73-.99,2.96v7.17c0,1.24,.25,2.22,.99,2.96,.74,.74,1.73,1.24,2.72,1.24s2.22-.49,2.96-1.24Z" style="fill:#fff;"/><path d="M644.62,500.76l-3.95-8.89s0-.25-.25-.25h-2.96s-.25,0-.25,.25v9.14l-.25,.25h-3.71s-.25,0-.25-.25v-22.24h9.39c1.24,0,2.47,.25,3.71,.74,.99,.49,1.98,1.48,2.47,2.47s.74,2.22,.74,3.46c0,1.48-.25,2.72-.99,3.71-.74,.99-1.73,1.73-2.96,2.22,0,0-.25,.25,0,.25l4.45,9.14v.25q0,.25-.25,.25h-3.95c-.74-.25-.99-.49-.99-.49h0Zm-7.41-18.28v5.44s0,.25,.25,.25h4.2c.99,0,1.73-.25,2.22-.74,.49-.49,.74-1.24,.74-1.98s-.25-1.48-.74-1.98-1.24-.74-2.22-.74l-4.45-.25c.25,0,0,0,0,0h0Z" style="fill:#fff;"/></g></svg>