<?xml version="1.0" encoding="UTF-8"?><svg id="uuid-60dcccf7-9096-4e50-98e1-398a4fae9825" xmlns="http://www.w3.org/2000/svg" viewBox="0 0 1151.23 320.98"><g id="uuid-5fbd9099-f3a9-4cd7-a9d6-d82c0a651a97"><g><g><g><path d="M367.36,129.01v-.61c0-54.98,43.31-100.13,103.2-100.13s102.59,44.54,102.59,99.52v.61c0,54.98-43.31,100.13-103.2,100.13s-102.59-44.54-102.59-99.52Zm161.26,0v-.61c0-33.17-24.27-60.82-58.67-60.82s-58.05,27.03-58.05,60.2v.61c0,33.17,24.27,60.82,58.67,60.82s58.05-27.03,58.05-60.2Z" style="fill:#181c49;"/><path d="M610.94,31.64h42.69V116.11l78.63-84.47h51.3l-78.94,82.01,82.32,111.5h-51.3l-59.59-82.32-22.42,23.34v59.28h-42.69V31.64h0Z" style="fill:#181c49;"/><path d="M812.74,31.64h78.94c46.07,0,74.02,27.34,74.02,66.96v.61c0,44.85-34.71,67.88-78.33,67.88h-32.25v58.05h-42.69V31.64h.31Zm76.48,97.68c21.19,0,33.79-12.59,33.79-29.18v-.61c0-19.04-13.21-29.18-34.4-29.18h-32.87v59.28l33.48-.31h0Z" style="fill:#181c49;"/><path d="M1084.27,183.37h-94.6l-6.76-30.1,106.28-123.17h35.94v118.56h26.11v34.71h-26.11v41.77h-40.54v-41.77h-.31Zm0-34.4v-60.2l-51.3,60.2h51.3Z" style="fill:#181c49;"/><g id="uuid-0c02bd8d-b31a-4827-8c69-ebc521aee780"><path d="M441.39,187.67l-69.42,69.11-30.1-30.1L568.55,0h0l30.1,30.1-99.21,99.21-58.05,58.36Z" style="fill:#181c49;"/></g></g><polygon points="114.88 246.34 0 129.93 116.11 15.36 143.14 42.69 127.78 57.75 116.11 45.77 30.41 130.23 114.88 215.93 125.93 205.18 140.99 220.54 114.88 246.34" style="fill:#181c49;"/><polygon points="199.35 175.08 184.29 159.72 212.86 131.46 183.37 101.36 198.42 86.31 243.27 131.77 199.35 175.08" style="fill:#cecece;"/><path d="M197.5,245.11l-114.57-116.11L170.17,43h0l28.87-28.57,114.57,116.41-116.11,114.26Zm-84.16-115.8l84.47,85.7,85.39-84.47L198.73,44.85l-85.39,84.47h0Z" style="fill:#181c49;"/></g><g><path d="M375.04,319.44c-1.54-.92-2.76-2.15-3.69-3.69s-1.23-3.38-1.23-5.22v-8.6c0-1.84,.31-3.69,1.23-5.22,.92-1.54,2.15-2.76,3.69-3.69,1.54-.92,3.38-1.23,5.53-1.23s3.99,.31,5.53,1.23,2.76,2.15,3.69,3.69c.92,1.54,1.23,3.38,1.23,5.22v8.6c0,2.15-.31,3.69-1.23,5.22-.92,1.54-2.15,2.76-3.69,3.69-1.54,.92-3.38,1.23-5.53,1.23s-3.99-.31-5.53-1.23Zm9.21-4.91c.92-.92,1.23-2.15,1.23-3.69v-8.91c0-1.54-.31-2.76-1.23-3.69-.92-.92-2.15-1.54-3.69-1.54s-2.76,.61-3.38,1.54-1.23,2.15-1.23,3.69v8.91c0,1.54,.31,2.76,1.23,3.69,.92,.92,2.15,1.54,3.38,1.54s2.76-.61,3.69-1.54Z" style="fill:#181c49;"/><path d="M418.04,293.34c1.23,.61,2.46,1.84,3.07,3.07,.61,1.23,1.23,2.76,1.23,4.61s-.31,3.07-1.23,4.3c-.92,1.23-1.84,2.15-3.07,3.07s-3.07,.92-4.61,.92h-5.84s-.31,0-.31,.31v10.44l-.31,.31h-4.61s-.31,0-.31-.31l-.31-.31v-27.03s0-.31,.31-.31,.31-.31,.31-.31h11.36c1.54,.31,3.07,.61,4.3,1.23h0Zm-2.46,10.44c.61-.61,1.23-1.54,1.23-2.76s-.31-2.15-1.23-2.76c-.61-.61-1.84-.92-3.07-.92h-4.91s-.31,0-.31,.31v7.37s0,.31,.31,.31h4.91c1.23-.31,2.15-.61,3.07-1.54h0Z" style="fill:#181c49;"/><path d="M451.52,297.02h-13.51s-.31,0-.31,.31v6.14s0,.31,.31,.31h8.91v4.61l-.31,.31h-8.6s-.31,0-.31,.31v6.45s0,.31,.31,.31h13.21s.31,0,.31,.31,.31,.31,.31,.31v3.99s0,.31-.31,.31-.31,.31-.31,.31h-18.43s-.31,0-.31-.31l-.31-.31v-27.03s0-.31,.31-.31h19.04l.31,.31v3.99c-.31-.61-.31-.31-.31-.31h0Z" style="fill:#181c49;"/><path d="M477.94,292.41h5.22v27.64l-.31,.31h-4.61q-.31,0-.61-.31l-10.44-17.2h-.31v17.2s0,.31-.31,.31-.31,.31-.31,.31h-4.61s-.31,0-.31-.31l-.31-.31v-27.03s0-.31,.31-.31h4.91q.31,0,.61,.31l10.44,16.89h.31v-17.2c.31,.31,.31,0,.31-.31h0Z" style="fill:#181c49;"/><path d="M509.57,320.06l-.31-.31v-27.03s0-.31,.31-.31h5.22l.31,.31v11.06h.31l9.21-11.36q.31-.31,.61-.31h5.22q.31,0,.31,.31v.31l-8.91,11.36v.31l9.52,15.05v.31q0,.31-.31,.31h-5.53q-.31,0-.61-.31l-7.06-11.36h-.31l-2.46,3.07v8.29s0,.31-.31,.31-.31,.31-.31,.31h-4.61s-.31,0-.31-.31h0Z" style="fill:#181c49;"/><path d="M556.88,292.41h5.22v27.64l-.31,.31h-4.61q-.31,0-.61-.31l-10.44-17.2h-.31v17.2s0,.31-.31,.31-.31,.31-.31,.31h-4.61s-.31,0-.31-.31l-.31-.31v-27.03s0-.31,.31-.31h4.91q.31,0,.61,.31l10.44,16.89h.31v-17.2c.31,.31,.31,0,.31-.31h0Z" style="fill:#181c49;"/><path d="M578.07,319.44c-1.54-.92-2.76-2.15-3.69-3.69-.92-1.54-1.23-3.38-1.23-5.22v-8.6c0-1.84,.31-3.69,1.23-5.22s2.15-2.76,3.69-3.69c1.54-.92,3.38-1.23,5.53-1.23s3.99,.31,5.53,1.23,2.76,2.15,3.69,3.69c.92,1.54,1.23,3.38,1.23,5.22v8.6c0,2.15-.31,3.69-1.23,5.22-.92,1.54-2.15,2.76-3.69,3.69-1.54,.92-3.38,1.23-5.53,1.23s-3.99-.31-5.53-1.23Zm9.21-4.91c.92-.92,1.23-2.15,1.23-3.69v-8.91c0-1.54-.31-2.76-1.23-3.69-.92-.92-2.15-1.54-3.69-1.54s-2.76,.61-3.38,1.54-1.23,2.15-1.23,3.69v8.91c0,1.54,.31,2.76,1.23,3.69,.92,.92,2.15,1.54,3.38,1.54s2.76-.61,3.69-1.54Z" style="fill:#181c49;"/><path d="M610.01,320.06l-7.06-27.03v-.31q0-.31,.31-.31h4.91q.31,0,.61,.31l3.69,16.28v0l3.69-16.28c0-.31,.31-.31,.61-.31h4.91c.31,0,.61,0,.61,.31l3.99,16.28h0l3.69-16.28c0-.31,.31-.31,.61-.31h4.61c.31,0,.61,.31,.31,.61l-6.45,27.03c0,.31-.31,.31-.61,.31h-4.91q-.31,0-.61-.31l-3.99-17.2v0l-3.69,17.2c0,.31-.31,.31-.61,.31h-4.3l-.31-.31h0Z" style="fill:#181c49;"/><path d="M645.95,320.06l-.31-.31v-27.03s0-.31,.31-.31h5.22l.31,.31v22.42s0,.31,.31,.31h12.9s.31,0,.31,.31v4.61l-.31,.31h-18.43c0-.31-.31-.31-.31-.61h0Z" style="fill:#181c49;"/><path d="M694.18,297.02h-13.51s-.31,0-.31,.31v6.14s0,.31,.31,.31h8.91v4.61l-.31,.31h-8.6s-.31,0-.31,.31v6.45s0,.31,.31,.31h13.21s.31,0,.31,.31,.31,.31,.31,.31v3.99s0,.31-.31,.31-.31,.31-.31,.31h-18.43s-.31,0-.31-.31l-.31-.31v-27.03s0-.31,.31-.31h19.04l.31,.31v3.99c0-.61,0-.31-.31-.31h0Z" style="fill:#181c49;"/><path d="M704.93,320.06l-.31-.31v-27.03s0-.31,.31-.31h10.14c1.84,0,3.69,.31,5.22,.92,1.54,.61,2.76,1.84,3.38,3.07s1.23,2.76,1.23,4.3v11.06c0,1.84-.31,3.07-1.23,4.3-.92,1.23-1.84,2.15-3.38,3.07s-3.38,.92-5.22,.92h-9.83c0,.31-.31,.31-.31,0h0Zm5.53-4.61h4.91c1.23,0,2.15-.31,3.07-1.23s1.23-1.84,1.23-3.38v-9.21c0-1.23-.31-2.46-1.23-3.38s-1.84-1.23-3.07-1.23h-4.91s-.31,0-.31,.31l.31,18.12c0-.31,0,0,0,0h0Z" style="fill:#181c49;"/><path d="M740.25,319.44c-1.54-.92-2.76-1.84-3.69-3.38s-1.23-3.07-1.23-5.22v-8.91c0-1.84,.31-3.69,1.23-5.22s2.15-2.76,3.69-3.38c1.54-.92,3.38-1.23,5.53-1.23s3.69,.31,5.53,1.23,2.76,1.84,3.69,3.38c.92,1.54,1.23,2.76,1.23,4.61v.61l-.31,.31h-4.61s-.31,0-.31-.31-.31-.31-.31-.31h0c0-1.23-.31-2.15-1.23-3.07-.92-.92-1.84-1.23-3.38-1.23s-2.46,.61-3.38,1.23c-.92,.61-1.23,2.15-1.23,3.38v9.21c0,1.54,.31,2.46,1.54,3.38,.92,.92,2.15,1.23,3.69,1.23s2.46-.31,3.38-1.23c.92-.92,1.23-1.84,1.23-3.07v-1.84s0-.31-.31-.31h-4.61s-.31,0-.31-.31v-4.3h10.44v5.53c0,2.15-.31,3.69-1.23,5.22-.92,1.54-2.15,2.76-3.69,3.38-1.54,.92-3.38,1.23-5.53,1.23s-4.3,.31-5.84-.61h0Z" style="fill:#181c49;"/><path d="M786.02,297.02h-13.51s-.31,0-.31,.31v6.14s0,.31,.31,.31h8.91v4.61l-.31,.31h-8.6s-.31,0-.31,.31v6.45s0,.31,.31,.31h13.21s.31,0,.31,.31v4.61l-.31,.31h-18.43s-.31,0-.31-.31v-27.64h19.04v4.3c0-.61,0-.31,0-.31h0Z" style="fill:#181c49;"/><path d="M827.18,293.34c1.23,.61,2.46,1.84,3.07,3.07s1.23,2.76,1.23,4.61-.31,3.07-1.23,4.3-1.84,2.15-3.07,3.07-3.07,.92-4.61,.92h-5.84s-.31,0-.31,.31v10.44l-.31,.31h-4.91s-.31,0-.31-.31v-27.64l.31-.31h11.36c1.54,.31,3.07,.61,4.61,1.23h0Zm-2.76,10.44c.61-.61,1.23-1.54,1.23-2.76s-.31-2.15-1.23-2.76c-.61-.61-1.84-.92-3.07-.92h-4.91s-.31,0-.31,.31v7.37s0,.31,.31,.31h4.91c1.54-.31,2.46-.61,3.07-1.54h0Z" style="fill:#181c49;"/><path d="M856.05,320.06l-4.91-11.06s0-.31-.31-.31h-3.69s-.31,0-.31,.31v11.36l-.31,.31h-4.61s-.31,0-.31-.31v-27.64h11.67c1.54,0,3.07,.31,4.61,.92,1.23,.61,2.46,1.84,3.07,3.07s.92,2.76,.92,4.3c0,1.84-.31,3.38-1.23,4.61-.92,1.23-2.15,2.15-3.69,2.76,0,0-.31,.31,0,.31l5.53,11.36v.31q0,.31-.31,.31h-4.91c-1.23-.31-1.23-.61-1.23-.61h0Zm-9.21-22.73v6.76s0,.31,.31,.31h5.22c1.23,0,2.15-.31,2.76-.92s.92-1.54,.92-2.46-.31-1.84-.92-2.46c-.61-.61-1.54-.92-2.76-.92l-5.53-.31h0Z" style="fill:#181c49;"/><path d="M876.63,319.44c-1.54-.92-2.76-2.15-3.69-3.69s-1.23-3.38-1.23-5.22v-8.6c0-1.84,.31-3.69,1.23-5.22,.92-1.54,2.15-2.76,3.69-3.69,1.54-.92,3.38-1.23,5.53-1.23s3.99,.31,5.53,1.23c1.54,.92,2.76,2.15,3.69,3.69,.92,1.54,1.23,3.38,1.23,5.22v8.6c0,2.15-.31,3.69-1.23,5.22-.92,1.54-2.15,2.76-3.69,3.69-1.54,.92-3.38,1.23-5.53,1.23s-3.99-.31-5.53-1.23Zm8.91-4.91c.92-.92,1.23-2.15,1.23-3.69v-8.91c0-1.54-.31-2.76-1.23-3.69s-2.15-1.54-3.69-1.54-2.76,.61-3.38,1.54-1.23,2.15-1.23,3.69v8.91c0,1.54,.31,2.76,1.23,3.69,.92,.92,2.15,1.54,3.38,1.54s2.76-.61,3.69-1.54Z" style="fill:#181c49;"/><path d="M922.7,292.41v4.61l-.31,.31h-7.06s-.31,0-.31,.31v22.73l-.31,.31h-4.61s-.31,0-.31-.31v-22.73s0-.31-.31-.31h-7.06s-.31,0-.31-.31v-4.61h20.58Z" style="fill:#181c49;"/><path d="M936.22,319.44c-1.54-.92-2.76-2.15-3.69-3.69-.92-1.54-1.23-3.38-1.23-5.22v-8.6c0-1.84,.31-3.69,1.23-5.22,.92-1.54,2.15-2.76,3.69-3.69,1.54-.92,3.38-1.23,5.53-1.23s3.99,.31,5.53,1.23c1.54,.92,2.76,2.15,3.69,3.69,.92,1.54,1.23,3.38,1.23,5.22v8.6c0,2.15-.31,3.69-1.23,5.22s-2.15,2.76-3.69,3.69c-1.54,.92-3.38,1.23-5.53,1.23s-3.99-.31-5.53-1.23Zm8.91-4.91c.92-.92,1.23-2.15,1.23-3.69v-8.91c0-1.54-.31-2.76-1.23-3.69s-2.15-1.54-3.69-1.54-2.76,.61-3.38,1.54-1.23,2.15-1.23,3.69v8.91c0,1.54,.31,2.76,1.23,3.69,.92,.92,2.15,1.54,3.38,1.54s2.76-.61,3.69-1.54Z" style="fill:#181c49;"/><path d="M967.24,319.44c-1.54-.92-2.76-1.84-3.69-3.38s-1.23-3.07-1.23-5.22v-9.21c0-1.84,.31-3.69,1.23-5.22s2.15-2.46,3.69-3.38c1.54-.92,3.38-1.23,5.53-1.23s3.69,.31,5.53,1.23c1.84,.92,2.76,1.84,3.69,3.38,.92,1.54,1.23,3.07,1.23,4.91q0,.31-.61,.31l-4.61,.31h0c-.31,0-.31-.31-.31-.31,0-1.54-.31-2.46-1.23-3.38-.92-.92-1.84-1.23-3.38-1.23s-2.46,.31-3.38,1.23-1.23,2.15-1.23,3.38v9.52c0,1.23,.31,2.46,1.23,3.38,.92,.92,2.15,1.23,3.38,1.23s2.46-.31,3.38-1.23c.92-.92,1.23-1.84,1.23-3.38q0-.31,.61-.31l4.61,.31h.31v.31c0,1.84-.31,3.38-1.23,4.91s-2.15,2.46-3.69,3.38c-1.54,.61-3.38,1.23-5.53,1.23s-3.99-.61-5.53-1.54h0Z" style="fill:#181c49;"/><path d="M997.95,319.44c-1.54-.92-2.76-2.15-3.69-3.69-.92-1.54-1.23-3.38-1.23-5.22v-8.6c0-1.84,.31-3.69,1.23-5.22,.92-1.54,2.15-2.76,3.69-3.69,1.54-.92,3.38-1.23,5.53-1.23s3.99,.31,5.53,1.23,2.76,2.15,3.69,3.69c.92,1.54,1.23,3.38,1.23,5.22v8.6c0,2.15-.31,3.69-1.23,5.22s-2.15,2.76-3.69,3.69c-1.54,.92-3.38,1.23-5.53,1.23s-3.69-.31-5.53-1.23Zm9.21-4.91c.92-.92,1.23-2.15,1.23-3.69v-8.91c0-1.54-.31-2.76-1.23-3.69s-2.15-1.54-3.69-1.54-2.76,.61-3.38,1.54-1.23,2.15-1.23,3.69v8.91c0,1.54,.31,2.76,1.23,3.69,.92,.92,2.15,1.54,3.38,1.54s2.76-.61,3.69-1.54Z" style="fill:#181c49;"/><path d="M1024.98,320.06v-27.64h5.22v22.73s0,.31,.31,.31h12.9s.31,0,.31,.31v4.61l-.31,.31h-18.43c.31-.31,0-.31,0-.61h0Z" style="fill:#181c49;"/><path d="M1087.64,297.02h-13.21s-.31,0-.31,.31v6.14s0,.31,.31,.31h8.91v4.61l-.31,.31h-8.6s-.31,0-.31,.31v11.36l-.31,.31h-4.61s-.31,0-.31-.31v-27.64h19.04v4.3c0-.31,0,0-.31,0h0Z" style="fill:#181c49;"/><path d="M1101.77,319.44c-1.54-.92-2.76-2.15-3.69-3.69-.92-1.54-1.23-3.38-1.23-5.22v-8.6c0-1.84,.31-3.69,1.23-5.22,.92-1.54,2.15-2.76,3.69-3.69,1.54-.92,3.38-1.23,5.53-1.23s3.99,.31,5.53,1.23c1.54,.92,2.76,2.15,3.69,3.69,.92,1.54,1.23,3.38,1.23,5.22v8.6c0,2.15-.31,3.69-1.23,5.22s-2.15,2.76-3.69,3.69c-1.54,.92-3.38,1.23-5.53,1.23s-3.99-.31-5.53-1.23Zm8.91-4.91c.92-.92,1.23-2.15,1.23-3.69v-8.91c0-1.54-.31-2.76-1.23-3.69s-2.15-1.54-3.69-1.54-2.76,.61-3.38,1.54c-.61,.92-1.23,2.15-1.23,3.69v8.91c0,1.54,.31,2.76,1.23,3.69,.92,.92,2.15,1.54,3.38,1.54s2.76-.61,3.69-1.54Z" style="fill:#181c49;"/><path d="M1143.24,320.06l-4.91-11.06s0-.31-.31-.31h-3.69s-.31,0-.31,.31v11.36l-.31,.31h-4.61s-.31,0-.31-.31v-27.64h11.67c1.54,0,3.07,.31,4.61,.92,1.23,.61,2.46,1.84,3.07,3.07,.61,1.23,.92,2.76,.92,4.3,0,1.84-.31,3.38-1.23,4.61-.92,1.23-2.15,2.15-3.69,2.76,0,0-.31,.31,0,.31l5.53,11.36v.31q0,.31-.31,.31h-4.91c-.92-.31-1.23-.61-1.23-.61h0Zm-9.21-22.73v6.76s0,.31,.31,.31h5.22c1.23,0,2.15-.31,2.76-.92s.92-1.54,.92-2.46-.31-1.84-.92-2.46c-.61-.61-1.54-.92-2.76-.92l-5.53-.31c.31,0,0,0,0,0h0Z" style="fill:#181c49;"/></g></g></g></svg>