<?xml version="1.0" encoding="utf-8"?>
<svg viewBox="87.688 3.345 187.021 47.777" width="187.021" height="47.777" xmlns="http://www.w3.org/2000/svg">
  <g>
    <path id="Tracé_1809" data-name="Tracé 1809" d="M 87.688 27.366 L 87.688 27.233 C 87.688 14.101 98.049 3.345 112.303 3.345 C 126.557 3.345 136.785 13.969 136.785 27.102 L 136.785 27.233 C 136.785 40.366 126.425 51.122 112.171 51.122 C 97.917 51.122 87.688 40.498 87.688 27.366 M 126.161 27.366 L 126.161 27.233 C 126.161 19.314 120.354 12.715 112.171 12.715 C 103.988 12.715 98.312 19.183 98.312 27.102 L 98.312 27.233 C 98.312 35.152 104.119 41.752 112.303 41.752 C 120.487 41.752 126.161 35.285 126.161 27.366" fill="#181c49"/>
    <path id="Tracé_1810" data-name="Tracé 1810" d="M 145.829 4.137 L 155.991 4.137 L 155.991 24.33 L 174.732 4.137 L 187.006 4.137 L 168.199 23.737 L 187.864 50.331 L 175.653 50.331 L 161.333 30.666 L 155.987 36.209 L 155.987 50.331 L 145.829 50.331 L 145.829 4.137 Z" fill="#181c49"/>
    <path id="Tracé_1811" data-name="Tracé 1811" d="M 194.004 4.137 L 212.878 4.137 C 223.899 4.137 230.564 10.67 230.564 20.107 L 230.564 20.239 C 230.564 30.93 222.249 36.473 211.888 36.473 L 204.167 36.473 L 204.167 50.331 L 194.004 50.331 L 194.004 4.137 Z M 212.218 27.437 C 217.3 27.437 220.269 24.401 220.269 20.437 L 220.269 20.305 C 220.269 15.751 217.101 13.305 212.02 13.305 L 204.167 13.305 L 204.167 27.432 L 212.218 27.437 Z" fill="#181c49"/>
    <path id="Tracé_1812" data-name="Tracé 1812" d="M 258.809 40.366 L 236.241 40.366 L 234.591 33.173 L 259.931 3.808 L 268.509 3.808 L 268.509 32.115 L 274.709 32.115 L 274.709 40.364 L 268.509 40.364 L 268.509 50.329 L 258.809 50.329 L 258.809 40.366 Z M 258.809 32.117 L 258.809 17.732 L 246.535 32.115 L 258.809 32.117 Z" fill="#181c49"/>
  </g>
</svg>