<svg xmlns="http://www.w3.org/2000/svg" viewBox="0 0 809.36 256.78"><path d="M25.49 129.01v-.61c0-54.98 43.31-100.13 103.2-100.13s102.59 44.54 102.59 99.52v.61c0 54.98-43.31 100.13-103.2 100.13S25.49 183.99 25.49 129.01Zm161.26 0v-.61c0-33.17-24.27-60.82-58.67-60.82s-58.05 27.03-58.05 60.2v.61c0 33.17 24.27 60.82 58.67 60.82s58.05-27.03 58.05-60.2Zm82.32-97.37h42.69v84.47l78.64-84.47h51.3l-78.94 82.01 82.32 111.5h-51.3l-59.59-82.32-22.42 23.34v59.28h-42.69V31.64Zm201.8 0h78.94c46.07 0 74.02 27.34 74.02 66.96v.61c0 44.85-34.71 67.88-78.33 67.88h-32.25v58.05h-42.69V31.64h.31Zm76.48 97.68c21.19 0 33.79-12.59 33.79-29.18v-.61c0-19.04-13.21-29.18-34.4-29.18h-32.87v59.28l33.48-.31Zm195.05 54.05h-94.6l-6.76-30.1L747.32 30.1h35.94v118.56h26.11v34.71h-26.11v41.77h-40.54v-41.77h-.31Zm0-34.4v-60.2l-51.3 60.2h51.3Z" style="fill:#fff"/><path d="M99.52 187.67 30.1 256.78 0 226.68 226.68 0l30.1 30.1-99.21 99.21-58.05 58.36Z" style="fill:#fff"/></svg>