<svg id="logo_okp4" data-name="logo okp4" xmlns="http://www.w3.org/2000/svg" xmlns:xlink="http://www.w3.org/1999/xlink" width="274.713" height="73.137" viewBox="0 0 274.713 73.137">
  <defs>
    <clipPath id="clip-path">
      <rect id="Rectangle_559" data-name="Rectangle 559" width="274.713" height="73.137" fill="none"/>
    </clipPath>
  </defs>
  <g id="Groupe_771" data-name="Groupe 771" clip-path="url(#clip-path)">
    <path id="Tracé_1809" data-name="Tracé 1809" d="M119.586,28.583V28.45c0-13.132,10.361-23.888,24.615-23.888s24.482,10.624,24.482,23.757v.131c0,13.133-10.36,23.889-24.614,23.889s-24.483-10.624-24.483-23.756m38.473,0V28.45c0-7.919-5.807-14.518-13.99-14.518S130.21,20.4,130.21,28.319v.131c0,7.919,5.807,14.519,13.991,14.519s13.858-6.467,13.858-14.386" transform="translate(-31.898 -1.217)" fill="#181c49"/>
    <path id="Tracé_1810" data-name="Tracé 1810" d="M198.876,5.642h10.162V25.835L227.779,5.642h12.274l-18.807,19.6,19.665,26.594H228.7l-14.32-19.665-5.346,5.543V51.836H198.876Z" transform="translate(-53.047 -1.505)" fill="#181c49"/>
    <path id="Tracé_1811" data-name="Tracé 1811" d="M264.575,5.642h18.874c11.021,0,17.686,6.533,17.686,15.97v.132c0,10.691-8.315,16.234-18.676,16.234h-7.721V51.836H264.575Zm18.214,23.3c5.082,0,8.051-3.036,8.051-7V21.81c0-4.554-3.168-7-8.249-7h-7.853V28.937Z" transform="translate(-70.571 -1.505)" fill="#181c49"/>
    <path id="Tracé_1812" data-name="Tracé 1812" d="M344.144,41.751H321.576l-1.65-7.193,25.34-29.365h8.578V33.5h6.2v8.249h-6.2v9.965h-9.7Zm0-8.249V19.117L331.87,33.5Z" transform="translate(-85.335 -1.385)" fill="#181c49"/>
    <path id="Tracé_1813" data-name="Tracé 1813" d="M27.387,55.434,0,27.672,27.73.317l6.428,6.517-3.654,3.6L27.68,7.576,7.259,27.722,27.436,48.176l2.577-2.542,3.6,3.653Z" transform="translate(0 -0.085)" fill="#181c49"/>
    <path id="Tracé_1814" data-name="Tracé 1814" d="M63.465,44.591l-3.6-3.653L66.7,34.194,59.629,27.03l3.654-3.6L73.955,34.244Z" transform="translate(-15.905 -6.248)" fill="#cecece"/>
    <path id="Tracé_1815" data-name="Tracé 1815" d="M54.347,55.116,26.96,27.355l20.8-20.518h0L54.689,0,82.077,27.762ZM34.219,27.4,54.4,47.858,74.818,27.712,54.64,7.258Z" transform="translate(-7.191 0)" fill="#181c49"/>
    <path id="Tracé_1816" data-name="Tracé 1816" d="M121.652,96.943a2.184,2.184,0,0,1-.881-.853,2.483,2.483,0,0,1-.315-1.263V92.787a2.437,2.437,0,0,1,.315-1.248,2.168,2.168,0,0,1,.881-.844,3.035,3.035,0,0,1,2.631,0,2.174,2.174,0,0,1,.882.844,2.444,2.444,0,0,1,.314,1.248v2.041a2.519,2.519,0,0,1-.314,1.268,2.153,2.153,0,0,1-.882.853,2.773,2.773,0,0,1-1.32.3,2.717,2.717,0,0,1-1.311-.305m2.159-1.181a1.217,1.217,0,0,0,.324-.887v-2.1a1.248,1.248,0,0,0-.319-.892,1.234,1.234,0,0,0-1.7,0,1.245,1.245,0,0,0-.319.892v2.1a1.227,1.227,0,0,0,.319.887,1.112,1.112,0,0,0,.844.334,1.126,1.126,0,0,0,.848-.334" transform="translate(-32.13 -24.111)" fill="#cecece"/>
    <path id="Tracé_1817" data-name="Tracé 1817" d="M134.646,90.743a1.805,1.805,0,0,1,.739.729,2.194,2.194,0,0,1,.263,1.082,2.026,2.026,0,0,1-.272,1.058,1.848,1.848,0,0,1-.763.71,2.431,2.431,0,0,1-1.13.252H132.13a.043.043,0,0,0-.048.048v2.43a.114.114,0,0,1-.114.115h-1.115a.11.11,0,0,1-.081-.034.112.112,0,0,1-.034-.081V90.6a.115.115,0,0,1,.115-.115h2.688a2.286,2.286,0,0,1,1.105.258m-.6,2.5a.869.869,0,0,0,.266-.662.9.9,0,0,0-.266-.677.971.971,0,0,0-.705-.258H132.13a.043.043,0,0,0-.048.048V93.45a.043.043,0,0,0,.048.048h1.211a.986.986,0,0,0,.705-.253" transform="translate(-34.872 -24.135)" fill="#cecece"/>
    <path id="Tracé_1818" data-name="Tracé 1818" d="M145.257,91.619a.11.11,0,0,1-.081.033H142.05A.042.042,0,0,0,142,91.7v1.478a.042.042,0,0,0,.048.048H144.1a.11.11,0,0,1,.081.033.112.112,0,0,1,.033.082v.924a.109.109,0,0,1-.033.081.111.111,0,0,1-.081.034H142.05a.042.042,0,0,0-.048.047v1.545a.042.042,0,0,0,.048.047h3.127a.115.115,0,0,1,.114.114v.925a.109.109,0,0,1-.034.081.105.105,0,0,1-.081.034h-4.4a.114.114,0,0,1-.114-.114V90.613a.107.107,0,0,1,.033-.081.109.109,0,0,1,.081-.033h4.4a.107.107,0,0,1,.081.033.111.111,0,0,1,.034.081v.925a.111.111,0,0,1-.034.081" transform="translate(-37.518 -24.139)" fill="#cecece"/>
    <path id="Tracé_1819" data-name="Tracé 1819" d="M154.208,90.532a.11.11,0,0,1,.081-.033H155.4a.113.113,0,0,1,.114.114v6.444a.111.111,0,0,1-.033.081.108.108,0,0,1-.081.034h-1.078a.136.136,0,0,1-.133-.076l-2.469-4.08c-.012-.02-.025-.027-.037-.024s-.02.018-.02.043l.02,4.022a.111.111,0,0,1-.034.081.11.11,0,0,1-.081.034h-1.115a.11.11,0,0,1-.081-.034.108.108,0,0,1-.033-.081V90.613a.107.107,0,0,1,.033-.081.112.112,0,0,1,.081-.033h1.077a.135.135,0,0,1,.133.076l2.46,4.061c.012.019.025.027.037.023s.02-.018.02-.043l-.01-4a.111.111,0,0,1,.034-.081" transform="translate(-40.102 -24.139)" fill="#cecece"/>
    <path id="Tracé_1820" data-name="Tracé 1820" d="M165.807,97.137a.1.1,0,0,1-.034-.081V90.612a.115.115,0,0,1,.115-.114H167a.109.109,0,0,1,.081.033.116.116,0,0,1,.034.081v2.669c0,.019.007.03.019.033a.039.039,0,0,0,.038-.014l2.2-2.736a.182.182,0,0,1,.143-.067h1.258c.051,0,.083.015.1.043a.1.1,0,0,1-.02.1l-2.126,2.717a.055.055,0,0,0-.01.067l2.25,3.613a.346.346,0,0,1,.019.067c0,.045-.033.067-.095.067h-1.26a.135.135,0,0,1-.133-.076l-1.7-2.745a.03.03,0,0,0-.028-.019.056.056,0,0,0-.039.019l-.6.753a.149.149,0,0,0-.019.057v1.9a.113.113,0,0,1-.034.081.107.107,0,0,1-.081.034h-1.115a.106.106,0,0,1-.081-.034" transform="translate(-44.217 -24.139)" fill="#cecece"/>
    <path id="Tracé_1821" data-name="Tracé 1821" d="M179.87,90.532a.11.11,0,0,1,.081-.033h1.116a.113.113,0,0,1,.114.114v6.444a.111.111,0,0,1-.033.081.108.108,0,0,1-.081.034h-1.078a.136.136,0,0,1-.133-.076l-2.469-4.08c-.012-.02-.025-.027-.037-.024s-.02.018-.02.043l.02,4.022a.111.111,0,0,1-.034.081.109.109,0,0,1-.081.034h-1.115a.11.11,0,0,1-.081-.034.108.108,0,0,1-.033-.081V90.613a.107.107,0,0,1,.033-.081.112.112,0,0,1,.081-.033H177.2a.135.135,0,0,1,.133.076l2.46,4.061c.013.019.025.027.037.023s.02-.018.02-.043l-.01-4a.111.111,0,0,1,.034-.081" transform="translate(-46.947 -24.139)" fill="#cecece"/>
    <path id="Tracé_1822" data-name="Tracé 1822" d="M187.757,96.943a2.184,2.184,0,0,1-.881-.853,2.483,2.483,0,0,1-.315-1.263V92.787a2.437,2.437,0,0,1,.315-1.248,2.168,2.168,0,0,1,.881-.844,3.035,3.035,0,0,1,2.631,0,2.174,2.174,0,0,1,.882.844,2.444,2.444,0,0,1,.314,1.248v2.041a2.519,2.519,0,0,1-.314,1.268,2.153,2.153,0,0,1-.882.853,2.773,2.773,0,0,1-1.32.3,2.717,2.717,0,0,1-1.311-.305m2.159-1.181a1.217,1.217,0,0,0,.324-.887v-2.1a1.248,1.248,0,0,0-.319-.892,1.234,1.234,0,0,0-1.7,0,1.245,1.245,0,0,0-.319.892v2.1a1.227,1.227,0,0,0,.319.887,1.112,1.112,0,0,0,.844.334,1.126,1.126,0,0,0,.848-.334" transform="translate(-49.762 -24.111)" fill="#cecece"/>
    <path id="Tracé_1823" data-name="Tracé 1823" d="M197.929,97.075l-1.687-6.453-.01-.039c0-.056.034-.085.1-.085h1.182a.12.12,0,0,1,.124.1l.906,3.88c.007.025.015.038.029.038s.022-.013.029-.038l.877-3.87a.122.122,0,0,1,.124-.1h1.153a.125.125,0,0,1,.133.1l.953,3.88c.007.019.015.03.029.033s.022-.008.029-.033l.877-3.87a.122.122,0,0,1,.124-.1h1.125c.089,0,.124.041.1.124l-1.563,6.453a.125.125,0,0,1-.133.1H201.3a.12.12,0,0,1-.124-.1l-.972-4.128c-.006-.026-.016-.038-.029-.038s-.023.012-.029.038l-.906,4.118a.114.114,0,0,1-.124.1h-1.058a.125.125,0,0,1-.133-.1" transform="translate(-52.342 -24.139)" fill="#cecece"/>
    <path id="Tracé_1824" data-name="Tracé 1824" d="M210.241,97.137a.107.107,0,0,1-.034-.081V90.612a.114.114,0,0,1,.114-.114h1.115a.109.109,0,0,1,.081.033.112.112,0,0,1,.034.081V95.97a.043.043,0,0,0,.048.048h3.117a.114.114,0,0,1,.114.114v.925a.114.114,0,0,1-.114.114h-4.4a.107.107,0,0,1-.081-.034" transform="translate(-56.069 -24.139)" fill="#cecece"/>
    <path id="Tracé_1825" data-name="Tracé 1825" d="M224.335,91.619a.11.11,0,0,1-.081.033h-3.127a.042.042,0,0,0-.048.048v1.478a.042.042,0,0,0,.048.048h2.049a.11.11,0,0,1,.081.033.112.112,0,0,1,.033.082v.924a.109.109,0,0,1-.033.081.111.111,0,0,1-.081.034h-2.049a.042.042,0,0,0-.048.047v1.545a.042.042,0,0,0,.048.047h3.127a.115.115,0,0,1,.114.114v.925a.11.11,0,0,1-.034.081.105.105,0,0,1-.081.034h-4.4a.114.114,0,0,1-.114-.114V90.613a.107.107,0,0,1,.033-.081.109.109,0,0,1,.081-.033h4.4a.107.107,0,0,1,.081.033.111.111,0,0,1,.034.081v.925a.111.111,0,0,1-.034.081" transform="translate(-58.611 -24.139)" fill="#cecece"/>
    <path id="Tracé_1826" data-name="Tracé 1826" d="M229.455,97.137a.106.106,0,0,1-.033-.081V90.613a.113.113,0,0,1,.114-.114h2.383a2.924,2.924,0,0,1,1.253.252,1.951,1.951,0,0,1,.834.711,1.907,1.907,0,0,1,.3,1.058V95.15a1.9,1.9,0,0,1-.3,1.058,1.946,1.946,0,0,1-.834.711,2.925,2.925,0,0,1-1.253.252h-2.383a.105.105,0,0,1-.081-.034m1.359-1.12h1.153a.922.922,0,0,0,.711-.295,1.164,1.164,0,0,0,.282-.791V92.738a1.128,1.128,0,0,0-.272-.791.943.943,0,0,0-.729-.3h-1.144a.042.042,0,0,0-.048.048v4.271c0,.032.015.047.048.047" transform="translate(-61.195 -24.139)" fill="#cecece"/>
    <path id="Tracé_1827" data-name="Tracé 1827" d="M240.535,96.925a2.146,2.146,0,0,1-.872-.825,2.373,2.373,0,0,1-.309-1.225V92.74a2.4,2.4,0,0,1,.309-1.23,2.108,2.108,0,0,1,.872-.825,3.032,3.032,0,0,1,2.579-.005,2.185,2.185,0,0,1,.867.777,2.01,2.01,0,0,1,.309,1.092v.067a.114.114,0,0,1-.114.114h-1.116a.108.108,0,0,1-.081-.034.111.111,0,0,1-.034-.081v-.029a1,1,0,0,0-.305-.739,1.233,1.233,0,0,0-1.634.02,1.144,1.144,0,0,0-.309.834v2.212a1.1,1.1,0,0,0,.334.834,1.175,1.175,0,0,0,.848.319,1.148,1.148,0,0,0,.791-.262.926.926,0,0,0,.3-.73v-.429a.042.042,0,0,0-.048-.048h-1.068a.111.111,0,0,1-.081-.034.107.107,0,0,1-.033-.081v-.877a.113.113,0,0,1,.114-.114h2.327a.111.111,0,0,1,.081.033.113.113,0,0,1,.033.081v1.258a2.5,2.5,0,0,1-.305,1.259,2.014,2.014,0,0,1-.862.815,2.84,2.84,0,0,1-1.291.28,2.747,2.747,0,0,1-1.3-.295" transform="translate(-63.844 -24.111)" fill="#cecece"/>
    <path id="Tracé_1828" data-name="Tracé 1828" d="M254.184,91.619a.11.11,0,0,1-.081.033h-3.127a.042.042,0,0,0-.048.048v1.478a.042.042,0,0,0,.048.048h2.049a.11.11,0,0,1,.081.033.112.112,0,0,1,.033.082v.924a.109.109,0,0,1-.033.081.111.111,0,0,1-.081.034h-2.049a.042.042,0,0,0-.048.047v1.545a.042.042,0,0,0,.048.047H254.1a.115.115,0,0,1,.114.114v.925a.11.11,0,0,1-.034.081.105.105,0,0,1-.081.034h-4.4a.114.114,0,0,1-.114-.114V90.613a.107.107,0,0,1,.033-.081.109.109,0,0,1,.081-.033h4.4a.107.107,0,0,1,.081.033.111.111,0,0,1,.034.081v.925a.111.111,0,0,1-.034.081" transform="translate(-66.573 -24.139)" fill="#cecece"/>
    <path id="Tracé_1829" data-name="Tracé 1829" d="M267.8,90.743a1.805,1.805,0,0,1,.739.729,2.194,2.194,0,0,1,.263,1.082,2.026,2.026,0,0,1-.272,1.058,1.848,1.848,0,0,1-.763.71,2.432,2.432,0,0,1-1.13.252h-1.353a.043.043,0,0,0-.048.048v2.43a.114.114,0,0,1-.114.115h-1.115a.11.11,0,0,1-.081-.034.112.112,0,0,1-.034-.081V90.6a.115.115,0,0,1,.115-.115H266.7a2.286,2.286,0,0,1,1.105.258m-.6,2.5a.869.869,0,0,0,.266-.662.9.9,0,0,0-.266-.677.971.971,0,0,0-.705-.258h-1.211a.043.043,0,0,0-.048.048V93.45a.043.043,0,0,0,.048.048H266.5a.986.986,0,0,0,.705-.253" transform="translate(-70.39 -24.135)" fill="#cecece"/>
    <path id="Tracé_1830" data-name="Tracé 1830" d="M277.343,97.085l-1.192-2.64a.06.06,0,0,0-.057-.038h-.887a.042.042,0,0,0-.048.048v2.6a.11.11,0,0,1-.034.081.107.107,0,0,1-.081.034H273.93a.115.115,0,0,1-.114-.114V90.612a.111.111,0,0,1,.034-.081.109.109,0,0,1,.081-.033h2.726a2.241,2.241,0,0,1,1.073.248,1.744,1.744,0,0,1,.715.705,2.158,2.158,0,0,1,.252,1.057,1.883,1.883,0,0,1-.324,1.111,1.723,1.723,0,0,1-.906.653.046.046,0,0,0-.029.067l1.3,2.7a.137.137,0,0,1,.019.057c0,.051-.035.076-.1.076h-1.172a.135.135,0,0,1-.133-.086M275.16,91.7v1.63a.042.042,0,0,0,.048.048h1.249a.91.91,0,0,0,.653-.238.812.812,0,0,0,.253-.62.825.825,0,0,0-.253-.624.9.9,0,0,0-.653-.243h-1.249a.042.042,0,0,0-.048.048" transform="translate(-73.036 -24.139)" fill="#cecece"/>
    <path id="Tracé_1831" data-name="Tracé 1831" d="M284.9,96.943a2.184,2.184,0,0,1-.881-.853,2.483,2.483,0,0,1-.315-1.263V92.787a2.438,2.438,0,0,1,.315-1.248,2.168,2.168,0,0,1,.881-.844,3.035,3.035,0,0,1,2.631,0,2.175,2.175,0,0,1,.882.844,2.445,2.445,0,0,1,.314,1.248v2.041a2.519,2.519,0,0,1-.314,1.268,2.154,2.154,0,0,1-.882.853,2.773,2.773,0,0,1-1.32.3,2.717,2.717,0,0,1-1.311-.305m2.159-1.181a1.217,1.217,0,0,0,.324-.887v-2.1a1.248,1.248,0,0,0-.319-.892,1.234,1.234,0,0,0-1.7,0,1.245,1.245,0,0,0-.319.892v2.1a1.227,1.227,0,0,0,.319.887,1.112,1.112,0,0,0,.844.334,1.126,1.126,0,0,0,.848-.334" transform="translate(-75.675 -24.111)" fill="#cecece"/>
    <path id="Tracé_1832" data-name="Tracé 1832" d="M298.523,90.532a.11.11,0,0,1,.033.081v.935a.114.114,0,0,1-.114.114h-1.707a.042.042,0,0,0-.048.047v5.348a.111.111,0,0,1-.033.081.108.108,0,0,1-.081.034h-1.116a.108.108,0,0,1-.081-.034.111.111,0,0,1-.034-.081V91.709a.041.041,0,0,0-.047-.047h-1.659a.111.111,0,0,1-.081-.034.107.107,0,0,1-.033-.081v-.935a.107.107,0,0,1,.033-.081.11.11,0,0,1,.081-.033h4.805a.11.11,0,0,1,.081.033" transform="translate(-78.293 -24.139)" fill="#cecece"/>
    <path id="Tracé_1833" data-name="Tracé 1833" d="M304.3,96.943a2.184,2.184,0,0,1-.881-.853,2.483,2.483,0,0,1-.315-1.263V92.787a2.438,2.438,0,0,1,.315-1.248,2.168,2.168,0,0,1,.881-.844,3.035,3.035,0,0,1,2.631,0,2.175,2.175,0,0,1,.882.844,2.444,2.444,0,0,1,.314,1.248v2.041a2.519,2.519,0,0,1-.314,1.268,2.153,2.153,0,0,1-.882.853,2.773,2.773,0,0,1-1.32.3,2.717,2.717,0,0,1-1.311-.305m2.159-1.181a1.217,1.217,0,0,0,.324-.887v-2.1a1.249,1.249,0,0,0-.319-.892,1.234,1.234,0,0,0-1.7,0,1.245,1.245,0,0,0-.319.892v2.1a1.227,1.227,0,0,0,.319.887,1.112,1.112,0,0,0,.844.334,1.126,1.126,0,0,0,.848-.334" transform="translate(-80.849 -24.111)" fill="#cecece"/>
    <path id="Tracé_1834" data-name="Tracé 1834" d="M314.443,96.928a2.088,2.088,0,0,1-.867-.815,2.366,2.366,0,0,1-.305-1.211V92.7a2.366,2.366,0,0,1,.305-1.211,2.055,2.055,0,0,1,.867-.81,2.845,2.845,0,0,1,1.306-.286,2.93,2.93,0,0,1,1.292.271,2.058,2.058,0,0,1,.867.773,2.158,2.158,0,0,1,.309,1.158c0,.057-.038.092-.114.1l-1.115.067h-.019c-.064,0-.1-.035-.1-.1a1.088,1.088,0,0,0-.309-.81,1.255,1.255,0,0,0-1.64,0,1.087,1.087,0,0,0-.309.81v2.3a1.074,1.074,0,0,0,.309.8,1.255,1.255,0,0,0,1.64,0,1.075,1.075,0,0,0,.309-.8c0-.07.038-.1.114-.1l1.115.048a.122.122,0,0,1,.081.029.086.086,0,0,1,.033.067,2.183,2.183,0,0,1-.309,1.163,2.077,2.077,0,0,1-.867.782,2.881,2.881,0,0,1-1.292.276,2.8,2.8,0,0,1-1.306-.29" transform="translate(-83.56 -24.111)" fill="#cecece"/>
    <path id="Tracé_1835" data-name="Tracé 1835" d="M324.464,96.943a2.184,2.184,0,0,1-.881-.853,2.482,2.482,0,0,1-.315-1.263V92.787a2.437,2.437,0,0,1,.315-1.248,2.168,2.168,0,0,1,.881-.844,3.035,3.035,0,0,1,2.631,0,2.175,2.175,0,0,1,.882.844,2.445,2.445,0,0,1,.314,1.248v2.041a2.519,2.519,0,0,1-.314,1.268,2.154,2.154,0,0,1-.882.853,2.773,2.773,0,0,1-1.32.3,2.717,2.717,0,0,1-1.311-.305m2.159-1.181a1.217,1.217,0,0,0,.324-.887v-2.1a1.248,1.248,0,0,0-.319-.892,1.234,1.234,0,0,0-1.7,0,1.245,1.245,0,0,0-.319.892v2.1a1.227,1.227,0,0,0,.319.887,1.112,1.112,0,0,0,.844.334,1.126,1.126,0,0,0,.848-.334" transform="translate(-86.227 -24.111)" fill="#cecece"/>
    <path id="Tracé_1836" data-name="Tracé 1836" d="M333.649,97.137a.107.107,0,0,1-.034-.081V90.612a.114.114,0,0,1,.114-.114h1.115a.109.109,0,0,1,.081.033.113.113,0,0,1,.034.081V95.97a.043.043,0,0,0,.048.048h3.117a.114.114,0,0,1,.114.114v.925a.114.114,0,0,1-.114.114h-4.4a.107.107,0,0,1-.081-.034" transform="translate(-88.987 -24.139)" fill="#cecece"/>
    <path id="Tracé_1837" data-name="Tracé 1837" d="M352.427,91.619a.11.11,0,0,1-.081.033h-3.117a.043.043,0,0,0-.048.048v1.478a.042.042,0,0,0,.048.048h2.049a.11.11,0,0,1,.081.033.114.114,0,0,1,.033.082v.924a.114.114,0,0,1-.114.115h-2.049a.042.042,0,0,0-.048.047v2.631a.107.107,0,0,1-.034.081.1.1,0,0,1-.081.034h-1.115a.105.105,0,0,1-.081-.034.107.107,0,0,1-.034-.081V90.613a.114.114,0,0,1,.114-.114h4.4a.107.107,0,0,1,.081.033.11.11,0,0,1,.033.081v.925a.11.11,0,0,1-.033.081" transform="translate(-92.78 -24.139)" fill="#cecece"/>
    <path id="Tracé_1838" data-name="Tracé 1838" d="M358.211,96.943a2.184,2.184,0,0,1-.881-.853,2.483,2.483,0,0,1-.315-1.263V92.787a2.438,2.438,0,0,1,.315-1.248,2.168,2.168,0,0,1,.881-.844,3.035,3.035,0,0,1,2.631,0,2.175,2.175,0,0,1,.882.844,2.445,2.445,0,0,1,.314,1.248v2.041a2.519,2.519,0,0,1-.314,1.268,2.154,2.154,0,0,1-.882.853,2.773,2.773,0,0,1-1.32.3,2.717,2.717,0,0,1-1.311-.305m2.159-1.181a1.217,1.217,0,0,0,.324-.887v-2.1a1.248,1.248,0,0,0-.319-.892,1.234,1.234,0,0,0-1.7,0,1.245,1.245,0,0,0-.319.892v2.1a1.227,1.227,0,0,0,.319.887,1.112,1.112,0,0,0,.844.334,1.126,1.126,0,0,0,.848-.334" transform="translate(-95.228 -24.111)" fill="#cecece"/>
    <path id="Tracé_1839" data-name="Tracé 1839" d="M370.889,97.085l-1.191-2.64a.06.06,0,0,0-.057-.038h-.887a.042.042,0,0,0-.048.048v2.6a.114.114,0,0,1-.114.114h-1.115a.105.105,0,0,1-.08-.034.107.107,0,0,1-.035-.081V90.612a.111.111,0,0,1,.035-.081.107.107,0,0,1,.08-.033H370.2a2.236,2.236,0,0,1,1.073.248,1.739,1.739,0,0,1,.715.705,2.15,2.15,0,0,1,.252,1.057,1.888,1.888,0,0,1-.323,1.111,1.727,1.727,0,0,1-.906.653.046.046,0,0,0-.029.067l1.3,2.7a.127.127,0,0,1,.019.057c0,.051-.034.076-.1.076h-1.172a.135.135,0,0,1-.133-.086M368.706,91.7v1.63a.042.042,0,0,0,.048.048H370a.91.91,0,0,0,.652-.238.813.813,0,0,0,.253-.62.826.826,0,0,0-.253-.624.9.9,0,0,0-.652-.243h-1.249a.042.042,0,0,0-.048.048" transform="translate(-97.988 -24.139)" fill="#cecece"/>
  </g>
</svg>
