<?xml version="1.0" encoding="utf-8"?>
<svg viewBox="87.688 3.345 187.02 47.777" width="187.02" height="47.777" xmlns="http://www.w3.org/2000/svg">
  <defs>
    <clipPath id="clip-path">
      <rect id="Rectangle_559" data-name="Rectangle 559" width="274.712" height="73.136" fill="#484c80"/>
    </clipPath>
  </defs>
  <g>
    <path id="Tracé_1809" data-name="Tracé 1809" d="M 87.688 27.366 L 87.688 27.233 C 87.688 14.101 98.049 3.345 112.303 3.345 C 126.557 3.345 136.785 13.969 136.785 27.102 L 136.785 27.233 C 136.785 40.366 126.425 51.122 112.171 51.122 C 97.917 51.122 87.688 40.498 87.688 27.366 M 126.161 27.366 L 126.161 27.233 C 126.161 19.314 120.354 12.715 112.171 12.715 C 103.988 12.715 98.312 19.183 98.312 27.102 L 98.312 27.233 C 98.312 35.152 104.119 41.752 112.303 41.752 C 120.487 41.752 126.161 35.285 126.161 27.366" fill="#fff" clip-path="url(#clip-path)"/>
    <path id="Tracé_1810" data-name="Tracé 1810" d="M 145.829 4.137 L 155.991 4.137 L 155.991 24.33 L 174.732 4.137 L 187.006 4.137 L 168.199 23.737 L 187.864 50.331 L 175.653 50.331 L 161.336 30.665 L 155.99 36.208 L 155.99 50.331 L 145.829 50.331 L 145.829 4.137 Z" fill="#fff" clip-path="url(#clip-path)"/>
    <path id="Tracé_1811" data-name="Tracé 1811" d="M 194.003 4.137 L 212.876 4.137 C 223.897 4.137 230.562 10.67 230.562 20.107 L 230.562 20.239 C 230.562 30.93 222.247 36.473 211.887 36.473 L 204.166 36.473 L 204.166 50.331 L 194.003 50.331 L 194.003 4.137 Z M 212.217 27.437 C 217.299 27.437 220.268 24.401 220.268 20.437 L 220.268 20.305 C 220.268 15.751 217.1 13.305 212.019 13.305 L 204.166 13.305 L 204.166 27.432 L 212.217 27.437 Z" fill="#fff" clip-path="url(#clip-path)"/>
    <path id="Tracé_1812" data-name="Tracé 1812" d="M 258.808 40.366 L 236.24 40.366 L 234.59 33.173 L 259.93 3.808 L 268.508 3.808 L 268.508 32.115 L 274.708 32.115 L 274.708 40.363 L 268.508 40.363 L 268.508 50.328 L 258.808 50.328 L 258.808 40.366 Z M 258.808 32.118 L 258.808 17.732 L 246.534 32.115 L 258.808 32.118 Z" fill="#fff" clip-path="url(#clip-path)"/>
  </g>
</svg>