<?xml version="1.0" encoding="utf-8"?>
<svg viewBox="88.325 66.281 185.988 6.857" width="185.988" height="6.857" xmlns="http://www.w3.org/2000/svg">
  <g>
    <path id="Tracé_1816" data-name="Tracé 1816" d="M 89.522 72.832 C 89.153 72.638 88.847 72.342 88.641 71.979 C 88.426 71.594 88.317 71.158 88.326 70.716 L 88.326 68.676 C 88.317 68.239 88.426 67.808 88.641 67.428 C 88.848 67.068 89.154 66.775 89.522 66.584 C 90.353 66.184 91.322 66.184 92.153 66.584 C 92.522 66.775 92.828 67.068 93.035 67.428 C 93.249 67.808 93.358 68.239 93.349 68.676 L 93.349 70.717 C 93.358 71.16 93.249 71.597 93.035 71.985 C 92.83 72.349 92.524 72.645 92.153 72.838 C 91.745 73.046 91.291 73.149 90.833 73.138 C 90.377 73.148 89.927 73.043 89.522 72.833 M 91.681 71.652 C 91.904 71.412 92.021 71.092 92.005 70.765 L 92.005 68.665 C 92.02 68.337 91.905 68.017 91.686 67.773 C 91.21 67.32 90.462 67.32 89.986 67.773 C 89.766 68.017 89.652 68.337 89.667 68.665 L 89.667 70.765 C 89.651 71.091 89.766 71.411 89.986 71.652 C 90.207 71.878 90.514 72 90.83 71.986 C 91.147 71.999 91.455 71.878 91.678 71.652" fill="#cecece"/>
    <path id="Tracé_1817" data-name="Tracé 1817" d="M 99.774 66.608 C 100.086 66.773 100.343 67.027 100.513 67.337 C 100.692 67.669 100.783 68.042 100.776 68.419 C 100.784 68.79 100.69 69.156 100.504 69.477 C 100.323 69.782 100.058 70.028 99.741 70.187 C 99.39 70.361 99.002 70.447 98.611 70.439 L 97.258 70.439 C 97.23 70.436 97.207 70.459 97.21 70.487 L 97.21 72.917 C 97.211 72.98 97.159 73.032 97.096 73.032 L 95.981 73.032 C 95.95 73.032 95.921 73.02 95.9 72.998 C 95.878 72.977 95.866 72.948 95.866 72.917 L 95.866 66.465 C 95.866 66.401 95.917 66.35 95.981 66.35 L 98.669 66.35 C 99.053 66.342 99.433 66.43 99.774 66.608 M 99.174 69.108 C 99.353 68.936 99.45 68.695 99.44 68.446 C 99.451 68.193 99.354 67.947 99.174 67.769 C 98.983 67.592 98.729 67.499 98.469 67.511 L 97.258 67.511 C 97.23 67.508 97.207 67.531 97.21 67.559 L 97.21 69.315 C 97.207 69.343 97.23 69.366 97.258 69.363 L 98.469 69.363 C 98.728 69.375 98.981 69.284 99.174 69.11" fill="#cecece"/>
    <path id="Tracé_1818" data-name="Tracé 1818" d="M 107.739 67.48 C 107.718 67.502 107.688 67.514 107.658 67.513 L 104.532 67.513 C 104.503 67.507 104.477 67.532 104.482 67.561 L 104.482 69.039 C 104.478 69.067 104.502 69.091 104.53 69.087 L 106.582 69.087 C 106.612 69.086 106.642 69.098 106.663 69.12 C 106.685 69.142 106.697 69.171 106.696 69.202 L 106.696 70.126 C 106.697 70.156 106.685 70.186 106.663 70.207 C 106.642 70.229 106.613 70.241 106.582 70.241 L 104.532 70.241 C 104.504 70.237 104.48 70.26 104.484 70.288 L 104.484 71.833 C 104.48 71.861 104.504 71.884 104.532 71.88 L 107.659 71.88 C 107.722 71.881 107.772 71.931 107.773 71.994 L 107.773 72.919 C 107.774 72.95 107.761 72.979 107.739 73 C 107.718 73.023 107.689 73.035 107.658 73.034 L 103.258 73.034 C 103.195 73.034 103.144 72.983 103.144 72.92 L 103.144 66.474 C 103.143 66.444 103.155 66.414 103.177 66.393 C 103.198 66.371 103.228 66.359 103.258 66.36 L 107.658 66.36 C 107.688 66.359 107.718 66.371 107.739 66.393 C 107.761 66.414 107.773 66.443 107.773 66.474 L 107.773 67.399 C 107.773 67.43 107.761 67.459 107.739 67.48" fill="#cecece"/>
    <path id="Tracé_1819" data-name="Tracé 1819" d="M 114.106 66.393 C 114.127 66.371 114.157 66.359 114.187 66.36 L 115.298 66.36 C 115.361 66.359 115.413 66.411 115.412 66.474 L 115.412 72.918 C 115.413 72.948 115.401 72.978 115.379 72.999 C 115.358 73.021 115.329 73.034 115.298 73.033 L 114.22 73.033 C 114.164 73.037 114.111 73.007 114.087 72.957 L 111.618 68.877 C 111.606 68.857 111.593 68.85 111.581 68.853 C 111.569 68.856 111.561 68.871 111.561 68.896 L 111.581 72.918 C 111.581 72.949 111.569 72.978 111.547 72.999 C 111.526 73.021 111.497 73.033 111.466 73.033 L 110.351 73.033 C 110.32 73.033 110.291 73.021 110.27 72.999 C 110.248 72.978 110.236 72.948 110.237 72.918 L 110.237 66.474 C 110.236 66.444 110.248 66.414 110.27 66.393 C 110.291 66.371 110.321 66.36 110.351 66.36 L 111.428 66.36 C 111.484 66.355 111.537 66.386 111.561 66.436 L 114.021 70.497 C 114.033 70.516 114.046 70.524 114.058 70.52 C 114.07 70.516 114.078 70.502 114.078 70.477 L 114.068 66.477 C 114.068 66.446 114.08 66.417 114.102 66.396" fill="#cecece"/>
    <path id="Tracé_1820" data-name="Tracé 1820" d="M 121.59 72.998 C 121.567 72.978 121.554 72.948 121.556 72.917 L 121.556 66.473 C 121.557 66.41 121.608 66.359 121.671 66.359 L 122.783 66.359 C 122.813 66.358 122.843 66.37 122.864 66.392 C 122.886 66.413 122.898 66.443 122.898 66.473 L 122.898 69.142 C 122.898 69.161 122.905 69.172 122.917 69.175 C 122.931 69.178 122.946 69.172 122.955 69.161 L 125.155 66.425 C 125.19 66.382 125.243 66.357 125.298 66.358 L 126.556 66.358 C 126.607 66.358 126.639 66.373 126.656 66.401 C 126.668 66.435 126.66 66.474 126.636 66.501 L 124.51 69.218 C 124.492 69.235 124.488 69.263 124.5 69.285 L 126.75 72.898 C 126.759 72.92 126.765 72.942 126.769 72.965 C 126.769 73.01 126.736 73.032 126.674 73.032 L 125.414 73.032 C 125.358 73.037 125.305 73.006 125.281 72.956 L 123.581 70.211 C 123.576 70.2 123.565 70.192 123.553 70.192 C 123.538 70.193 123.524 70.2 123.514 70.211 L 122.914 70.964 C 122.904 70.982 122.897 71.001 122.895 71.021 L 122.895 72.921 C 122.895 72.951 122.883 72.981 122.861 73.002 C 122.84 73.024 122.811 73.037 122.78 73.036 L 121.665 73.036 C 121.634 73.037 121.605 73.025 121.584 73.002" fill="#cecece"/>
    <path id="Tracé_1821" data-name="Tracé 1821" d="M 132.923 66.393 C 132.944 66.371 132.974 66.359 133.004 66.36 L 134.12 66.36 C 134.183 66.359 134.235 66.411 134.234 66.474 L 134.234 72.918 C 134.235 72.948 134.223 72.978 134.201 72.999 C 134.18 73.021 134.151 73.034 134.12 73.033 L 133.042 73.033 C 132.986 73.037 132.933 73.007 132.909 72.957 L 130.44 68.877 C 130.428 68.857 130.415 68.85 130.403 68.853 C 130.391 68.856 130.383 68.871 130.383 68.896 L 130.403 72.918 C 130.403 72.949 130.391 72.978 130.369 72.999 C 130.348 73.021 130.319 73.034 130.288 73.033 L 129.173 73.033 C 129.142 73.033 129.113 73.021 129.092 72.999 C 129.07 72.978 129.058 72.948 129.059 72.918 L 129.059 66.474 C 129.058 66.444 129.07 66.414 129.092 66.393 C 129.113 66.371 129.143 66.36 129.173 66.36 L 130.253 66.36 C 130.309 66.355 130.362 66.386 130.386 66.436 L 132.846 70.497 C 132.859 70.516 132.871 70.524 132.883 70.52 C 132.895 70.516 132.903 70.502 132.903 70.477 L 132.893 66.477 C 132.893 66.446 132.905 66.417 132.927 66.396" fill="#cecece"/>
    <path id="Tracé_1822" data-name="Tracé 1822" d="M 137.995 72.832 C 137.626 72.638 137.32 72.342 137.114 71.979 C 136.899 71.594 136.79 71.158 136.799 70.716 L 136.799 68.676 C 136.79 68.239 136.899 67.808 137.114 67.428 C 137.321 67.068 137.627 66.775 137.995 66.584 C 138.826 66.184 139.795 66.184 140.626 66.584 C 140.995 66.775 141.301 67.068 141.508 67.428 C 141.722 67.808 141.831 68.239 141.822 68.676 L 141.822 70.717 C 141.831 71.16 141.722 71.597 141.508 71.985 C 141.303 72.349 140.997 72.645 140.626 72.838 C 140.218 73.046 139.764 73.149 139.306 73.138 C 138.85 73.148 138.4 73.043 137.995 72.833 M 140.154 71.652 C 140.377 71.412 140.494 71.092 140.478 70.765 L 140.478 68.665 C 140.493 68.337 140.378 68.017 140.159 67.773 C 139.683 67.32 138.935 67.32 138.459 67.773 C 138.239 68.017 138.125 68.337 138.14 68.665 L 138.14 70.765 C 138.124 71.091 138.239 71.411 138.459 71.652 C 138.68 71.878 138.987 72 139.303 71.986 C 139.62 71.999 139.928 71.878 140.151 71.652" fill="#cecece"/>
    <path id="Tracé_1823" data-name="Tracé 1823" d="M 145.587 72.936 L 143.9 66.483 L 143.89 66.444 C 143.89 66.388 143.924 66.359 143.99 66.359 L 145.172 66.359 C 145.233 66.356 145.286 66.399 145.296 66.459 L 146.202 70.339 C 146.209 70.364 146.217 70.377 146.231 70.377 C 146.245 70.377 146.253 70.364 146.26 70.339 L 147.137 66.469 C 147.148 66.41 147.201 66.367 147.261 66.369 L 148.414 66.369 C 148.477 66.364 148.535 66.407 148.547 66.469 L 149.5 70.349 C 149.507 70.368 149.515 70.379 149.529 70.382 C 149.543 70.385 149.551 70.374 149.558 70.349 L 150.435 66.479 C 150.446 66.42 150.499 66.377 150.559 66.379 L 151.684 66.379 C 151.773 66.379 151.808 66.42 151.784 66.503 L 150.221 72.956 C 150.209 73.018 150.151 73.061 150.088 73.056 L 148.958 73.056 C 148.897 73.059 148.844 73.016 148.834 72.956 L 147.862 68.828 C 147.856 68.802 147.846 68.79 147.833 68.79 C 147.82 68.79 147.81 68.802 147.804 68.828 L 146.898 72.946 C 146.891 73.007 146.836 73.052 146.774 73.046 L 145.716 73.046 C 145.653 73.051 145.595 73.008 145.583 72.946" fill="#cecece"/>
    <path id="Tracé_1824" data-name="Tracé 1824" d="M 154.172 72.998 C 154.15 72.977 154.137 72.948 154.138 72.917 L 154.138 66.473 C 154.138 66.41 154.189 66.359 154.252 66.359 L 155.367 66.359 C 155.397 66.358 155.427 66.37 155.448 66.392 C 155.47 66.413 155.482 66.442 155.482 66.473 L 155.482 71.831 C 155.479 71.859 155.502 71.882 155.53 71.879 L 158.647 71.879 C 158.71 71.879 158.761 71.93 158.761 71.993 L 158.761 72.918 C 158.761 72.981 158.71 73.032 158.647 73.032 L 154.247 73.032 C 154.216 73.033 154.187 73.02 154.166 72.998" fill="#cecece"/>
    <path id="Tracé_1825" data-name="Tracé 1825" d="M 165.724 67.48 C 165.703 67.502 165.673 67.514 165.643 67.513 L 162.516 67.513 C 162.488 67.509 162.464 67.533 162.468 67.561 L 162.468 69.039 C 162.464 69.067 162.488 69.091 162.516 69.087 L 164.565 69.087 C 164.595 69.086 164.625 69.098 164.646 69.12 C 164.668 69.142 164.68 69.171 164.679 69.202 L 164.679 70.126 C 164.68 70.156 164.668 70.186 164.646 70.207 C 164.625 70.229 164.596 70.241 164.565 70.241 L 162.516 70.241 C 162.488 70.237 162.464 70.26 162.468 70.288 L 162.468 71.833 C 162.464 71.861 162.488 71.884 162.516 71.88 L 165.643 71.88 C 165.706 71.881 165.756 71.931 165.757 71.994 L 165.757 72.919 C 165.757 72.95 165.745 72.979 165.723 73 C 165.702 73.023 165.673 73.035 165.642 73.034 L 161.242 73.034 C 161.179 73.034 161.128 72.983 161.128 72.92 L 161.128 66.474 C 161.127 66.444 161.139 66.414 161.161 66.393 C 161.182 66.371 161.212 66.359 161.242 66.36 L 165.642 66.36 C 165.672 66.359 165.702 66.371 165.723 66.393 C 165.745 66.414 165.757 66.443 165.757 66.474 L 165.757 67.399 C 165.757 67.43 165.745 67.459 165.723 67.48" fill="#cecece"/>
    <path id="Tracé_1826" data-name="Tracé 1826" d="M 168.26 72.998 C 168.238 72.977 168.226 72.947 168.227 72.917 L 168.227 66.474 C 168.226 66.411 168.278 66.359 168.341 66.36 L 170.724 66.36 C 171.155 66.351 171.583 66.437 171.977 66.612 C 172.317 66.764 172.607 67.011 172.811 67.323 C 173.013 67.639 173.117 68.007 173.111 68.381 L 173.111 71.011 C 173.117 71.386 173.013 71.754 172.811 72.069 C 172.607 72.381 172.317 72.628 171.977 72.78 C 171.583 72.955 171.155 73.041 170.724 73.032 L 168.341 73.032 C 168.31 73.033 168.281 73.021 168.26 72.998 M 169.619 71.878 L 170.772 71.878 C 171.041 71.888 171.3 71.78 171.483 71.583 C 171.672 71.364 171.773 71.082 171.765 70.792 L 171.765 68.599 C 171.779 68.31 171.682 68.027 171.493 67.808 C 171.305 67.606 171.039 67.497 170.764 67.508 L 169.62 67.508 C 169.592 67.504 169.568 67.528 169.572 67.556 L 169.572 71.827 C 169.572 71.859 169.587 71.874 169.62 71.874" fill="#cecece"/>
    <path id="Tracé_1827" data-name="Tracé 1827" d="M 176.691 72.814 C 176.328 72.628 176.025 72.341 175.819 71.989 C 175.607 71.616 175.5 71.193 175.51 70.764 L 175.51 68.629 C 175.501 68.199 175.608 67.774 175.819 67.399 C 176.024 67.045 176.327 66.759 176.691 66.574 C 177.507 66.189 178.452 66.187 179.27 66.569 C 179.624 66.745 179.924 67.013 180.137 67.346 C 180.343 67.673 180.45 68.052 180.446 68.438 L 180.446 68.505 C 180.446 68.568 180.395 68.619 180.332 68.619 L 179.216 68.619 C 179.185 68.62 179.156 68.607 179.135 68.585 C 179.113 68.564 179.101 68.535 179.101 68.504 L 179.101 68.475 C 179.107 68.197 178.996 67.929 178.796 67.736 C 178.324 67.329 177.623 67.338 177.162 67.756 C 176.951 67.981 176.839 68.282 176.853 68.59 L 176.853 70.802 C 176.841 71.115 176.962 71.418 177.187 71.636 C 177.416 71.851 177.721 71.966 178.035 71.955 C 178.322 71.97 178.604 71.876 178.826 71.693 C 179.03 71.507 179.14 71.239 179.126 70.963 L 179.126 70.534 C 179.13 70.506 179.106 70.482 179.078 70.486 L 178.01 70.486 C 177.979 70.486 177.95 70.474 177.929 70.452 C 177.907 70.431 177.895 70.401 177.896 70.371 L 177.896 69.494 C 177.895 69.431 177.947 69.379 178.01 69.38 L 180.337 69.38 C 180.367 69.379 180.397 69.391 180.418 69.413 C 180.439 69.434 180.451 69.464 180.451 69.494 L 180.451 70.752 C 180.462 71.191 180.357 71.625 180.146 72.011 C 179.947 72.363 179.647 72.647 179.284 72.826 C 178.882 73.02 178.439 73.115 177.993 73.106 C 177.542 73.116 177.096 73.015 176.693 72.811" fill="#cecece"/>
    <path id="Tracé_1828" data-name="Tracé 1828" d="M 187.611 67.48 C 187.59 67.502 187.56 67.514 187.53 67.513 L 184.403 67.513 C 184.375 67.509 184.351 67.533 184.355 67.561 L 184.355 69.039 C 184.351 69.067 184.375 69.091 184.403 69.087 L 186.452 69.087 C 186.482 69.086 186.512 69.098 186.533 69.12 C 186.555 69.142 186.567 69.171 186.566 69.202 L 186.566 70.126 C 186.567 70.156 186.555 70.186 186.533 70.207 C 186.512 70.229 186.483 70.241 186.452 70.241 L 184.403 70.241 C 184.375 70.237 184.351 70.26 184.355 70.288 L 184.355 71.833 C 184.351 71.861 184.375 71.884 184.403 71.88 L 187.527 71.88 C 187.59 71.881 187.64 71.931 187.641 71.994 L 187.641 72.919 C 187.641 72.95 187.629 72.979 187.607 73 C 187.586 73.023 187.557 73.035 187.526 73.034 L 183.126 73.034 C 183.063 73.034 183.012 72.983 183.012 72.92 L 183.012 66.474 C 183.011 66.444 183.023 66.414 183.045 66.393 C 183.066 66.371 183.096 66.359 183.126 66.36 L 187.526 66.36 C 187.556 66.359 187.586 66.371 187.607 66.393 C 187.629 66.414 187.641 66.443 187.641 66.474 L 187.641 67.399 C 187.641 67.43 187.629 67.459 187.607 67.48" fill="#cecece"/>
    <path id="Tracé_1829" data-name="Tracé 1829" d="M 197.41 66.608 C 197.722 66.773 197.979 67.027 198.149 67.337 C 198.328 67.669 198.419 68.042 198.412 68.419 C 198.42 68.79 198.326 69.156 198.14 69.477 C 197.959 69.782 197.694 70.028 197.377 70.187 C 197.026 70.361 196.638 70.447 196.247 70.439 L 194.894 70.439 C 194.866 70.436 194.843 70.459 194.846 70.487 L 194.846 72.917 C 194.847 72.98 194.795 73.032 194.732 73.032 L 193.617 73.032 C 193.586 73.032 193.557 73.02 193.536 72.998 C 193.514 72.977 193.502 72.948 193.502 72.917 L 193.502 66.465 C 193.502 66.401 193.553 66.35 193.617 66.35 L 196.31 66.35 C 196.694 66.342 197.074 66.43 197.415 66.608 M 196.815 69.108 C 196.994 68.936 197.091 68.695 197.081 68.446 C 197.092 68.193 196.995 67.947 196.815 67.769 C 196.624 67.592 196.37 67.499 196.11 67.511 L 194.899 67.511 C 194.871 67.508 194.848 67.531 194.851 67.559 L 194.851 69.315 C 194.848 69.343 194.871 69.366 194.899 69.363 L 196.11 69.363 C 196.369 69.375 196.622 69.284 196.815 69.11" fill="#cecece"/>
    <path id="Tracé_1830" data-name="Tracé 1830" d="M 204.307 72.946 L 203.115 70.306 C 203.106 70.283 203.083 70.268 203.058 70.268 L 202.171 70.268 C 202.143 70.264 202.119 70.288 202.123 70.316 L 202.123 72.916 C 202.123 72.947 202.111 72.976 202.089 72.997 C 202.068 73.019 202.039 73.032 202.008 73.031 L 200.894 73.031 C 200.831 73.03 200.781 72.98 200.78 72.917 L 200.78 66.473 C 200.78 66.442 200.792 66.413 200.814 66.392 C 200.835 66.37 200.865 66.358 200.895 66.359 L 203.621 66.359 C 203.994 66.351 204.363 66.436 204.694 66.607 C 204.996 66.767 205.245 67.012 205.409 67.312 C 205.582 67.637 205.669 68.001 205.661 68.369 C 205.672 68.764 205.559 69.153 205.337 69.48 C 205.116 69.792 204.797 70.022 204.431 70.133 C 204.402 70.14 204.387 70.174 204.402 70.2 L 205.702 72.9 C 205.712 72.917 205.719 72.937 205.721 72.957 C 205.721 73.008 205.686 73.033 205.621 73.033 L 204.449 73.033 C 204.391 73.036 204.337 73.001 204.316 72.947 M 202.124 67.561 L 202.124 69.191 C 202.12 69.219 202.144 69.243 202.172 69.239 L 203.421 69.239 C 203.662 69.249 203.896 69.164 204.074 69.001 C 204.244 68.84 204.336 68.614 204.327 68.381 C 204.335 68.146 204.243 67.92 204.074 67.757 C 203.898 67.592 203.662 67.504 203.421 67.514 L 202.172 67.514 C 202.144 67.51 202.12 67.534 202.124 67.562" fill="#cecece"/>
    <path id="Tracé_1831" data-name="Tracé 1831" d="M 209.225 72.832 C 208.856 72.638 208.55 72.342 208.344 71.979 C 208.129 71.594 208.02 71.158 208.029 70.716 L 208.029 68.676 C 208.02 68.239 208.129 67.808 208.344 67.428 C 208.551 67.068 208.857 66.775 209.225 66.584 C 210.056 66.184 211.025 66.184 211.856 66.584 C 212.225 66.775 212.531 67.068 212.738 67.428 C 212.952 67.808 213.061 68.239 213.052 68.676 L 213.052 70.717 C 213.061 71.16 212.952 71.597 212.738 71.985 C 212.533 72.349 212.226 72.645 211.856 72.838 C 211.448 73.046 210.994 73.149 210.536 73.138 C 210.08 73.148 209.629 73.043 209.225 72.833 M 211.384 71.652 C 211.607 71.412 211.724 71.092 211.708 70.765 L 211.708 68.665 C 211.723 68.337 211.608 68.017 211.389 67.773 C 210.913 67.32 210.165 67.32 209.689 67.773 C 209.469 68.017 209.355 68.337 209.37 68.665 L 209.37 70.765 C 209.354 71.091 209.469 71.411 209.689 71.652 C 209.91 71.878 210.217 72 210.533 71.986 C 210.85 71.999 211.158 71.878 211.381 71.652" fill="#cecece"/>
    <path id="Tracé_1832" data-name="Tracé 1832" d="M 220.23 66.393 C 220.252 66.414 220.264 66.444 220.263 66.474 L 220.263 67.409 C 220.263 67.472 220.212 67.523 220.149 67.523 L 218.442 67.523 C 218.414 67.519 218.39 67.542 218.394 67.57 L 218.394 72.918 C 218.395 72.948 218.383 72.978 218.361 72.999 C 218.34 73.021 218.311 73.034 218.28 73.033 L 217.164 73.033 C 217.133 73.034 217.104 73.021 217.083 72.999 C 217.061 72.978 217.049 72.949 217.049 72.918 L 217.049 67.57 C 217.053 67.542 217.03 67.519 217.002 67.523 L 215.343 67.523 C 215.312 67.523 215.283 67.511 215.262 67.489 C 215.24 67.468 215.228 67.438 215.229 67.408 L 215.229 66.473 C 215.228 66.443 215.24 66.413 215.262 66.392 C 215.283 66.37 215.313 66.358 215.343 66.359 L 220.148 66.359 C 220.178 66.358 220.208 66.37 220.229 66.392" fill="#cecece"/>
    <path id="Tracé_1833" data-name="Tracé 1833" d="M 223.451 72.832 C 223.082 72.638 222.776 72.342 222.57 71.979 C 222.355 71.594 222.246 71.158 222.255 70.716 L 222.255 68.676 C 222.246 68.239 222.355 67.808 222.57 67.428 C 222.777 67.068 223.083 66.775 223.451 66.584 C 224.282 66.184 225.251 66.184 226.082 66.584 C 226.451 66.775 226.757 67.068 226.964 67.428 C 227.178 67.808 227.287 68.239 227.278 68.676 L 227.278 70.717 C 227.287 71.16 227.178 71.597 226.964 71.985 C 226.759 72.349 226.453 72.645 226.082 72.838 C 225.674 73.046 225.22 73.149 224.762 73.138 C 224.306 73.148 223.856 73.043 223.451 72.833 M 225.61 71.652 C 225.833 71.412 225.95 71.092 225.934 70.765 L 225.934 68.665 C 225.949 68.337 225.834 68.017 225.615 67.773 C 225.139 67.32 224.391 67.32 223.915 67.773 C 223.695 68.017 223.581 68.337 223.596 68.665 L 223.596 70.765 C 223.58 71.091 223.695 71.411 223.915 71.652 C 224.136 71.878 224.443 72 224.759 71.986 C 225.076 71.999 225.384 71.878 225.607 71.652" fill="#cecece"/>
    <path id="Tracé_1834" data-name="Tracé 1834" d="M 230.883 72.817 C 230.521 72.635 230.22 72.352 230.016 72.002 C 229.808 71.633 229.702 71.215 229.711 70.791 L 229.711 68.589 C 229.702 68.165 229.808 67.747 230.016 67.378 C 230.219 67.029 230.521 66.747 230.883 66.568 C 231.289 66.37 231.737 66.272 232.189 66.282 C 232.635 66.273 233.077 66.366 233.481 66.553 C 233.838 66.722 234.139 66.99 234.348 67.326 C 234.558 67.675 234.665 68.077 234.657 68.484 C 234.657 68.541 234.619 68.576 234.543 68.584 L 233.428 68.651 L 233.409 68.651 C 233.345 68.651 233.309 68.616 233.309 68.551 C 233.323 68.25 233.211 67.957 233 67.741 C 232.529 67.334 231.831 67.334 231.36 67.741 C 231.149 67.956 231.037 68.25 231.051 68.551 L 231.051 70.851 C 231.038 71.149 231.15 71.439 231.36 71.651 C 231.831 72.058 232.529 72.058 233 71.651 C 233.21 71.439 233.321 71.149 233.309 70.851 C 233.309 70.781 233.347 70.751 233.423 70.751 L 234.538 70.799 C 234.568 70.799 234.596 70.809 234.619 70.828 C 234.64 70.844 234.652 70.869 234.652 70.895 C 234.66 71.304 234.553 71.707 234.343 72.058 C 234.135 72.396 233.834 72.668 233.476 72.84 C 233.073 73.031 232.63 73.125 232.184 73.116 C 231.732 73.126 231.284 73.027 230.878 72.826" fill="#cecece"/>
    <path id="Tracé_1835" data-name="Tracé 1835" d="M 238.237 72.832 C 237.868 72.638 237.562 72.342 237.356 71.979 C 237.141 71.594 237.032 71.158 237.041 70.716 L 237.041 68.676 C 237.032 68.239 237.141 67.808 237.356 67.428 C 237.563 67.068 237.869 66.775 238.237 66.584 C 239.068 66.184 240.037 66.184 240.868 66.584 C 241.237 66.775 241.543 67.068 241.75 67.428 C 241.964 67.808 242.073 68.239 242.064 68.676 L 242.064 70.717 C 242.073 71.16 241.964 71.597 241.75 71.985 C 241.545 72.349 241.238 72.645 240.868 72.838 C 240.46 73.046 240.006 73.149 239.548 73.138 C 239.092 73.148 238.642 73.043 238.237 72.833 M 240.396 71.652 C 240.619 71.412 240.736 71.092 240.72 70.765 L 240.72 68.665 C 240.735 68.337 240.62 68.017 240.401 67.773 C 239.925 67.32 239.177 67.32 238.701 67.773 C 238.481 68.017 238.367 68.337 238.382 68.665 L 238.382 70.765 C 238.366 71.091 238.481 71.411 238.701 71.652 C 238.922 71.878 239.229 72 239.545 71.986 C 239.862 71.999 240.17 71.878 240.393 71.652" fill="#cecece"/>
    <path id="Tracé_1836" data-name="Tracé 1836" d="M 244.662 72.998 C 244.64 72.977 244.627 72.948 244.628 72.917 L 244.628 66.473 C 244.628 66.41 244.679 66.359 244.742 66.359 L 245.857 66.359 C 245.887 66.358 245.917 66.37 245.938 66.392 C 245.96 66.413 245.972 66.443 245.972 66.473 L 245.972 71.831 C 245.969 71.859 245.992 71.882 246.02 71.879 L 249.137 71.879 C 249.2 71.879 249.251 71.93 249.251 71.993 L 249.251 72.918 C 249.251 72.981 249.2 73.032 249.137 73.032 L 244.737 73.032 C 244.706 73.033 244.677 73.02 244.656 72.998" fill="#cecece"/>
    <path id="Tracé_1837" data-name="Tracé 1837" d="M 259.647 67.48 C 259.626 67.502 259.596 67.514 259.566 67.513 L 256.449 67.513 C 256.421 67.51 256.398 67.533 256.401 67.561 L 256.401 69.039 C 256.397 69.067 256.421 69.091 256.449 69.087 L 258.498 69.087 C 258.528 69.086 258.558 69.098 258.579 69.12 C 258.601 69.142 258.612 69.171 258.612 69.202 L 258.612 70.126 C 258.613 70.189 258.561 70.241 258.498 70.241 L 256.449 70.241 C 256.421 70.237 256.397 70.26 256.401 70.288 L 256.401 72.919 C 256.402 72.95 256.389 72.979 256.367 73 C 256.347 73.023 256.317 73.036 256.286 73.034 L 255.171 73.034 C 255.14 73.035 255.111 73.023 255.09 73 C 255.068 72.979 255.055 72.95 255.056 72.919 L 255.056 66.474 C 255.056 66.411 255.107 66.36 255.17 66.36 L 259.57 66.36 C 259.6 66.359 259.63 66.371 259.651 66.393 C 259.673 66.414 259.685 66.444 259.684 66.474 L 259.684 67.399 C 259.685 67.429 259.673 67.459 259.651 67.48" fill="#cecece"/>
    <path id="Tracé_1838" data-name="Tracé 1838" d="M 262.983 72.832 C 262.614 72.638 262.308 72.342 262.102 71.979 C 261.887 71.594 261.778 71.158 261.787 70.716 L 261.787 68.676 C 261.778 68.239 261.887 67.808 262.102 67.428 C 262.309 67.068 262.615 66.775 262.983 66.584 C 263.814 66.184 264.783 66.184 265.614 66.584 C 265.983 66.775 266.289 67.068 266.496 67.428 C 266.71 67.808 266.819 68.239 266.81 68.676 L 266.81 70.717 C 266.819 71.16 266.71 71.597 266.496 71.985 C 266.291 72.349 265.984 72.645 265.614 72.838 C 265.206 73.046 264.752 73.149 264.294 73.138 C 263.838 73.148 263.388 73.043 262.983 72.833 M 265.142 71.652 C 265.365 71.412 265.482 71.092 265.466 70.765 L 265.466 68.665 C 265.481 68.337 265.366 68.017 265.147 67.773 C 264.671 67.32 263.923 67.32 263.447 67.773 C 263.227 68.017 263.113 68.337 263.128 68.665 L 263.128 70.765 C 263.112 71.091 263.227 71.411 263.447 71.652 C 263.668 71.878 263.975 72 264.291 71.986 C 264.608 71.999 264.916 71.878 265.139 71.652" fill="#cecece"/>
    <path id="Tracé_1839" data-name="Tracé 1839" d="M 272.901 72.946 L 271.71 70.306 C 271.701 70.283 271.678 70.268 271.653 70.268 L 270.766 70.268 C 270.738 70.264 270.714 70.288 270.718 70.316 L 270.718 72.916 C 270.718 72.979 270.667 73.03 270.604 73.03 L 269.489 73.03 C 269.459 73.031 269.43 73.018 269.409 72.996 C 269.386 72.975 269.373 72.946 269.374 72.915 L 269.374 66.473 C 269.374 66.442 269.387 66.413 269.409 66.392 C 269.43 66.37 269.459 66.358 269.489 66.359 L 272.212 66.359 C 272.585 66.351 272.954 66.436 273.285 66.607 C 273.587 66.767 273.836 67.012 274 67.312 C 274.173 67.637 274.26 68.001 274.252 68.369 C 274.263 68.764 274.15 69.153 273.929 69.48 C 273.708 69.792 273.389 70.022 273.023 70.133 C 272.994 70.14 272.979 70.174 272.994 70.2 L 274.294 72.9 C 274.305 72.917 274.311 72.937 274.313 72.957 C 274.313 73.008 274.279 73.033 274.213 73.033 L 273.041 73.033 C 272.983 73.036 272.929 73.001 272.908 72.947 M 270.718 67.561 L 270.718 69.191 C 270.714 69.219 270.738 69.243 270.766 69.239 L 272.012 69.239 C 272.252 69.249 272.487 69.163 272.664 69.001 C 272.833 68.84 272.926 68.614 272.917 68.381 C 272.925 68.147 272.833 67.92 272.664 67.757 C 272.488 67.592 272.253 67.504 272.012 67.514 L 270.763 67.514 C 270.735 67.51 270.711 67.534 270.715 67.562" fill="#cecece"/>
  </g>
</svg>