<?xml version="1.0" encoding="utf-8"?>
<svg viewBox="88.325 66.281 185.987 6.855" width="185.987" height="6.855" xmlns="http://www.w3.org/2000/svg">
  <defs>
    <clipPath id="clip-path">
      <rect id="Rectangle_559" data-name="Rectangle 559" width="274.712" height="73.136" fill="#484c80"/>
    </clipPath>
  </defs>
  <g>
    <path id="Tracé_1816" data-name="Tracé 1816" d="M 89.522 72.831 C 89.153 72.637 88.847 72.341 88.641 71.978 C 88.426 71.593 88.317 71.157 88.326 70.715 L 88.326 68.675 C 88.317 68.238 88.426 67.807 88.641 67.427 C 88.848 67.067 89.154 66.774 89.522 66.583 C 90.353 66.183 91.322 66.183 92.153 66.583 C 92.522 66.774 92.828 67.067 93.035 67.427 C 93.249 67.807 93.358 68.238 93.349 68.675 L 93.349 70.716 C 93.358 71.159 93.249 71.596 93.035 71.984 C 92.83 72.348 92.524 72.644 92.153 72.837 C 91.745 73.045 91.291 73.148 90.833 73.137 C 90.377 73.147 89.927 73.042 89.522 72.832 M 91.681 71.651 C 91.904 71.411 92.021 71.091 92.005 70.764 L 92.005 68.664 C 92.02 68.336 91.905 68.016 91.686 67.772 C 91.21 67.319 90.462 67.319 89.986 67.772 C 89.766 68.016 89.652 68.336 89.667 68.664 L 89.667 70.764 C 89.651 71.09 89.766 71.41 89.986 71.651 C 90.207 71.877 90.514 71.999 90.83 71.985 C 91.147 71.998 91.455 71.877 91.678 71.651" fill="#395180" clip-path="url(#clip-path)"/>
    <path id="Tracé_1817" data-name="Tracé 1817" d="M 99.773 66.607 C 100.085 66.772 100.342 67.026 100.512 67.336 C 100.691 67.668 100.782 68.041 100.775 68.418 C 100.783 68.789 100.689 69.155 100.503 69.476 C 100.322 69.781 100.057 70.027 99.74 70.186 C 99.389 70.36 99.001 70.446 98.61 70.438 L 97.257 70.438 C 97.229 70.435 97.206 70.458 97.209 70.486 L 97.209 72.916 C 97.21 72.979 97.158 73.031 97.095 73.031 L 95.98 73.031 C 95.949 73.031 95.92 73.019 95.899 72.997 C 95.877 72.976 95.865 72.947 95.865 72.916 L 95.865 66.464 C 95.865 66.4 95.916 66.349 95.98 66.349 L 98.668 66.349 C 99.052 66.341 99.432 66.429 99.773 66.607 M 99.173 69.107 C 99.352 68.935 99.449 68.694 99.439 68.445 C 99.45 68.192 99.353 67.946 99.173 67.768 C 98.982 67.591 98.728 67.498 98.468 67.51 L 97.257 67.51 C 97.229 67.507 97.206 67.53 97.209 67.558 L 97.209 69.314 C 97.206 69.342 97.229 69.365 97.257 69.362 L 98.468 69.362 C 98.727 69.374 98.98 69.283 99.173 69.109" fill="#395180" clip-path="url(#clip-path)"/>
    <path id="Tracé_1818" data-name="Tracé 1818" d="M 107.738 67.48 C 107.717 67.502 107.687 67.514 107.657 67.513 L 104.531 67.513 C 104.502 67.507 104.476 67.532 104.481 67.561 L 104.481 69.039 C 104.477 69.067 104.501 69.091 104.529 69.087 L 106.581 69.087 C 106.611 69.086 106.641 69.098 106.662 69.12 C 106.684 69.142 106.696 69.171 106.695 69.202 L 106.695 70.126 C 106.696 70.156 106.684 70.186 106.662 70.207 C 106.641 70.229 106.612 70.241 106.581 70.241 L 104.531 70.241 C 104.503 70.237 104.479 70.26 104.483 70.288 L 104.483 71.833 C 104.479 71.861 104.503 71.884 104.531 71.88 L 107.658 71.88 C 107.721 71.881 107.771 71.931 107.772 71.994 L 107.772 72.919 C 107.772 72.95 107.76 72.979 107.738 73 C 107.717 73.023 107.688 73.035 107.657 73.034 L 103.257 73.034 C 103.194 73.034 103.143 72.983 103.143 72.92 L 103.143 66.474 C 103.142 66.444 103.154 66.414 103.176 66.393 C 103.197 66.371 103.227 66.359 103.257 66.36 L 107.657 66.36 C 107.687 66.359 107.717 66.371 107.738 66.393 C 107.76 66.414 107.772 66.443 107.772 66.474 L 107.772 67.399 C 107.772 67.43 107.76 67.459 107.738 67.48" fill="#395180" clip-path="url(#clip-path)"/>
    <path id="Tracé_1819" data-name="Tracé 1819" d="M 114.106 66.393 C 114.127 66.371 114.157 66.359 114.187 66.36 L 115.298 66.36 C 115.361 66.359 115.413 66.411 115.412 66.474 L 115.412 72.918 C 115.413 72.948 115.401 72.978 115.379 72.999 C 115.358 73.021 115.329 73.034 115.298 73.033 L 114.22 73.033 C 114.164 73.037 114.111 73.007 114.087 72.957 L 111.618 68.877 C 111.606 68.857 111.593 68.85 111.581 68.853 C 111.569 68.856 111.561 68.871 111.561 68.896 L 111.581 72.918 C 111.581 72.949 111.569 72.978 111.547 72.999 C 111.526 73.021 111.497 73.033 111.466 73.033 L 110.351 73.033 C 110.32 73.033 110.291 73.021 110.27 72.999 C 110.248 72.978 110.236 72.948 110.237 72.918 L 110.237 66.474 C 110.236 66.444 110.248 66.414 110.27 66.393 C 110.291 66.371 110.321 66.36 110.351 66.36 L 111.428 66.36 C 111.484 66.355 111.537 66.386 111.561 66.436 L 114.021 70.497 C 114.033 70.516 114.046 70.524 114.058 70.52 C 114.07 70.516 114.078 70.502 114.078 70.477 L 114.068 66.477 C 114.068 66.446 114.08 66.417 114.102 66.396" fill="#395180" clip-path="url(#clip-path)"/>
    <path id="Tracé_1820" data-name="Tracé 1820" d="M 121.589 72.998 C 121.566 72.978 121.553 72.948 121.555 72.917 L 121.555 66.473 C 121.556 66.41 121.607 66.359 121.67 66.359 L 122.782 66.359 C 122.812 66.358 122.842 66.37 122.863 66.392 C 122.885 66.413 122.897 66.443 122.897 66.473 L 122.897 69.142 C 122.897 69.161 122.904 69.172 122.916 69.175 C 122.93 69.178 122.945 69.172 122.954 69.161 L 125.154 66.425 C 125.189 66.382 125.242 66.357 125.297 66.358 L 126.555 66.358 C 126.606 66.358 126.638 66.373 126.655 66.401 C 126.667 66.435 126.659 66.474 126.635 66.501 L 124.509 69.218 C 124.491 69.235 124.487 69.263 124.499 69.285 L 126.749 72.898 C 126.758 72.92 126.764 72.942 126.768 72.965 C 126.768 73.01 126.735 73.032 126.673 73.032 L 125.413 73.032 C 125.357 73.037 125.304 73.006 125.28 72.956 L 123.58 70.211 C 123.575 70.2 123.564 70.192 123.552 70.192 C 123.537 70.193 123.523 70.2 123.513 70.211 L 122.913 70.964 C 122.903 70.982 122.896 71.001 122.894 71.021 L 122.894 72.921 C 122.894 72.951 122.882 72.981 122.86 73.002 C 122.839 73.024 122.81 73.037 122.779 73.036 L 121.664 73.036 C 121.633 73.037 121.604 73.025 121.583 73.002" fill="#395180" clip-path="url(#clip-path)"/>
    <path id="Tracé_1821" data-name="Tracé 1821" d="M 132.923 66.393 C 132.944 66.371 132.974 66.359 133.004 66.36 L 134.12 66.36 C 134.183 66.359 134.235 66.411 134.234 66.474 L 134.234 72.918 C 134.235 72.948 134.223 72.978 134.201 72.999 C 134.18 73.021 134.151 73.034 134.12 73.033 L 133.042 73.033 C 132.986 73.037 132.933 73.007 132.909 72.957 L 130.44 68.877 C 130.428 68.857 130.415 68.85 130.403 68.853 C 130.391 68.856 130.383 68.871 130.383 68.896 L 130.403 72.918 C 130.403 72.949 130.391 72.978 130.369 72.999 C 130.348 73.021 130.319 73.033 130.288 73.033 L 129.173 73.033 C 129.142 73.033 129.113 73.021 129.092 72.999 C 129.07 72.978 129.058 72.948 129.059 72.918 L 129.059 66.474 C 129.058 66.444 129.07 66.414 129.092 66.393 C 129.113 66.371 129.143 66.36 129.173 66.36 L 130.253 66.36 C 130.309 66.355 130.362 66.386 130.386 66.436 L 132.846 70.497 C 132.858 70.516 132.871 70.524 132.883 70.52 C 132.895 70.516 132.903 70.502 132.903 70.477 L 132.893 66.477 C 132.893 66.446 132.905 66.417 132.927 66.396" fill="#395180" clip-path="url(#clip-path)"/>
    <path id="Tracé_1822" data-name="Tracé 1822" d="M 137.994 72.831 C 137.625 72.637 137.319 72.341 137.113 71.978 C 136.898 71.593 136.789 71.157 136.798 70.715 L 136.798 68.675 C 136.789 68.238 136.898 67.807 137.113 67.427 C 137.32 67.067 137.626 66.774 137.994 66.583 C 138.825 66.183 139.794 66.183 140.625 66.583 C 140.994 66.774 141.3 67.067 141.507 67.427 C 141.721 67.807 141.83 68.238 141.821 68.675 L 141.821 70.716 C 141.83 71.159 141.721 71.596 141.507 71.984 C 141.302 72.348 140.996 72.644 140.625 72.837 C 140.217 73.045 139.763 73.148 139.305 73.137 C 138.849 73.147 138.399 73.042 137.994 72.832 M 140.153 71.651 C 140.376 71.411 140.493 71.091 140.477 70.764 L 140.477 68.664 C 140.492 68.336 140.377 68.016 140.158 67.772 C 139.682 67.319 138.934 67.319 138.458 67.772 C 138.238 68.016 138.124 68.336 138.139 68.664 L 138.139 70.764 C 138.123 71.09 138.238 71.41 138.458 71.651 C 138.679 71.877 138.986 71.999 139.302 71.985 C 139.619 71.998 139.927 71.877 140.15 71.651" fill="#395180" clip-path="url(#clip-path)"/>
    <path id="Tracé_1823" data-name="Tracé 1823" d="M 145.587 72.936 L 143.9 66.483 L 143.89 66.444 C 143.89 66.388 143.924 66.359 143.99 66.359 L 145.172 66.359 C 145.233 66.356 145.286 66.399 145.296 66.459 L 146.202 70.339 C 146.209 70.364 146.217 70.377 146.231 70.377 C 146.245 70.377 146.253 70.364 146.26 70.339 L 147.137 66.469 C 147.148 66.41 147.201 66.367 147.261 66.369 L 148.414 66.369 C 148.477 66.364 148.535 66.407 148.547 66.469 L 149.5 70.349 C 149.507 70.368 149.515 70.379 149.529 70.382 C 149.543 70.385 149.551 70.374 149.558 70.349 L 150.435 66.479 C 150.446 66.42 150.499 66.377 150.559 66.379 L 151.684 66.379 C 151.773 66.379 151.808 66.42 151.784 66.503 L 150.221 72.956 C 150.209 73.018 150.151 73.061 150.088 73.056 L 148.958 73.056 C 148.897 73.059 148.844 73.016 148.834 72.956 L 147.862 68.828 C 147.856 68.802 147.846 68.79 147.833 68.79 C 147.82 68.79 147.81 68.802 147.804 68.828 L 146.898 72.946 C 146.891 73.007 146.836 73.052 146.774 73.046 L 145.716 73.046 C 145.653 73.051 145.595 73.008 145.583 72.946" fill="#395180" clip-path="url(#clip-path)"/>
    <path id="Tracé_1824" data-name="Tracé 1824" d="M 154.171 72.998 C 154.149 72.977 154.136 72.948 154.137 72.917 L 154.137 66.473 C 154.137 66.41 154.188 66.359 154.251 66.359 L 155.366 66.359 C 155.396 66.358 155.426 66.37 155.447 66.392 C 155.469 66.413 155.481 66.442 155.481 66.473 L 155.481 71.831 C 155.478 71.859 155.501 71.882 155.529 71.879 L 158.646 71.879 C 158.709 71.879 158.76 71.93 158.76 71.993 L 158.76 72.918 C 158.76 72.981 158.709 73.032 158.646 73.032 L 154.246 73.032 C 154.215 73.033 154.186 73.02 154.165 72.998" fill="#395180" clip-path="url(#clip-path)"/>
    <path id="Tracé_1825" data-name="Tracé 1825" d="M 165.723 67.48 C 165.702 67.502 165.672 67.514 165.642 67.513 L 162.515 67.513 C 162.487 67.509 162.463 67.533 162.467 67.561 L 162.467 69.039 C 162.463 69.067 162.487 69.091 162.515 69.087 L 164.564 69.087 C 164.594 69.086 164.624 69.098 164.645 69.12 C 164.667 69.142 164.679 69.171 164.678 69.202 L 164.678 70.126 C 164.679 70.156 164.667 70.186 164.645 70.207 C 164.624 70.229 164.595 70.241 164.564 70.241 L 162.515 70.241 C 162.487 70.237 162.463 70.26 162.467 70.288 L 162.467 71.833 C 162.463 71.861 162.487 71.884 162.515 71.88 L 165.642 71.88 C 165.705 71.881 165.755 71.931 165.756 71.994 L 165.756 72.919 C 165.756 72.95 165.744 72.979 165.722 73 C 165.701 73.023 165.672 73.035 165.641 73.034 L 161.241 73.034 C 161.178 73.034 161.127 72.983 161.127 72.92 L 161.127 66.474 C 161.126 66.444 161.138 66.414 161.16 66.393 C 161.181 66.371 161.211 66.359 161.241 66.36 L 165.641 66.36 C 165.671 66.359 165.701 66.371 165.722 66.393 C 165.744 66.414 165.756 66.443 165.756 66.474 L 165.756 67.399 C 165.756 67.43 165.744 67.459 165.722 67.48" fill="#395180" clip-path="url(#clip-path)"/>
    <path id="Tracé_1826" data-name="Tracé 1826" d="M 168.26 72.998 C 168.238 72.977 168.226 72.947 168.227 72.917 L 168.227 66.474 C 168.226 66.411 168.278 66.359 168.341 66.36 L 170.724 66.36 C 171.155 66.351 171.583 66.437 171.977 66.612 C 172.317 66.764 172.607 67.011 172.811 67.323 C 173.013 67.639 173.117 68.007 173.111 68.381 L 173.111 71.011 C 173.117 71.386 173.013 71.754 172.811 72.069 C 172.607 72.381 172.317 72.628 171.977 72.78 C 171.583 72.955 171.155 73.041 170.724 73.032 L 168.341 73.032 C 168.31 73.033 168.281 73.021 168.26 72.998 M 169.619 71.878 L 170.772 71.878 C 171.041 71.888 171.3 71.78 171.483 71.583 C 171.672 71.364 171.773 71.082 171.765 70.792 L 171.765 68.599 C 171.779 68.31 171.682 68.027 171.493 67.808 C 171.305 67.606 171.039 67.497 170.764 67.508 L 169.62 67.508 C 169.592 67.504 169.568 67.528 169.572 67.556 L 169.572 71.827 C 169.572 71.859 169.587 71.874 169.62 71.874" fill="#395180" clip-path="url(#clip-path)"/>
    <path id="Tracé_1827" data-name="Tracé 1827" d="M 176.69 72.813 C 176.327 72.627 176.024 72.34 175.818 71.988 C 175.606 71.615 175.499 71.192 175.509 70.763 L 175.509 68.628 C 175.5 68.198 175.607 67.773 175.818 67.398 C 176.023 67.044 176.326 66.758 176.69 66.573 C 177.506 66.188 178.451 66.186 179.269 66.568 C 179.623 66.744 179.923 67.012 180.136 67.345 C 180.342 67.672 180.449 68.051 180.445 68.437 L 180.445 68.504 C 180.445 68.567 180.394 68.618 180.331 68.618 L 179.215 68.618 C 179.184 68.619 179.155 68.606 179.134 68.584 C 179.112 68.563 179.1 68.534 179.1 68.503 L 179.1 68.474 C 179.106 68.196 178.995 67.928 178.795 67.735 C 178.323 67.328 177.622 67.337 177.161 67.755 C 176.95 67.98 176.838 68.281 176.852 68.589 L 176.852 70.801 C 176.84 71.114 176.961 71.417 177.186 71.635 C 177.415 71.85 177.72 71.965 178.034 71.954 C 178.321 71.969 178.603 71.875 178.825 71.692 C 179.029 71.506 179.139 71.238 179.125 70.962 L 179.125 70.533 C 179.129 70.505 179.105 70.481 179.077 70.485 L 178.009 70.485 C 177.978 70.485 177.949 70.473 177.928 70.451 C 177.906 70.43 177.894 70.4 177.895 70.37 L 177.895 69.493 C 177.894 69.43 177.946 69.378 178.009 69.379 L 180.336 69.379 C 180.366 69.378 180.396 69.39 180.417 69.412 C 180.438 69.433 180.45 69.463 180.45 69.493 L 180.45 70.751 C 180.461 71.19 180.356 71.624 180.145 72.01 C 179.946 72.362 179.646 72.646 179.283 72.825 C 178.881 73.019 178.438 73.114 177.992 73.105 C 177.541 73.115 177.095 73.014 176.692 72.81" fill="#395180" clip-path="url(#clip-path)"/>
    <path id="Tracé_1828" data-name="Tracé 1828" d="M 187.611 67.48 C 187.59 67.502 187.56 67.514 187.53 67.513 L 184.403 67.513 C 184.375 67.509 184.351 67.533 184.355 67.561 L 184.355 69.039 C 184.351 69.067 184.375 69.091 184.403 69.087 L 186.452 69.087 C 186.482 69.086 186.512 69.098 186.533 69.12 C 186.555 69.142 186.567 69.171 186.566 69.202 L 186.566 70.126 C 186.567 70.156 186.555 70.186 186.533 70.207 C 186.512 70.229 186.483 70.241 186.452 70.241 L 184.403 70.241 C 184.375 70.237 184.351 70.26 184.355 70.288 L 184.355 71.833 C 184.351 71.861 184.375 71.884 184.403 71.88 L 187.527 71.88 C 187.59 71.881 187.64 71.931 187.641 71.994 L 187.641 72.919 C 187.641 72.95 187.629 72.979 187.607 73 C 187.586 73.023 187.557 73.035 187.526 73.034 L 183.126 73.034 C 183.063 73.034 183.012 72.983 183.012 72.92 L 183.012 66.474 C 183.011 66.444 183.023 66.414 183.045 66.393 C 183.066 66.371 183.096 66.359 183.126 66.36 L 187.526 66.36 C 187.556 66.359 187.586 66.371 187.607 66.393 C 187.629 66.414 187.641 66.443 187.641 66.474 L 187.641 67.399 C 187.641 67.43 187.629 67.459 187.607 67.48" fill="#395180" clip-path="url(#clip-path)"/>
    <path id="Tracé_1829" data-name="Tracé 1829" d="M 197.409 66.607 C 197.721 66.772 197.978 67.026 198.148 67.336 C 198.327 67.668 198.418 68.041 198.411 68.418 C 198.419 68.789 198.325 69.155 198.139 69.476 C 197.958 69.781 197.693 70.027 197.376 70.186 C 197.025 70.36 196.637 70.446 196.246 70.438 L 194.893 70.438 C 194.865 70.435 194.842 70.458 194.845 70.486 L 194.845 72.916 C 194.846 72.979 194.794 73.031 194.731 73.031 L 193.616 73.031 C 193.585 73.031 193.556 73.019 193.535 72.997 C 193.513 72.976 193.501 72.947 193.501 72.916 L 193.501 66.464 C 193.501 66.4 193.552 66.349 193.616 66.349 L 196.309 66.349 C 196.693 66.341 197.073 66.429 197.414 66.607 M 196.814 69.107 C 196.993 68.935 197.09 68.694 197.08 68.445 C 197.091 68.192 196.994 67.946 196.814 67.768 C 196.623 67.591 196.369 67.498 196.109 67.51 L 194.898 67.51 C 194.87 67.507 194.847 67.53 194.85 67.558 L 194.85 69.314 C 194.847 69.342 194.87 69.365 194.898 69.362 L 196.109 69.362 C 196.368 69.374 196.621 69.283 196.814 69.109" fill="#395180" clip-path="url(#clip-path)"/>
    <path id="Tracé_1830" data-name="Tracé 1830" d="M 204.306 72.946 L 203.114 70.306 C 203.105 70.283 203.082 70.268 203.057 70.268 L 202.17 70.268 C 202.142 70.264 202.118 70.288 202.122 70.316 L 202.122 72.916 C 202.122 72.947 202.11 72.976 202.088 72.997 C 202.067 73.019 202.038 73.032 202.007 73.031 L 200.893 73.031 C 200.83 73.03 200.78 72.98 200.779 72.917 L 200.779 66.473 C 200.779 66.442 200.791 66.413 200.813 66.392 C 200.834 66.37 200.864 66.358 200.894 66.359 L 203.62 66.359 C 203.993 66.351 204.362 66.436 204.693 66.607 C 204.995 66.767 205.244 67.012 205.408 67.312 C 205.581 67.637 205.668 68.001 205.66 68.369 C 205.671 68.764 205.558 69.153 205.336 69.48 C 205.115 69.792 204.796 70.022 204.43 70.133 C 204.401 70.14 204.386 70.174 204.401 70.2 L 205.701 72.9 C 205.711 72.917 205.718 72.937 205.72 72.957 C 205.72 73.008 205.686 73.033 205.62 73.033 L 204.448 73.033 C 204.39 73.036 204.336 73.001 204.315 72.947 M 202.123 67.561 L 202.123 69.191 C 202.119 69.219 202.143 69.243 202.171 69.239 L 203.42 69.239 C 203.661 69.249 203.895 69.164 204.073 69.001 C 204.243 68.84 204.335 68.614 204.326 68.381 C 204.334 68.146 204.242 67.92 204.073 67.757 C 203.897 67.592 203.661 67.504 203.42 67.514 L 202.171 67.514 C 202.143 67.51 202.119 67.534 202.123 67.562" fill="#395180" clip-path="url(#clip-path)"/>
    <path id="Tracé_1831" data-name="Tracé 1831" d="M 209.224 72.831 C 208.855 72.637 208.549 72.341 208.343 71.978 C 208.128 71.593 208.019 71.157 208.028 70.715 L 208.028 68.675 C 208.019 68.238 208.128 67.807 208.343 67.427 C 208.55 67.067 208.856 66.774 209.224 66.583 C 210.055 66.183 211.024 66.183 211.855 66.583 C 212.224 66.774 212.53 67.067 212.737 67.427 C 212.951 67.807 213.06 68.238 213.051 68.675 L 213.051 70.716 C 213.06 71.159 212.951 71.596 212.737 71.984 C 212.532 72.348 212.226 72.644 211.855 72.837 C 211.447 73.045 210.993 73.148 210.535 73.137 C 210.079 73.147 209.628 73.042 209.224 72.832 M 211.383 71.651 C 211.606 71.411 211.723 71.091 211.707 70.764 L 211.707 68.664 C 211.722 68.336 211.607 68.016 211.388 67.772 C 210.912 67.319 210.164 67.319 209.688 67.772 C 209.468 68.016 209.354 68.336 209.369 68.664 L 209.369 70.764 C 209.353 71.09 209.468 71.41 209.688 71.651 C 209.909 71.877 210.216 71.999 210.532 71.985 C 210.849 71.998 211.157 71.877 211.38 71.651" fill="#395180" clip-path="url(#clip-path)"/>
    <path id="Tracé_1832" data-name="Tracé 1832" d="M 220.229 66.393 C 220.251 66.414 220.263 66.444 220.262 66.474 L 220.262 67.409 C 220.262 67.472 220.211 67.523 220.148 67.523 L 218.441 67.523 C 218.413 67.519 218.389 67.542 218.393 67.57 L 218.393 72.918 C 218.394 72.948 218.382 72.978 218.36 72.999 C 218.339 73.021 218.31 73.034 218.279 73.033 L 217.163 73.033 C 217.132 73.034 217.103 73.021 217.082 72.999 C 217.06 72.978 217.048 72.949 217.048 72.918 L 217.048 67.57 C 217.052 67.542 217.029 67.519 217.001 67.523 L 215.342 67.523 C 215.311 67.523 215.282 67.511 215.261 67.489 C 215.239 67.468 215.227 67.438 215.228 67.408 L 215.228 66.473 C 215.227 66.443 215.239 66.413 215.261 66.392 C 215.282 66.37 215.312 66.358 215.342 66.359 L 220.147 66.359 C 220.177 66.358 220.207 66.37 220.228 66.392" fill="#395180" clip-path="url(#clip-path)"/>
    <path id="Tracé_1833" data-name="Tracé 1833" d="M 223.451 72.831 C 223.082 72.637 222.776 72.341 222.57 71.978 C 222.355 71.593 222.246 71.157 222.255 70.715 L 222.255 68.675 C 222.246 68.238 222.355 67.807 222.57 67.427 C 222.777 67.067 223.083 66.774 223.451 66.583 C 224.282 66.183 225.251 66.183 226.082 66.583 C 226.451 66.774 226.757 67.067 226.964 67.427 C 227.178 67.807 227.287 68.238 227.278 68.675 L 227.278 70.716 C 227.287 71.159 227.178 71.596 226.964 71.984 C 226.759 72.348 226.453 72.644 226.082 72.837 C 225.674 73.045 225.22 73.148 224.762 73.137 C 224.306 73.147 223.856 73.042 223.451 72.832 M 225.61 71.651 C 225.833 71.411 225.95 71.091 225.934 70.764 L 225.934 68.664 C 225.949 68.336 225.834 68.016 225.615 67.772 C 225.139 67.319 224.391 67.319 223.915 67.772 C 223.695 68.016 223.581 68.336 223.596 68.664 L 223.596 70.764 C 223.58 71.09 223.695 71.41 223.915 71.651 C 224.136 71.877 224.443 71.999 224.759 71.985 C 225.076 71.998 225.384 71.877 225.607 71.651" fill="#395180" clip-path="url(#clip-path)"/>
    <path id="Tracé_1834" data-name="Tracé 1834" d="M 230.881 72.817 C 230.519 72.635 230.218 72.352 230.014 72.002 C 229.806 71.633 229.7 71.215 229.709 70.791 L 229.709 68.589 C 229.7 68.165 229.806 67.747 230.014 67.378 C 230.217 67.029 230.519 66.747 230.881 66.568 C 231.287 66.37 231.735 66.272 232.187 66.282 C 232.633 66.273 233.075 66.366 233.479 66.553 C 233.836 66.722 234.137 66.99 234.346 67.326 C 234.556 67.675 234.663 68.077 234.655 68.484 C 234.655 68.541 234.617 68.576 234.541 68.584 L 233.426 68.651 L 233.407 68.651 C 233.343 68.651 233.307 68.616 233.307 68.551 C 233.321 68.25 233.209 67.957 232.998 67.741 C 232.527 67.334 231.829 67.334 231.358 67.741 C 231.147 67.956 231.035 68.25 231.049 68.551 L 231.049 70.851 C 231.036 71.149 231.148 71.439 231.358 71.651 C 231.829 72.058 232.527 72.058 232.998 71.651 C 233.208 71.439 233.319 71.149 233.307 70.851 C 233.307 70.781 233.345 70.751 233.421 70.751 L 234.536 70.799 C 234.566 70.799 234.594 70.809 234.617 70.828 C 234.638 70.844 234.65 70.869 234.65 70.895 C 234.658 71.304 234.551 71.707 234.341 72.058 C 234.133 72.396 233.832 72.668 233.474 72.84 C 233.071 73.031 232.628 73.125 232.182 73.116 C 231.73 73.126 231.282 73.027 230.876 72.826" fill="#395180" clip-path="url(#clip-path)"/>
    <path id="Tracé_1835" data-name="Tracé 1835" d="M 238.237 72.831 C 237.868 72.637 237.562 72.341 237.356 71.978 C 237.141 71.593 237.032 71.157 237.041 70.715 L 237.041 68.675 C 237.032 68.238 237.141 67.807 237.356 67.427 C 237.563 67.067 237.869 66.774 238.237 66.583 C 239.068 66.183 240.037 66.183 240.868 66.583 C 241.237 66.774 241.543 67.067 241.75 67.427 C 241.964 67.807 242.073 68.238 242.064 68.675 L 242.064 70.716 C 242.073 71.159 241.964 71.596 241.75 71.984 C 241.545 72.348 241.239 72.644 240.868 72.837 C 240.46 73.045 240.006 73.148 239.548 73.137 C 239.092 73.147 238.642 73.042 238.237 72.832 M 240.396 71.651 C 240.619 71.411 240.736 71.091 240.72 70.764 L 240.72 68.664 C 240.735 68.336 240.62 68.016 240.401 67.772 C 239.925 67.319 239.177 67.319 238.701 67.772 C 238.481 68.016 238.367 68.336 238.382 68.664 L 238.382 70.764 C 238.366 71.09 238.481 71.41 238.701 71.651 C 238.922 71.877 239.229 71.999 239.545 71.985 C 239.862 71.998 240.17 71.877 240.393 71.651" fill="#395180" clip-path="url(#clip-path)"/>
    <path id="Tracé_1836" data-name="Tracé 1836" d="M 244.662 72.998 C 244.64 72.977 244.627 72.948 244.628 72.917 L 244.628 66.473 C 244.628 66.41 244.679 66.359 244.742 66.359 L 245.857 66.359 C 245.887 66.358 245.917 66.37 245.938 66.392 C 245.96 66.413 245.972 66.442 245.972 66.473 L 245.972 71.831 C 245.969 71.859 245.992 71.882 246.02 71.879 L 249.137 71.879 C 249.2 71.879 249.251 71.93 249.251 71.993 L 249.251 72.918 C 249.251 72.981 249.2 73.032 249.137 73.032 L 244.737 73.032 C 244.706 73.033 244.677 73.02 244.656 72.998" fill="#395180" clip-path="url(#clip-path)"/>
    <path id="Tracé_1837" data-name="Tracé 1837" d="M 259.646 67.48 C 259.625 67.502 259.595 67.514 259.565 67.513 L 256.448 67.513 C 256.42 67.51 256.397 67.533 256.4 67.561 L 256.4 69.039 C 256.396 69.067 256.42 69.091 256.448 69.087 L 258.497 69.087 C 258.527 69.086 258.557 69.098 258.578 69.12 C 258.599 69.142 258.611 69.171 258.611 69.202 L 258.611 70.126 C 258.612 70.189 258.56 70.241 258.497 70.241 L 256.448 70.241 C 256.42 70.237 256.396 70.26 256.4 70.288 L 256.4 72.919 C 256.401 72.95 256.388 72.979 256.366 73 C 256.346 73.023 256.316 73.036 256.285 73.034 L 255.17 73.034 C 255.139 73.035 255.11 73.023 255.089 73 C 255.067 72.979 255.054 72.95 255.055 72.919 L 255.055 66.474 C 255.055 66.411 255.106 66.36 255.169 66.36 L 259.569 66.36 C 259.599 66.359 259.629 66.371 259.65 66.393 C 259.672 66.414 259.684 66.444 259.683 66.474 L 259.683 67.399 C 259.684 67.429 259.672 67.459 259.65 67.48" fill="#395180" clip-path="url(#clip-path)"/>
    <path id="Tracé_1838" data-name="Tracé 1838" d="M 262.982 72.831 C 262.613 72.637 262.307 72.341 262.101 71.978 C 261.886 71.593 261.777 71.157 261.786 70.715 L 261.786 68.675 C 261.777 68.238 261.886 67.807 262.101 67.427 C 262.308 67.067 262.614 66.774 262.982 66.583 C 263.813 66.183 264.782 66.183 265.613 66.583 C 265.982 66.774 266.288 67.067 266.495 67.427 C 266.709 67.807 266.818 68.238 266.809 68.675 L 266.809 70.716 C 266.818 71.159 266.709 71.596 266.495 71.984 C 266.29 72.348 265.984 72.644 265.613 72.837 C 265.205 73.045 264.751 73.148 264.293 73.137 C 263.837 73.147 263.387 73.042 262.982 72.832 M 265.141 71.651 C 265.364 71.411 265.481 71.091 265.465 70.764 L 265.465 68.664 C 265.48 68.336 265.365 68.016 265.146 67.772 C 264.67 67.319 263.922 67.319 263.446 67.772 C 263.226 68.016 263.112 68.336 263.127 68.664 L 263.127 70.764 C 263.111 71.09 263.226 71.41 263.446 71.651 C 263.667 71.877 263.974 71.999 264.29 71.985 C 264.607 71.998 264.915 71.877 265.138 71.651" fill="#395180" clip-path="url(#clip-path)"/>
    <path id="Tracé_1839" data-name="Tracé 1839" d="M 272.9 72.946 L 271.708 70.306 C 271.699 70.283 271.676 70.268 271.651 70.268 L 270.764 70.268 C 270.736 70.264 270.712 70.288 270.716 70.316 L 270.716 72.916 C 270.716 72.979 270.665 73.03 270.602 73.03 L 269.487 73.03 C 269.457 73.031 269.428 73.018 269.407 72.996 C 269.385 72.975 269.372 72.946 269.373 72.915 L 269.373 66.473 C 269.373 66.442 269.385 66.413 269.407 66.392 C 269.428 66.37 269.457 66.358 269.487 66.359 L 272.211 66.359 C 272.584 66.351 272.953 66.436 273.284 66.607 C 273.586 66.767 273.835 67.012 273.999 67.312 C 274.172 67.637 274.259 68.001 274.251 68.369 C 274.262 68.764 274.149 69.153 273.928 69.48 C 273.707 69.792 273.388 70.022 273.022 70.133 C 272.993 70.14 272.978 70.174 272.993 70.2 L 274.293 72.9 C 274.304 72.917 274.31 72.937 274.312 72.957 C 274.312 73.008 274.278 73.033 274.212 73.033 L 273.04 73.033 C 272.982 73.036 272.928 73.001 272.907 72.947 M 270.717 67.561 L 270.717 69.191 C 270.713 69.219 270.737 69.243 270.765 69.239 L 272.011 69.239 C 272.251 69.249 272.486 69.163 272.663 69.001 C 272.833 68.84 272.925 68.614 272.916 68.381 C 272.924 68.146 272.832 67.92 272.663 67.757 C 272.487 67.592 272.252 67.504 272.011 67.514 L 270.762 67.514 C 270.734 67.51 270.71 67.534 270.714 67.562" fill="#395180" clip-path="url(#clip-path)"/>
  </g>
</svg>