<?xml version="1.0" encoding="UTF-8"?>
<svg id="uuid-d2e77d18-3897-476d-93f1-4b8810ef1f68" xmlns="http://www.w3.org/2000/svg" viewBox="0 0 779.57 29.18">
    <path d="M4.91,27.64c-1.54-.92-2.76-2.15-3.69-3.69-.92-1.54-1.23-3.38-1.23-5.22V10.14c0-1.84,.31-3.69,1.23-5.22,.92-1.54,2.15-2.76,3.69-3.69,1.54-.92,3.38-1.23,5.53-1.23s3.99,.31,5.53,1.23,2.76,2.15,3.69,3.69c.92,1.54,1.23,3.38,1.23,5.22v8.6c0,2.15-.31,3.69-1.23,5.22s-2.15,2.76-3.69,3.69c-1.54,.92-3.38,1.23-5.53,1.23s-3.99-.31-5.53-1.23Zm9.21-4.91c.92-.92,1.23-2.15,1.23-3.69V10.14c0-1.54-.31-2.76-1.23-3.69-.92-.92-2.15-1.54-3.69-1.54s-2.76,.61-3.38,1.54-1.23,2.15-1.23,3.69v8.91c0,1.54,.31,2.76,1.23,3.69,.92,.92,2.15,1.54,3.38,1.54s2.76-.61,3.69-1.54Z" style="fill:#fff;"/>
    <path d="M47.92,1.54c1.23,.61,2.46,1.84,3.07,3.07,.61,1.23,1.23,2.76,1.23,4.61s-.31,3.07-1.23,4.3-1.84,2.15-3.07,3.07-3.07,.92-4.61,.92h-5.84s-.31,0-.31,.31v10.44l-.31,.31h-4.61s-.31,0-.31-.31l-.31-.31V.92s0-.31,.31-.31,.31-.31,.31-.31h11.36c1.54,.31,3.07,.61,4.3,1.23h0Zm-2.46,10.44c.61-.61,1.23-1.54,1.23-2.76s-.31-2.15-1.23-2.76c-.61-.61-1.84-.92-3.07-.92h-4.91s-.31,0-.31,.31v7.37s0,.31,.31,.31h4.91c1.23-.31,2.15-.61,3.07-1.54h0Z" style="fill:#fff;"/>
    <path d="M81.4,5.22h-13.51s-.31,0-.31,.31v6.14s0,.31,.31,.31h8.91v4.61l-.31,.31h-8.6s-.31,0-.31,.31v6.45s0,.31,.31,.31h13.21s.31,0,.31,.31,.31,.31,.31,.31v3.99s0,.31-.31,.31-.31,.31-.31,.31h-18.43s-.31,0-.31-.31l-.31-.31V1.54s0-.31,.31-.31h19.04l.31,.31v3.99c-.31-.61-.31-.31-.31-.31h0Z" style="fill:#fff;"/>
    <path d="M107.81,.61h5.22V28.26l-.31,.31h-4.61q-.31,0-.61-.31l-10.44-17.2h-.31V28.26s0,.31-.31,.31-.31,.31-.31,.31h-4.61s-.31,0-.31-.31l-.31-.31V1.23s0-.31,.31-.31h4.91q.31,0,.61,.31l10.44,16.89h.31V.92c.31,.31,.31,0,.31-.31h0Z" style="fill:#fff;"/>
    <path d="M139.45,28.26l-.31-.31V.92s0-.31,.31-.31h5.22l.31,.31V11.98h.31L154.5,.61q.31-.31,.61-.31h5.22q.31,0,.31,.31v.31l-8.91,11.36v.31l9.52,15.05v.31q0,.31-.31,.31h-5.53q-.31,0-.61-.31l-7.06-11.36h-.31l-2.46,3.07v8.29s0,.31-.31,.31-.31,.31-.31,.31h-4.61s-.31,0-.31-.31h0Z" style="fill:#fff;"/>
    <path d="M186.75,.61h5.22V28.26l-.31,.31h-4.61q-.31,0-.61-.31l-10.44-17.2h-.31V28.26s0,.31-.31,.31-.31,.31-.31,.31h-4.61s-.31,0-.31-.31l-.31-.31V1.23s0-.31,.31-.31h4.91q.31,0,.61,.31l10.44,16.89h.31V.92c.31,.31,.31,0,.31-.31h0Z" style="fill:#fff;"/>
    <path d="M207.95,27.64c-1.54-.92-2.76-2.15-3.69-3.69s-1.23-3.38-1.23-5.22V10.14c0-1.84,.31-3.69,1.23-5.22s2.15-2.76,3.69-3.69c1.54-.92,3.38-1.23,5.53-1.23s3.99,.31,5.53,1.23c1.54,.92,2.76,2.15,3.69,3.69s1.23,3.38,1.23,5.22v8.6c0,2.15-.31,3.69-1.23,5.22s-2.15,2.76-3.69,3.69c-1.54,.92-3.38,1.23-5.53,1.23s-3.99-.31-5.53-1.23Zm9.21-4.91c.92-.92,1.23-2.15,1.23-3.69V10.14c0-1.54-.31-2.76-1.23-3.69-.92-.92-2.15-1.54-3.69-1.54s-2.76,.61-3.38,1.54-1.23,2.15-1.23,3.69v8.91c0,1.54,.31,2.76,1.23,3.69,.92,.92,2.15,1.54,3.38,1.54s2.76-.61,3.69-1.54Z" style="fill:#fff;"/>
    <path d="M239.89,28.26l-7.06-27.03v-.31q0-.31,.31-.31h4.91q.31,0,.61,.31l3.69,16.28v0l3.69-16.28c0-.31,.31-.31,.61-.31h4.91c.31,0,.61,0,.61,.31l3.99,16.28h0l3.69-16.28c0-.31,.31-.31,.61-.31h4.61c.31,0,.61,.31,.31,.61l-6.45,27.03c0,.31-.31,.31-.61,.31h-4.91q-.31,0-.61-.31l-3.99-17.2v0l-3.69,17.2c0,.31-.31,.31-.61,.31h-4.3l-.31-.31h0Z" style="fill:#fff;"/>
    <path d="M275.83,28.26l-.31-.31V.92s0-.31,.31-.31h5.22l.31,.31V23.34s0,.31,.31,.31h12.9s.31,0,.31,.31v4.61l-.31,.31h-18.43c0-.31-.31-.31-.31-.61h0Z" style="fill:#fff;"/>
    <path d="M324.05,5.22h-13.51s-.31,0-.31,.31v6.14s0,.31,.31,.31h8.91v4.61l-.31,.31h-8.6s-.31,0-.31,.31v6.45s0,.31,.31,.31h13.21s.31,0,.31,.31,.31,.31,.31,.31v3.99s0,.31-.31,.31-.31,.31-.31,.31h-18.43s-.31,0-.31-.31l-.31-.31V1.54s0-.31,.31-.31h19.04l.31,.31v3.99c0-.61,0-.31-.31-.31h0Z" style="fill:#fff;"/>
    <path d="M334.8,28.26l-.31-.31V.92s0-.31,.31-.31h10.14c1.84,0,3.69,.31,5.22,.92,1.54,.61,2.76,1.84,3.38,3.07,.61,1.23,1.23,2.76,1.23,4.3v11.06c0,1.84-.31,3.07-1.23,4.3-.92,1.23-1.84,2.15-3.38,3.07s-3.38,.92-5.22,.92h-9.83c0,.31-.31,.31-.31,0h0Zm5.53-4.61h4.91c1.23,0,2.15-.31,3.07-1.23s1.23-1.84,1.23-3.38V9.83c0-1.23-.31-2.46-1.23-3.38s-1.84-1.23-3.07-1.23h-4.91s-.31,0-.31,.31l.31,18.12c0-.31,0,0,0,0h0Z" style="fill:#fff;"/>
    <path d="M370.12,27.64c-1.54-.92-2.76-1.84-3.69-3.38s-1.23-3.07-1.23-5.22V10.14c0-1.84,.31-3.69,1.23-5.22s2.15-2.76,3.69-3.38c1.54-.92,3.38-1.23,5.53-1.23s3.69,.31,5.53,1.23c1.84,.92,2.76,1.84,3.69,3.38s1.23,2.76,1.23,4.61v.61l-.31,.31h-4.61s-.31,0-.31-.31-.31-.31-.31-.31h0c0-1.23-.31-2.15-1.23-3.07-.92-.92-1.84-1.23-3.38-1.23s-2.46,.61-3.38,1.23c-.92,.61-1.23,2.15-1.23,3.38v9.21c0,1.54,.31,2.46,1.54,3.38,.92,.92,2.15,1.23,3.69,1.23s2.46-.31,3.38-1.23,1.23-1.84,1.23-3.07v-1.84s0-.31-.31-.31h-4.61s-.31,0-.31-.31v-4.3h10.44v5.53c0,2.15-.31,3.69-1.23,5.22s-2.15,2.76-3.69,3.38c-1.54,.92-3.38,1.23-5.53,1.23s-4.3,.31-5.84-.61h0Z" style="fill:#fff;"/>
    <path d="M415.89,5.22h-13.51s-.31,0-.31,.31v6.14s0,.31,.31,.31h8.91v4.61l-.31,.31h-8.6s-.31,0-.31,.31v6.45s0,.31,.31,.31h13.21s.31,0,.31,.31v4.61l-.31,.31h-18.43s-.31,0-.31-.31V1.23h19.04V5.53c0-.61,0-.31,0-.31h0Z" style="fill:#fff;"/>
    <path d="M457.05,1.54c1.23,.61,2.46,1.84,3.07,3.07s1.23,2.76,1.23,4.61-.31,3.07-1.23,4.3-1.84,2.15-3.07,3.07-3.07,.92-4.61,.92h-5.84s-.31,0-.31,.31v10.44l-.31,.31h-4.91s-.31,0-.31-.31V.61l.31-.31h11.36c1.54,.31,3.07,.61,4.61,1.23h0Zm-2.76,10.44c.61-.61,1.23-1.54,1.23-2.76s-.31-2.15-1.23-2.76c-.61-.61-1.84-.92-3.07-.92h-4.91s-.31,0-.31,.31v7.37s0,.31,.31,.31h4.91c1.54-.31,2.46-.61,3.07-1.54h0Z" style="fill:#fff;"/>
    <path d="M485.92,28.26l-4.91-11.06s0-.31-.31-.31h-3.69s-.31,0-.31,.31v11.36l-.31,.31h-4.61s-.31,0-.31-.31V.92h11.67c1.54,0,3.07,.31,4.61,.92,1.23,.61,2.46,1.84,3.07,3.07s.92,2.76,.92,4.3c0,1.84-.31,3.38-1.23,4.61-.92,1.23-2.15,2.15-3.69,2.76,0,0-.31,.31,0,.31l5.53,11.36v.31q0,.31-.31,.31h-4.91c-1.23-.31-1.23-.61-1.23-.61h0Zm-9.21-22.73v6.76s0,.31,.31,.31h5.22c1.23,0,2.15-.31,2.76-.92s.92-1.54,.92-2.46-.31-1.84-.92-2.46-1.54-.92-2.76-.92l-5.53-.31h0Z" style="fill:#fff;"/>
    <path d="M506.5,27.64c-1.54-.92-2.76-2.15-3.69-3.69s-1.23-3.38-1.23-5.22V10.14c0-1.84,.31-3.69,1.23-5.22s2.15-2.76,3.69-3.69c1.54-.92,3.38-1.23,5.53-1.23s3.99,.31,5.53,1.23,2.76,2.15,3.69,3.69c.92,1.54,1.23,3.38,1.23,5.22v8.6c0,2.15-.31,3.69-1.23,5.22s-2.15,2.76-3.69,3.69c-1.54,.92-3.38,1.23-5.53,1.23s-3.99-.31-5.53-1.23Zm8.91-4.91c.92-.92,1.23-2.15,1.23-3.69V10.14c0-1.54-.31-2.76-1.23-3.69s-2.15-1.54-3.69-1.54-2.76,.61-3.38,1.54-1.23,2.15-1.23,3.69v8.91c0,1.54,.31,2.76,1.23,3.69,.92,.92,2.15,1.54,3.38,1.54s2.76-.61,3.69-1.54Z" style="fill:#fff;"/>
    <path d="M552.58,.61V5.22l-.31,.31h-7.06s-.31,0-.31,.31V28.57l-.31,.31h-4.61s-.31,0-.31-.31V5.84s0-.31-.31-.31h-7.06s-.31,0-.31-.31V.61h20.58Z" style="fill:#fff;"/>
    <path d="M566.09,27.64c-1.54-.92-2.76-2.15-3.69-3.69s-1.23-3.38-1.23-5.22V10.14c0-1.84,.31-3.69,1.23-5.22s2.15-2.76,3.69-3.69c1.54-.92,3.38-1.23,5.53-1.23s3.99,.31,5.53,1.23,2.76,2.15,3.69,3.69c.92,1.54,1.23,3.38,1.23,5.22v8.6c0,2.15-.31,3.69-1.23,5.22-.92,1.54-2.15,2.76-3.69,3.69-1.54,.92-3.38,1.23-5.53,1.23s-3.99-.31-5.53-1.23Zm8.91-4.91c.92-.92,1.23-2.15,1.23-3.69V10.14c0-1.54-.31-2.76-1.23-3.69-.92-.92-2.15-1.54-3.69-1.54s-2.76,.61-3.38,1.54-1.23,2.15-1.23,3.69v8.91c0,1.54,.31,2.76,1.23,3.69,.92,.92,2.15,1.54,3.38,1.54s2.76-.61,3.69-1.54Z" style="fill:#fff;"/>
    <path d="M597.11,27.64c-1.54-.92-2.76-1.84-3.69-3.38-.92-1.54-1.23-3.07-1.23-5.22V9.83c0-1.84,.31-3.69,1.23-5.22,.92-1.54,2.15-2.46,3.69-3.38,1.54-.92,3.38-1.23,5.53-1.23s3.69,.31,5.53,1.23c1.84,.92,2.76,1.84,3.69,3.38,.92,1.54,1.23,3.07,1.23,4.91q0,.31-.61,.31l-4.61,.31h0c-.31,0-.31-.31-.31-.31,0-1.54-.31-2.46-1.23-3.38-.92-.92-1.84-1.23-3.38-1.23s-2.46,.31-3.38,1.23-1.23,2.15-1.23,3.38v9.52c0,1.23,.31,2.46,1.23,3.38,.92,.92,2.15,1.23,3.38,1.23s2.46-.31,3.38-1.23,1.23-1.84,1.23-3.38q0-.31,.61-.31l4.61,.31h.31v.31c0,1.84-.31,3.38-1.23,4.91s-2.15,2.46-3.69,3.38c-1.54,.61-3.38,1.23-5.53,1.23s-3.99-.61-5.53-1.54h0Z" style="fill:#fff;"/>
    <path d="M627.83,27.64c-1.54-.92-2.76-2.15-3.69-3.69s-1.23-3.38-1.23-5.22V10.14c0-1.84,.31-3.69,1.23-5.22s2.15-2.76,3.69-3.69c1.54-.92,3.38-1.23,5.53-1.23s3.99,.31,5.53,1.23c1.54,.92,2.76,2.15,3.69,3.69,.92,1.54,1.23,3.38,1.23,5.22v8.6c0,2.15-.31,3.69-1.23,5.22-.92,1.54-2.15,2.76-3.69,3.69-1.54,.92-3.38,1.23-5.53,1.23s-3.69-.31-5.53-1.23Zm9.21-4.91c.92-.92,1.23-2.15,1.23-3.69V10.14c0-1.54-.31-2.76-1.23-3.69-.92-.92-2.15-1.54-3.69-1.54s-2.76,.61-3.38,1.54-1.23,2.15-1.23,3.69v8.91c0,1.54,.31,2.76,1.23,3.69,.92,.92,2.15,1.54,3.38,1.54s2.76-.61,3.69-1.54Z" style="fill:#fff;"/>
    <path d="M654.86,28.26V.61h5.22V23.34s0,.31,.31,.31h12.9s.31,0,.31,.31v4.61l-.31,.31h-18.43c.31-.31,0-.31,0-.61h0Z" style="fill:#fff;"/>
    <path d="M717.52,5.22h-13.21s-.31,0-.31,.31v6.14s0,.31,.31,.31h8.91v4.61l-.31,.31h-8.6s-.31,0-.31,.31v11.36l-.31,.31h-4.61s-.31,0-.31-.31V.92h19.04V5.22c0-.31,0,0-.31,0h0Z" style="fill:#fff;"/>
    <path d="M731.65,27.64c-1.54-.92-2.76-2.15-3.69-3.69-.92-1.54-1.23-3.38-1.23-5.22V10.14c0-1.84,.31-3.69,1.23-5.22,.92-1.54,2.15-2.76,3.69-3.69,1.54-.92,3.38-1.23,5.53-1.23s3.99,.31,5.53,1.23c1.54,.92,2.76,2.15,3.69,3.69,.92,1.54,1.23,3.38,1.23,5.22v8.6c0,2.15-.31,3.69-1.23,5.22-.92,1.54-2.15,2.76-3.69,3.69-1.54,.92-3.38,1.23-5.53,1.23s-3.99-.31-5.53-1.23Zm8.91-4.91c.92-.92,1.23-2.15,1.23-3.69V10.14c0-1.54-.31-2.76-1.23-3.69s-2.15-1.54-3.69-1.54-2.76,.61-3.38,1.54c-.61,.92-1.23,2.15-1.23,3.69v8.91c0,1.54,.31,2.76,1.23,3.69,.92,.92,2.15,1.54,3.38,1.54s2.76-.61,3.69-1.54Z" style="fill:#fff;"/>
    <path d="M773.12,28.26l-4.91-11.06s0-.31-.31-.31h-3.69s-.31,0-.31,.31v11.36l-.31,.31h-4.61s-.31,0-.31-.31V.92h11.67c1.54,0,3.07,.31,4.61,.92,1.23,.61,2.46,1.84,3.07,3.07,.61,1.23,.92,2.76,.92,4.3,0,1.84-.31,3.38-1.23,4.61-.92,1.23-2.15,2.15-3.69,2.76,0,0-.31,.31,0,.31l5.53,11.36v.31q0,.31-.31,.31h-4.91c-.92-.31-1.23-.61-1.23-.61h0Zm-9.21-22.73v6.76s0,.31,.31,.31h5.22c1.23,0,2.15-.31,2.76-.92s.92-1.54,.92-2.46-.31-1.84-.92-2.46-1.54-.92-2.76-.92l-5.53-.31c.31,0,0,0,0,0h0Z" style="fill:#fff;"/>
</svg>