<svg xmlns="http://www.w3.org/2000/svg" viewBox="0 0 779.57 29.18"><path d="M4.91 27.64c-1.54-.92-2.76-2.15-3.69-3.69s-1.23-3.38-1.23-5.22v-8.59c0-1.84.31-3.69 1.23-5.22a10.6 10.6 0 0 1 3.69-3.69C6.45.31 8.29 0 10.44 0s3.99.31 5.53 1.23 2.76 2.15 3.69 3.69c.92 1.54 1.23 3.38 1.23 5.22v8.6c0 2.15-.31 3.69-1.23 5.22a10.6 10.6 0 0 1-3.69 3.69c-1.54.92-3.38 1.23-5.53 1.23s-3.99-.31-5.53-1.23Zm9.21-4.91c.92-.92 1.23-2.15 1.23-3.69v-8.9c0-1.54-.31-2.76-1.23-3.69-.92-.92-2.15-1.54-3.69-1.54s-2.76.61-3.38 1.54-1.23 2.15-1.23 3.69v8.91c0 1.54.31 2.76 1.23 3.69.92.92 2.15 1.54 3.38 1.54s2.76-.61 3.69-1.54Zm33.8-21.19c1.23.61 2.46 1.84 3.07 3.07.61 1.23 1.23 2.76 1.23 4.61s-.31 3.07-1.23 4.3c-.92 1.23-1.84 2.15-3.07 3.07s-3.07.92-4.61.92h-5.84s-.31 0-.31.31v10.44l-.31.31h-4.61s-.31 0-.31-.31l-.31-.31V.92s0-.31.31-.31.31-.31.31-.31H43.6c1.54.31 3.07.61 4.3 1.23Zm-2.46 10.44c.61-.61 1.23-1.54 1.23-2.76s-.31-2.15-1.23-2.76c-.61-.61-1.84-.92-3.07-.92h-4.91s-.31 0-.31.31v7.37s0 .31.31.31h4.91c1.23-.31 2.15-.61 3.07-1.54ZM81.4 5.22H67.89s-.31 0-.31.31v6.14s0 .31.31.31h8.91v4.61l-.31.31h-8.6s-.31 0-.31.31v6.45s0 .31.31.31H81.1s.31 0 .31.31.31.31.31.31v3.99s0 .31-.31.31-.31.31-.31.31H62.67s-.31 0-.31-.31l-.31-.31V1.54s0-.31.31-.31H81.4l.31.31v3.99c-.31-.61-.31-.31-.31-.31ZM107.81.61h5.22v27.65l-.31.31h-4.61q-.31 0-.61-.31l-10.44-17.2h-.31v17.2s0 .31-.31.31-.31.31-.31.31h-4.61s-.31 0-.31-.31l-.31-.31V1.23s0-.31.31-.31h4.91q.31 0 .61.31l10.44 16.89h.31V.92c.31.31.31 0 .31-.31Zm31.64 27.65-.31-.31V.92s0-.31.31-.31h5.22l.31.31v11.06h.31L154.5.61q.31-.31.61-.31h5.22q.31 0 .31.31v.31l-8.91 11.36v.31l9.52 15.05v.31q0 .31-.31.31h-5.53q-.31 0-.61-.31l-7.06-11.36h-.31l-2.46 3.07v8.29s0 .31-.31.31-.31.31-.31.31h-4.61s-.31 0-.31-.31ZM186.75.61h5.22v27.65l-.31.31h-4.61q-.31 0-.61-.31L176 11.06h-.31v17.2s0 .31-.31.31-.31.31-.31.31h-4.61s-.31 0-.31-.31l-.31-.31V1.23s0-.31.31-.31h4.91q.31 0 .61.31l10.44 16.89h.31V.92c.31.31.31 0 .31-.31Zm21.2 27.03a10.6 10.6 0 0 1-3.69-3.69c-.92-1.54-1.23-3.38-1.23-5.22v-8.59c0-1.84.31-3.69 1.23-5.22s2.15-2.76 3.69-3.69C209.49.31 211.33 0 213.48 0s3.99.31 5.53 1.23 2.76 2.15 3.69 3.69c.92 1.54 1.23 3.38 1.23 5.22v8.6c0 2.15-.31 3.69-1.23 5.22a10.6 10.6 0 0 1-3.69 3.69c-1.54.92-3.38 1.23-5.53 1.23s-3.99-.31-5.53-1.23Zm9.21-4.91c.92-.92 1.23-2.15 1.23-3.69v-8.9c0-1.54-.31-2.76-1.23-3.69-.92-.92-2.15-1.54-3.69-1.54s-2.76.61-3.38 1.54-1.23 2.15-1.23 3.69v8.91c0 1.54.31 2.76 1.23 3.69.92.92 2.15 1.54 3.38 1.54s2.76-.61 3.69-1.54Zm22.73 5.53-7.06-27.03V.92q0-.31.31-.31h4.91q.31 0 .61.31l3.69 16.28L246.04.92c0-.31.31-.31.61-.31h4.91c.31 0 .61 0 .61.31l3.99 16.28L259.85.92c0-.31.31-.31.61-.31h4.61c.31 0 .61.31.31.61l-6.45 27.03c0 .31-.31.31-.61.31h-4.91q-.31 0-.61-.31l-3.99-17.2-3.69 17.2c0 .31-.31.31-.61.31h-4.3l-.31-.31Zm35.94 0-.31-.31V.92s0-.31.31-.31h5.22l.31.31v22.42s0 .31.31.31h12.9s.31 0 .31.31v4.61l-.31.31h-18.43c0-.31-.31-.31-.31-.61Zm48.22-23.04h-13.51s-.31 0-.31.31v6.14s0 .31.31.31h8.91v4.61l-.31.31h-8.6s-.31 0-.31.31v6.45s0 .31.31.31h13.21s.31 0 .31.31.31.31.31.31v3.99s0 .31-.31.31-.31.31-.31.31h-18.43s-.31 0-.31-.31l-.31-.31V1.54s0-.31.31-.31h19.04l.31.31v3.99c0-.61 0-.31-.31-.31Zm10.75 23.04-.31-.31V.92s0-.31.31-.31h10.14c1.84 0 3.69.31 5.22.92 1.54.61 2.76 1.84 3.38 3.07s1.23 2.76 1.23 4.3v11.06c0 1.84-.31 3.07-1.23 4.3-.92 1.23-1.84 2.15-3.38 3.07s-3.38.92-5.22.92h-9.83c0 .31-.31.31-.31 0Zm5.53-4.61h4.91c1.23 0 2.15-.31 3.07-1.23s1.23-1.84 1.23-3.38V9.83c0-1.23-.31-2.46-1.23-3.38s-1.84-1.23-3.07-1.23h-4.91s-.31 0-.31.31l.31 18.12c0-.31 0 0 0 0Zm29.79 3.99c-1.54-.92-2.76-1.84-3.69-3.38s-1.23-3.07-1.23-5.22v-8.9c0-1.84.31-3.69 1.23-5.22s2.15-2.76 3.69-3.38c1.54-.92 3.38-1.23 5.53-1.23s3.69.31 5.53 1.23 2.76 1.84 3.69 3.38c.92 1.54 1.23 2.76 1.23 4.61v.61l-.31.31h-4.61s-.31 0-.31-.31-.31-.31-.31-.31c0-1.23-.31-2.15-1.23-3.07-.92-.92-1.84-1.23-3.38-1.23s-2.46.61-3.38 1.23c-.92.61-1.23 2.15-1.23 3.38v9.21c0 1.54.31 2.46 1.54 3.38.92.92 2.15 1.23 3.69 1.23s2.46-.31 3.38-1.23c.92-.92 1.23-1.84 1.23-3.07v-1.84s0-.31-.31-.31h-4.61s-.31 0-.31-.31v-4.3h10.44v5.53c0 2.15-.31 3.69-1.23 5.22-.92 1.54-2.15 2.76-3.69 3.38-1.54.92-3.38 1.23-5.53 1.23s-4.3.31-5.84-.61Zm45.77-22.42h-13.51s-.31 0-.31.31v6.14s0 .31.31.31h8.91v4.61l-.31.31h-8.6s-.31 0-.31.31v6.45s0 .31.31.31h13.21s.31 0 .31.31v4.61l-.31.31h-18.43s-.31 0-.31-.31V1.23h19.04v4.3-.31Zm41.16-3.68c1.23.61 2.46 1.84 3.07 3.07s1.23 2.76 1.23 4.61-.31 3.07-1.23 4.3-1.84 2.15-3.07 3.07-3.07.92-4.61.92h-5.84s-.31 0-.31.31v10.44l-.31.31h-4.91s-.31 0-.31-.31V.61l.31-.31h11.36c1.54.31 3.07.61 4.61 1.23Zm-2.76 10.44c.61-.61 1.23-1.54 1.23-2.76s-.31-2.15-1.23-2.76c-.61-.61-1.84-.92-3.07-.92h-4.91s-.31 0-.31.31v7.37s0 .31.31.31h4.91c1.54-.31 2.46-.61 3.07-1.54Zm31.63 16.28-4.91-11.06s0-.31-.31-.31h-3.69s-.31 0-.31.31v11.36l-.31.31h-4.61s-.31 0-.31-.31V.92h11.67c1.54 0 3.07.31 4.61.92 1.23.61 2.46 1.84 3.07 3.07s.92 2.76.92 4.3c0 1.84-.31 3.38-1.23 4.61-.92 1.23-2.15 2.15-3.69 2.76 0 0-.31.31 0 .31l5.53 11.36v.31q0 .31-.31.31h-4.91c-1.23-.31-1.23-.61-1.23-.61Zm-9.21-22.73v6.76s0 .31.31.31h5.22c1.23 0 2.15-.31 2.76-.92s.92-1.54.92-2.46-.31-1.84-.92-2.46c-.61-.61-1.54-.92-2.76-.92l-5.53-.31Zm29.79 22.11c-1.54-.92-2.76-2.15-3.69-3.69s-1.23-3.38-1.23-5.22v-8.59c0-1.84.31-3.69 1.23-5.22a10.6 10.6 0 0 1 3.69-3.69C508.04.31 509.88 0 512.03 0s3.99.31 5.53 1.23a10.6 10.6 0 0 1 3.69 3.69c.92 1.54 1.23 3.38 1.23 5.22v8.6c0 2.15-.31 3.69-1.23 5.22a10.6 10.6 0 0 1-3.69 3.69c-1.54.92-3.38 1.23-5.53 1.23s-3.99-.31-5.53-1.23Zm8.91-4.91c.92-.92 1.23-2.15 1.23-3.69v-8.9c0-1.54-.31-2.76-1.23-3.69s-2.15-1.54-3.69-1.54-2.76.61-3.38 1.54-1.23 2.15-1.23 3.69v8.91c0 1.54.31 2.76 1.23 3.69.92.92 2.15 1.54 3.38 1.54s2.76-.61 3.69-1.54ZM552.58.61v4.61l-.31.31h-7.06s-.31 0-.31.31v22.73l-.31.31h-4.61s-.31 0-.31-.31V5.84s0-.31-.31-.31h-7.06s-.31 0-.31-.31V.61h20.58Zm13.51 27.03a10.6 10.6 0 0 1-3.69-3.69c-.92-1.54-1.23-3.38-1.23-5.22v-8.59c0-1.84.31-3.69 1.23-5.22a10.6 10.6 0 0 1 3.69-3.69C567.63.31 569.47 0 571.62 0s3.99.31 5.53 1.23a10.6 10.6 0 0 1 3.69 3.69c.92 1.54 1.23 3.38 1.23 5.22v8.6c0 2.15-.31 3.69-1.23 5.22s-2.15 2.76-3.69 3.69c-1.54.92-3.38 1.23-5.53 1.23s-3.99-.31-5.53-1.23Zm8.91-4.91c.92-.92 1.23-2.15 1.23-3.69v-8.9c0-1.54-.31-2.76-1.23-3.69s-2.15-1.54-3.69-1.54-2.76.61-3.38 1.54-1.23 2.15-1.23 3.69v8.91c0 1.54.31 2.76 1.23 3.69.92.92 2.15 1.54 3.38 1.54s2.76-.61 3.69-1.54Zm22.11 4.91c-1.54-.92-2.76-1.84-3.69-3.38s-1.23-3.07-1.23-5.22V9.83c0-1.84.31-3.69 1.23-5.22s2.15-2.46 3.69-3.38C598.65.31 600.49 0 602.64 0s3.69.31 5.53 1.23c1.84.92 2.76 1.84 3.69 3.38.92 1.54 1.23 3.07 1.23 4.91q0 .31-.61.31l-4.61.31c-.31 0-.31-.31-.31-.31 0-1.54-.31-2.46-1.23-3.38-.92-.92-1.84-1.23-3.38-1.23s-2.46.31-3.38 1.23-1.23 2.15-1.23 3.38v9.52c0 1.23.31 2.46 1.23 3.38.92.92 2.15 1.23 3.38 1.23s2.46-.31 3.38-1.23c.92-.92 1.23-1.84 1.23-3.38q0-.31.61-.31l4.61.31h.31v.31c0 1.84-.31 3.38-1.23 4.91s-2.15 2.46-3.69 3.38c-1.54.61-3.38 1.23-5.53 1.23s-3.99-.61-5.53-1.54Zm30.72 0a10.6 10.6 0 0 1-3.69-3.69c-.92-1.54-1.23-3.38-1.23-5.22v-8.59c0-1.84.31-3.69 1.23-5.22a10.6 10.6 0 0 1 3.69-3.69C629.37.31 631.21 0 633.36 0s3.99.31 5.53 1.23 2.76 2.15 3.69 3.69c.92 1.54 1.23 3.38 1.23 5.22v8.6c0 2.15-.31 3.69-1.23 5.22s-2.15 2.76-3.69 3.69c-1.54.92-3.38 1.23-5.53 1.23s-3.69-.31-5.53-1.23Zm9.21-4.91c.92-.92 1.23-2.15 1.23-3.69v-8.9c0-1.54-.31-2.76-1.23-3.69s-2.15-1.54-3.69-1.54-2.76.61-3.38 1.54-1.23 2.15-1.23 3.69v8.91c0 1.54.31 2.76 1.23 3.69.92.92 2.15 1.54 3.38 1.54s2.76-.61 3.69-1.54Zm17.82 5.53V.61h5.22v22.73s0 .31.31.31h12.9s.31 0 .31.31v4.61l-.31.31h-18.43c.31-.31 0-.31 0-.61Zm62.66-23.04h-13.21s-.31 0-.31.31v6.14s0 .31.31.31h8.91v4.61l-.31.31h-8.6s-.31 0-.31.31v11.36l-.31.31h-4.61s-.31 0-.31-.31V.92h19.04v4.3c0-.31 0 0-.31 0Zm14.13 22.42a10.6 10.6 0 0 1-3.69-3.69c-.92-1.54-1.23-3.38-1.23-5.22v-8.59c0-1.84.31-3.69 1.23-5.22a10.6 10.6 0 0 1 3.69-3.69C733.19.31 735.03 0 737.18 0s3.99.31 5.53 1.23a10.6 10.6 0 0 1 3.69 3.69c.92 1.54 1.23 3.38 1.23 5.22v8.6c0 2.15-.31 3.69-1.23 5.22s-2.15 2.76-3.69 3.69c-1.54.92-3.38 1.23-5.53 1.23s-3.99-.31-5.53-1.23Zm8.91-4.91c.92-.92 1.23-2.15 1.23-3.69v-8.9c0-1.54-.31-2.76-1.23-3.69s-2.15-1.54-3.69-1.54-2.76.61-3.38 1.54c-.61.92-1.23 2.15-1.23 3.69v8.91c0 1.54.31 2.76 1.23 3.69.92.92 2.15 1.54 3.38 1.54s2.76-.61 3.69-1.54Zm32.56 5.53-4.91-11.06s0-.31-.31-.31h-3.69s-.31 0-.31.31v11.36l-.31.31h-4.61s-.31 0-.31-.31V.92h11.67c1.54 0 3.07.31 4.61.92 1.23.61 2.46 1.84 3.07 3.07.61 1.23.92 2.76.92 4.3 0 1.84-.31 3.38-1.23 4.61-.92 1.23-2.15 2.15-3.69 2.76 0 0-.31.31 0 .31l5.53 11.36v.31q0 .31-.31.31h-4.91c-.92-.31-1.23-.61-1.23-.61Zm-9.21-22.73v6.76s0 .31.31.31h5.22c1.23 0 2.15-.31 2.76-.92s.92-1.54.92-2.46-.31-1.84-.92-2.46c-.61-.61-1.54-.92-2.76-.92l-5.53-.31c.31 0 0 0 0 0Z" style="fill:#181c49"/></svg>